<?xml version="1.0" encoding="utf-8" standalone="no"?>
<!DOCTYPE svg PUBLIC "-//W3C//DTD SVG 1.1//EN"
  "http://www.w3.org/Graphics/SVG/1.1/DTD/svg11.dtd">
<svg xmlns:xlink="http://www.w3.org/1999/xlink" width="857.457937pt" height="432.729812pt" viewBox="0 0 857.457937 432.729812" xmlns="http://www.w3.org/2000/svg" version="1.1">
 <metadata>
  <rdf:RDF xmlns:dc="http://purl.org/dc/elements/1.1/" xmlns:cc="http://creativecommons.org/ns#" xmlns:rdf="http://www.w3.org/1999/02/22-rdf-syntax-ns#">
   <cc:Work>
    <dc:type rdf:resource="http://purl.org/dc/dcmitype/StillImage"/>
    <dc:date>2025-10-24T16:58:48.948196</dc:date>
    <dc:format>image/svg+xml</dc:format>
    <dc:creator>
     <cc:Agent>
      <dc:title>Matplotlib v3.10.0, https://matplotlib.org/</dc:title>
     </cc:Agent>
    </dc:creator>
   </cc:Work>
  </rdf:RDF>
 </metadata>
 <defs>
  <style type="text/css">*{stroke-linejoin: round; stroke-linecap: butt}</style>
 </defs>
 <g id="figure_1">
  <g id="patch_1">
   <path d="M 0 432.729812 
L 857.457937 432.729812 
L 857.457937 0 
L 0 0 
z
" style="fill: #ffffff"/>
  </g>
  <g id="axes_1">
   <g id="patch_2">
    <path d="M 41.343938 377.601812 
L 440.616937 377.601812 
L 440.616937 27.837812 
L 41.343938 27.837812 
z
" style="fill: #ffffff"/>
   </g>
   <g id="matplotlib.axis_1">
    <g id="xtick_1">
     <g id="text_1">
      <!-- Pre -->
      <g style="fill: #262626" transform="translate(132.420625 394.260094) scale(0.11 -0.11)">
       <defs>
        <path id="DejaVuSans-50" d="M 1259 4147 
L 1259 2394 
L 2053 2394 
Q 2494 2394 2734 2622 
Q 2975 2850 2975 3272 
Q 2975 3691 2734 3919 
Q 2494 4147 2053 4147 
L 1259 4147 
z
M 628 4666 
L 2053 4666 
Q 2838 4666 3239 4311 
Q 3641 3956 3641 3272 
Q 3641 2581 3239 2228 
Q 2838 1875 2053 1875 
L 1259 1875 
L 1259 0 
L 628 0 
L 628 4666 
z
" transform="scale(0.015625)"/>
        <path id="DejaVuSans-72" d="M 2631 2963 
Q 2534 3019 2420 3045 
Q 2306 3072 2169 3072 
Q 1681 3072 1420 2755 
Q 1159 2438 1159 1844 
L 1159 0 
L 581 0 
L 581 3500 
L 1159 3500 
L 1159 2956 
Q 1341 3275 1631 3429 
Q 1922 3584 2338 3584 
Q 2397 3584 2469 3576 
Q 2541 3569 2628 3553 
L 2631 2963 
z
" transform="scale(0.015625)"/>
        <path id="DejaVuSans-65" d="M 3597 1894 
L 3597 1613 
L 953 1613 
Q 991 1019 1311 708 
Q 1631 397 2203 397 
Q 2534 397 2845 478 
Q 3156 559 3463 722 
L 3463 178 
Q 3153 47 2828 -22 
Q 2503 -91 2169 -91 
Q 1331 -91 842 396 
Q 353 884 353 1716 
Q 353 2575 817 3079 
Q 1281 3584 2069 3584 
Q 2775 3584 3186 3129 
Q 3597 2675 3597 1894 
z
M 3022 2063 
Q 3016 2534 2758 2815 
Q 2500 3097 2075 3097 
Q 1594 3097 1305 2825 
Q 1016 2553 972 2059 
L 3022 2063 
z
" transform="scale(0.015625)"/>
       </defs>
       <use xlink:href="#DejaVuSans-50"/>
       <use xlink:href="#DejaVuSans-72" transform="translate(58.552734 0)"/>
       <use xlink:href="#DejaVuSans-65" transform="translate(97.416016 0)"/>
      </g>
     </g>
    </g>
    <g id="xtick_2">
     <g id="text_2">
      <!-- Post -->
      <g style="fill: #262626" transform="translate(329.295094 394.260094) scale(0.11 -0.11)">
       <defs>
        <path id="DejaVuSans-6f" d="M 1959 3097 
Q 1497 3097 1228 2736 
Q 959 2375 959 1747 
Q 959 1119 1226 758 
Q 1494 397 1959 397 
Q 2419 397 2687 759 
Q 2956 1122 2956 1747 
Q 2956 2369 2687 2733 
Q 2419 3097 1959 3097 
z
M 1959 3584 
Q 2709 3584 3137 3096 
Q 3566 2609 3566 1747 
Q 3566 888 3137 398 
Q 2709 -91 1959 -91 
Q 1206 -91 779 398 
Q 353 888 353 1747 
Q 353 2609 779 3096 
Q 1206 3584 1959 3584 
z
" transform="scale(0.015625)"/>
        <path id="DejaVuSans-73" d="M 2834 3397 
L 2834 2853 
Q 2591 2978 2328 3040 
Q 2066 3103 1784 3103 
Q 1356 3103 1142 2972 
Q 928 2841 928 2578 
Q 928 2378 1081 2264 
Q 1234 2150 1697 2047 
L 1894 2003 
Q 2506 1872 2764 1633 
Q 3022 1394 3022 966 
Q 3022 478 2636 193 
Q 2250 -91 1575 -91 
Q 1294 -91 989 -36 
Q 684 19 347 128 
L 347 722 
Q 666 556 975 473 
Q 1284 391 1588 391 
Q 1994 391 2212 530 
Q 2431 669 2431 922 
Q 2431 1156 2273 1281 
Q 2116 1406 1581 1522 
L 1381 1569 
Q 847 1681 609 1914 
Q 372 2147 372 2553 
Q 372 3047 722 3315 
Q 1072 3584 1716 3584 
Q 2034 3584 2315 3537 
Q 2597 3491 2834 3397 
z
" transform="scale(0.015625)"/>
        <path id="DejaVuSans-74" d="M 1172 4494 
L 1172 3500 
L 2356 3500 
L 2356 3053 
L 1172 3053 
L 1172 1153 
Q 1172 725 1289 603 
Q 1406 481 1766 481 
L 2356 481 
L 2356 0 
L 1766 0 
Q 1100 0 847 248 
Q 594 497 594 1153 
L 594 3053 
L 172 3053 
L 172 3500 
L 594 3500 
L 594 4494 
L 1172 4494 
z
" transform="scale(0.015625)"/>
       </defs>
       <use xlink:href="#DejaVuSans-50"/>
       <use xlink:href="#DejaVuSans-6f" transform="translate(56.677734 0)"/>
       <use xlink:href="#DejaVuSans-73" transform="translate(117.859375 0)"/>
       <use xlink:href="#DejaVuSans-74" transform="translate(169.958984 0)"/>
      </g>
     </g>
    </g>
   </g>
   <g id="matplotlib.axis_2">
    <g id="ytick_1">
     <g id="text_3">
      <!-- 16 -->
      <g style="fill: #262626" transform="translate(21.845937 374.736297) scale(0.088 -0.088)">
       <defs>
        <path id="DejaVuSans-31" d="M 794 531 
L 1825 531 
L 1825 4091 
L 703 3866 
L 703 4441 
L 1819 4666 
L 2450 4666 
L 2450 531 
L 3481 531 
L 3481 0 
L 794 0 
L 794 531 
z
" transform="scale(0.015625)"/>
        <path id="DejaVuSans-36" d="M 2113 2584 
Q 1688 2584 1439 2293 
Q 1191 2003 1191 1497 
Q 1191 994 1439 701 
Q 1688 409 2113 409 
Q 2538 409 2786 701 
Q 3034 994 3034 1497 
Q 3034 2003 2786 2293 
Q 2538 2584 2113 2584 
z
M 3366 4563 
L 3366 3988 
Q 3128 4100 2886 4159 
Q 2644 4219 2406 4219 
Q 1781 4219 1451 3797 
Q 1122 3375 1075 2522 
Q 1259 2794 1537 2939 
Q 1816 3084 2150 3084 
Q 2853 3084 3261 2657 
Q 3669 2231 3669 1497 
Q 3669 778 3244 343 
Q 2819 -91 2113 -91 
Q 1303 -91 875 529 
Q 447 1150 447 2328 
Q 447 3434 972 4092 
Q 1497 4750 2381 4750 
Q 2619 4750 2861 4703 
Q 3103 4656 3366 4563 
z
" transform="scale(0.015625)"/>
       </defs>
       <use xlink:href="#DejaVuSans-31"/>
       <use xlink:href="#DejaVuSans-36" transform="translate(63.623047 0)"/>
      </g>
     </g>
    </g>
    <g id="ytick_2">
     <g id="text_4">
      <!-- 18 -->
      <g style="fill: #262626" transform="translate(21.845937 333.344107) scale(0.088 -0.088)">
       <defs>
        <path id="DejaVuSans-38" d="M 2034 2216 
Q 1584 2216 1326 1975 
Q 1069 1734 1069 1313 
Q 1069 891 1326 650 
Q 1584 409 2034 409 
Q 2484 409 2743 651 
Q 3003 894 3003 1313 
Q 3003 1734 2745 1975 
Q 2488 2216 2034 2216 
z
M 1403 2484 
Q 997 2584 770 2862 
Q 544 3141 544 3541 
Q 544 4100 942 4425 
Q 1341 4750 2034 4750 
Q 2731 4750 3128 4425 
Q 3525 4100 3525 3541 
Q 3525 3141 3298 2862 
Q 3072 2584 2669 2484 
Q 3125 2378 3379 2068 
Q 3634 1759 3634 1313 
Q 3634 634 3220 271 
Q 2806 -91 2034 -91 
Q 1263 -91 848 271 
Q 434 634 434 1313 
Q 434 1759 690 2068 
Q 947 2378 1403 2484 
z
M 1172 3481 
Q 1172 3119 1398 2916 
Q 1625 2713 2034 2713 
Q 2441 2713 2670 2916 
Q 2900 3119 2900 3481 
Q 2900 3844 2670 4047 
Q 2441 4250 2034 4250 
Q 1625 4250 1398 4047 
Q 1172 3844 1172 3481 
z
" transform="scale(0.015625)"/>
       </defs>
       <use xlink:href="#DejaVuSans-31"/>
       <use xlink:href="#DejaVuSans-38" transform="translate(63.623047 0)"/>
      </g>
     </g>
    </g>
    <g id="ytick_3">
     <g id="text_5">
      <!-- 20 -->
      <g style="fill: #262626" transform="translate(21.845937 291.951918) scale(0.088 -0.088)">
       <defs>
        <path id="DejaVuSans-32" d="M 1228 531 
L 3431 531 
L 3431 0 
L 469 0 
L 469 531 
Q 828 903 1448 1529 
Q 2069 2156 2228 2338 
Q 2531 2678 2651 2914 
Q 2772 3150 2772 3378 
Q 2772 3750 2511 3984 
Q 2250 4219 1831 4219 
Q 1534 4219 1204 4116 
Q 875 4013 500 3803 
L 500 4441 
Q 881 4594 1212 4672 
Q 1544 4750 1819 4750 
Q 2544 4750 2975 4387 
Q 3406 4025 3406 3419 
Q 3406 3131 3298 2873 
Q 3191 2616 2906 2266 
Q 2828 2175 2409 1742 
Q 1991 1309 1228 531 
z
" transform="scale(0.015625)"/>
        <path id="DejaVuSans-30" d="M 2034 4250 
Q 1547 4250 1301 3770 
Q 1056 3291 1056 2328 
Q 1056 1369 1301 889 
Q 1547 409 2034 409 
Q 2525 409 2770 889 
Q 3016 1369 3016 2328 
Q 3016 3291 2770 3770 
Q 2525 4250 2034 4250 
z
M 2034 4750 
Q 2819 4750 3233 4129 
Q 3647 3509 3647 2328 
Q 3647 1150 3233 529 
Q 2819 -91 2034 -91 
Q 1250 -91 836 529 
Q 422 1150 422 2328 
Q 422 3509 836 4129 
Q 1250 4750 2034 4750 
z
" transform="scale(0.015625)"/>
       </defs>
       <use xlink:href="#DejaVuSans-32"/>
       <use xlink:href="#DejaVuSans-30" transform="translate(63.623047 0)"/>
      </g>
     </g>
    </g>
    <g id="ytick_4">
     <g id="text_6">
      <!-- 22 -->
      <g style="fill: #262626" transform="translate(21.845937 250.559729) scale(0.088 -0.088)">
       <use xlink:href="#DejaVuSans-32"/>
       <use xlink:href="#DejaVuSans-32" transform="translate(63.623047 0)"/>
      </g>
     </g>
    </g>
    <g id="ytick_5">
     <g id="text_7">
      <!-- 24 -->
      <g style="fill: #262626" transform="translate(21.845937 209.167539) scale(0.088 -0.088)">
       <defs>
        <path id="DejaVuSans-34" d="M 2419 4116 
L 825 1625 
L 2419 1625 
L 2419 4116 
z
M 2253 4666 
L 3047 4666 
L 3047 1625 
L 3713 1625 
L 3713 1100 
L 3047 1100 
L 3047 0 
L 2419 0 
L 2419 1100 
L 313 1100 
L 313 1709 
L 2253 4666 
z
" transform="scale(0.015625)"/>
       </defs>
       <use xlink:href="#DejaVuSans-32"/>
       <use xlink:href="#DejaVuSans-34" transform="translate(63.623047 0)"/>
      </g>
     </g>
    </g>
    <g id="ytick_6">
     <g id="text_8">
      <!-- 26 -->
      <g style="fill: #262626" transform="translate(21.845937 167.77535) scale(0.088 -0.088)">
       <use xlink:href="#DejaVuSans-32"/>
       <use xlink:href="#DejaVuSans-36" transform="translate(63.623047 0)"/>
      </g>
     </g>
    </g>
    <g id="ytick_7">
     <g id="text_9">
      <!-- 28 -->
      <g style="fill: #262626" transform="translate(21.845937 126.383161) scale(0.088 -0.088)">
       <use xlink:href="#DejaVuSans-32"/>
       <use xlink:href="#DejaVuSans-38" transform="translate(63.623047 0)"/>
      </g>
     </g>
    </g>
    <g id="ytick_8">
     <g id="text_10">
      <!-- 30 -->
      <g style="fill: #262626" transform="translate(21.845937 84.990971) scale(0.088 -0.088)">
       <defs>
        <path id="DejaVuSans-33" d="M 2597 2516 
Q 3050 2419 3304 2112 
Q 3559 1806 3559 1356 
Q 3559 666 3084 287 
Q 2609 -91 1734 -91 
Q 1441 -91 1130 -33 
Q 819 25 488 141 
L 488 750 
Q 750 597 1062 519 
Q 1375 441 1716 441 
Q 2309 441 2620 675 
Q 2931 909 2931 1356 
Q 2931 1769 2642 2001 
Q 2353 2234 1838 2234 
L 1294 2234 
L 1294 2753 
L 1863 2753 
Q 2328 2753 2575 2939 
Q 2822 3125 2822 3475 
Q 2822 3834 2567 4026 
Q 2313 4219 1838 4219 
Q 1578 4219 1281 4162 
Q 984 4106 628 3988 
L 628 4550 
Q 988 4650 1302 4700 
Q 1616 4750 1894 4750 
Q 2613 4750 3031 4423 
Q 3450 4097 3450 3541 
Q 3450 3153 3228 2886 
Q 3006 2619 2597 2516 
z
" transform="scale(0.015625)"/>
       </defs>
       <use xlink:href="#DejaVuSans-33"/>
       <use xlink:href="#DejaVuSans-30" transform="translate(63.623047 0)"/>
      </g>
     </g>
    </g>
    <g id="ytick_9">
     <g id="text_11">
      <!-- 32 -->
      <g style="fill: #262626" transform="translate(21.845937 43.598782) scale(0.088 -0.088)">
       <use xlink:href="#DejaVuSans-33"/>
       <use xlink:href="#DejaVuSans-32" transform="translate(63.623047 0)"/>
      </g>
     </g>
    </g>
    <g id="ytick_10"/>
    <g id="ytick_11"/>
    <g id="ytick_12"/>
    <g id="ytick_13"/>
    <g id="ytick_14"/>
    <g id="ytick_15"/>
    <g id="ytick_16"/>
    <g id="ytick_17"/>
    <g id="ytick_18"/>
    <g id="ytick_19"/>
    <g id="ytick_20"/>
    <g id="ytick_21"/>
    <g id="ytick_22"/>
    <g id="ytick_23"/>
    <g id="ytick_24"/>
    <g id="ytick_25"/>
    <g id="ytick_26"/>
    <g id="ytick_27"/>
    <g id="ytick_28"/>
    <g id="ytick_29"/>
    <g id="ytick_30"/>
    <g id="ytick_31"/>
    <g id="ytick_32"/>
    <g id="ytick_33"/>
    <g id="ytick_34"/>
    <g id="text_12">
     <!-- MoCA total -->
     <g style="fill: #262626" transform="translate(15.558281 232.757547) rotate(-90) scale(0.11 -0.11)">
      <defs>
       <path id="DejaVuSans-4d" d="M 628 4666 
L 1569 4666 
L 2759 1491 
L 3956 4666 
L 4897 4666 
L 4897 0 
L 4281 0 
L 4281 4097 
L 3078 897 
L 2444 897 
L 1241 4097 
L 1241 0 
L 628 0 
L 628 4666 
z
" transform="scale(0.015625)"/>
       <path id="DejaVuSans-43" d="M 4122 4306 
L 4122 3641 
Q 3803 3938 3442 4084 
Q 3081 4231 2675 4231 
Q 1875 4231 1450 3742 
Q 1025 3253 1025 2328 
Q 1025 1406 1450 917 
Q 1875 428 2675 428 
Q 3081 428 3442 575 
Q 3803 722 4122 1019 
L 4122 359 
Q 3791 134 3420 21 
Q 3050 -91 2638 -91 
Q 1578 -91 968 557 
Q 359 1206 359 2328 
Q 359 3453 968 4101 
Q 1578 4750 2638 4750 
Q 3056 4750 3426 4639 
Q 3797 4528 4122 4306 
z
" transform="scale(0.015625)"/>
       <path id="DejaVuSans-41" d="M 2188 4044 
L 1331 1722 
L 3047 1722 
L 2188 4044 
z
M 1831 4666 
L 2547 4666 
L 4325 0 
L 3669 0 
L 3244 1197 
L 1141 1197 
L 716 0 
L 50 0 
L 1831 4666 
z
" transform="scale(0.015625)"/>
       <path id="DejaVuSans-20" transform="scale(0.015625)"/>
       <path id="DejaVuSans-61" d="M 2194 1759 
Q 1497 1759 1228 1600 
Q 959 1441 959 1056 
Q 959 750 1161 570 
Q 1363 391 1709 391 
Q 2188 391 2477 730 
Q 2766 1069 2766 1631 
L 2766 1759 
L 2194 1759 
z
M 3341 1997 
L 3341 0 
L 2766 0 
L 2766 531 
Q 2569 213 2275 61 
Q 1981 -91 1556 -91 
Q 1019 -91 701 211 
Q 384 513 384 1019 
Q 384 1609 779 1909 
Q 1175 2209 1959 2209 
L 2766 2209 
L 2766 2266 
Q 2766 2663 2505 2880 
Q 2244 3097 1772 3097 
Q 1472 3097 1187 3025 
Q 903 2953 641 2809 
L 641 3341 
Q 956 3463 1253 3523 
Q 1550 3584 1831 3584 
Q 2591 3584 2966 3190 
Q 3341 2797 3341 1997 
z
" transform="scale(0.015625)"/>
       <path id="DejaVuSans-6c" d="M 603 4863 
L 1178 4863 
L 1178 0 
L 603 0 
L 603 4863 
z
" transform="scale(0.015625)"/>
      </defs>
      <use xlink:href="#DejaVuSans-4d"/>
      <use xlink:href="#DejaVuSans-6f" transform="translate(86.279297 0)"/>
      <use xlink:href="#DejaVuSans-43" transform="translate(147.460938 0)"/>
      <use xlink:href="#DejaVuSans-41" transform="translate(217.285156 0)"/>
      <use xlink:href="#DejaVuSans-20" transform="translate(285.693359 0)"/>
      <use xlink:href="#DejaVuSans-74" transform="translate(317.480469 0)"/>
      <use xlink:href="#DejaVuSans-6f" transform="translate(356.689453 0)"/>
      <use xlink:href="#DejaVuSans-74" transform="translate(417.871094 0)"/>
      <use xlink:href="#DejaVuSans-61" transform="translate(457.080078 0)"/>
      <use xlink:href="#DejaVuSans-6c" transform="translate(518.359375 0)"/>
     </g>
    </g>
   </g>
   <g id="FillBetweenPolyCollection_1">
    <defs>
     <path id="mfef648f20b" d="M 126.433792 -226.905586 
L 117.79047 -226.905586 
L 117.47164 -228.159895 
L 117.16592 -229.414203 
L 116.875176 -230.668512 
L 116.601138 -231.922821 
L 116.34537 -233.17713 
L 116.109226 -234.431438 
L 115.893821 -235.685747 
L 115.699991 -236.940056 
L 115.528267 -238.194365 
L 115.378839 -239.448673 
L 115.251539 -240.702982 
L 115.145814 -241.957291 
L 115.060716 -243.2116 
L 114.994897 -244.465909 
L 114.946606 -245.720217 
L 114.913701 -246.974526 
L 114.893664 -248.228835 
L 114.88363 -249.483144 
L 114.880422 -250.737452 
L 114.880592 -251.991761 
L 114.880474 -253.24607 
L 114.876241 -254.500379 
L 114.863965 -255.754687 
L 114.839688 -257.008996 
L 114.799486 -258.263305 
L 114.739544 -259.517614 
L 114.656216 -260.771923 
L 114.546095 -262.026231 
L 114.406069 -263.28054 
L 114.233373 -264.534849 
L 114.025629 -265.789158 
L 113.780882 -267.043466 
L 113.497619 -268.297775 
L 113.174777 -269.552084 
L 112.811743 -270.806393 
L 112.408335 -272.060701 
L 111.964774 -273.31501 
L 111.481652 -274.569319 
L 110.959881 -275.823628 
L 110.400639 -277.077937 
L 109.805309 -278.332245 
L 109.17542 -279.586554 
L 108.51258 -280.840863 
L 107.818417 -282.095172 
L 107.094518 -283.34948 
L 106.342382 -284.603789 
L 105.563378 -285.858098 
L 104.758716 -287.112407 
L 103.929424 -288.366715 
L 103.076351 -289.621024 
L 102.200175 -290.875333 
L 101.301427 -292.129642 
L 100.380531 -293.383951 
L 99.437857 -294.638259 
L 98.473787 -295.892568 
L 97.488785 -297.146877 
L 96.483481 -298.401186 
L 95.458758 -299.655494 
L 94.415835 -300.909803 
L 93.356354 -302.164112 
L 92.28246 -303.418421 
L 91.19687 -304.672729 
L 90.102935 -305.927038 
L 89.004677 -307.181347 
L 87.906824 -308.435656 
L 86.814809 -309.689964 
L 85.73476 -310.944273 
L 84.673461 -312.198582 
L 83.638297 -313.452891 
L 82.637169 -314.7072 
L 81.6784 -315.961508 
L 80.770612 -317.215817 
L 79.922596 -318.470126 
L 79.143164 -319.724435 
L 78.440996 -320.978743 
L 77.824479 -322.233052 
L 77.301552 -323.487361 
L 76.879547 -324.74167 
L 76.565044 -325.995978 
L 76.36374 -327.250287 
L 76.280325 -328.504596 
L 76.318387 -329.758905 
L 76.480334 -331.013214 
L 76.767341 -332.267522 
L 77.179319 -333.521831 
L 77.714913 -334.77614 
L 78.371525 -336.030449 
L 79.145356 -337.284757 
L 80.031472 -338.539066 
L 81.023895 -339.793375 
L 82.115703 -341.047684 
L 83.299147 -342.301992 
L 84.565782 -343.556301 
L 85.906599 -344.81061 
L 87.312163 -346.064919 
L 88.772756 -347.319228 
L 90.278508 -348.573536 
L 91.819531 -349.827845 
L 93.38604 -351.082154 
L 126.433792 -351.082154 
L 126.433792 -351.082154 
L 126.433792 -349.827845 
L 126.433792 -348.573536 
L 126.433792 -347.319228 
L 126.433792 -346.064919 
L 126.433792 -344.81061 
L 126.433792 -343.556301 
L 126.433792 -342.301992 
L 126.433792 -341.047684 
L 126.433792 -339.793375 
L 126.433792 -338.539066 
L 126.433792 -337.284757 
L 126.433792 -336.030449 
L 126.433792 -334.77614 
L 126.433792 -333.521831 
L 126.433792 -332.267522 
L 126.433792 -331.013214 
L 126.433792 -329.758905 
L 126.433792 -328.504596 
L 126.433792 -327.250287 
L 126.433792 -325.995978 
L 126.433792 -324.74167 
L 126.433792 -323.487361 
L 126.433792 -322.233052 
L 126.433792 -320.978743 
L 126.433792 -319.724435 
L 126.433792 -318.470126 
L 126.433792 -317.215817 
L 126.433792 -315.961508 
L 126.433792 -314.7072 
L 126.433792 -313.452891 
L 126.433792 -312.198582 
L 126.433792 -310.944273 
L 126.433792 -309.689964 
L 126.433792 -308.435656 
L 126.433792 -307.181347 
L 126.433792 -305.927038 
L 126.433792 -304.672729 
L 126.433792 -303.418421 
L 126.433792 -302.164112 
L 126.433792 -300.909803 
L 126.433792 -299.655494 
L 126.433792 -298.401186 
L 126.433792 -297.146877 
L 126.433792 -295.892568 
L 126.433792 -294.638259 
L 126.433792 -293.383951 
L 126.433792 -292.129642 
L 126.433792 -290.875333 
L 126.433792 -289.621024 
L 126.433792 -288.366715 
L 126.433792 -287.112407 
L 126.433792 -285.858098 
L 126.433792 -284.603789 
L 126.433792 -283.34948 
L 126.433792 -282.095172 
L 126.433792 -280.840863 
L 126.433792 -279.586554 
L 126.433792 -278.332245 
L 126.433792 -277.077937 
L 126.433792 -275.823628 
L 126.433792 -274.569319 
L 126.433792 -273.31501 
L 126.433792 -272.060701 
L 126.433792 -270.806393 
L 126.433792 -269.552084 
L 126.433792 -268.297775 
L 126.433792 -267.043466 
L 126.433792 -265.789158 
L 126.433792 -264.534849 
L 126.433792 -263.28054 
L 126.433792 -262.026231 
L 126.433792 -260.771923 
L 126.433792 -259.517614 
L 126.433792 -258.263305 
L 126.433792 -257.008996 
L 126.433792 -255.754687 
L 126.433792 -254.500379 
L 126.433792 -253.24607 
L 126.433792 -251.991761 
L 126.433792 -250.737452 
L 126.433792 -249.483144 
L 126.433792 -248.228835 
L 126.433792 -246.974526 
L 126.433792 -245.720217 
L 126.433792 -244.465909 
L 126.433792 -243.2116 
L 126.433792 -241.957291 
L 126.433792 -240.702982 
L 126.433792 -239.448673 
L 126.433792 -238.194365 
L 126.433792 -236.940056 
L 126.433792 -235.685747 
L 126.433792 -234.431438 
L 126.433792 -233.17713 
L 126.433792 -231.922821 
L 126.433792 -230.668512 
L 126.433792 -229.414203 
L 126.433792 -228.159895 
L 126.433792 -226.905586 
z
"/>
    </defs>
    <g clip-path="url(#p2442d0ca95)">
     <use xlink:href="#mfef648f20b" x="0" y="432.729812" style="fill: #4c72b0; fill-opacity: 0.75"/>
    </g>
   </g>
   <g id="FillBetweenPolyCollection_2">
    <defs>
     <path id="m0edc230841" d="M 364.907333 -123.425112 
L 356.056815 -123.425112 
L 356.056815 -125.724679 
L 356.056815 -128.024245 
L 356.056815 -130.323811 
L 356.056815 -132.623377 
L 356.056815 -134.922943 
L 356.056815 -137.222509 
L 356.056815 -139.522075 
L 356.056815 -141.821641 
L 356.056815 -144.121207 
L 356.056815 -146.420773 
L 356.056815 -148.720339 
L 356.056815 -151.019905 
L 356.056815 -153.319471 
L 356.056815 -155.619037 
L 356.056815 -157.918604 
L 356.056815 -160.21817 
L 356.056815 -162.517736 
L 356.056815 -164.817302 
L 356.056815 -167.116868 
L 356.056815 -169.416434 
L 356.056815 -171.716 
L 356.056815 -174.015566 
L 356.056815 -176.315132 
L 356.056815 -178.614698 
L 356.056815 -180.914264 
L 356.056815 -183.21383 
L 356.056815 -185.513396 
L 356.056815 -187.812963 
L 356.056815 -190.112529 
L 356.056815 -192.412095 
L 356.056815 -194.711661 
L 356.056815 -197.011227 
L 356.056815 -199.310793 
L 356.056815 -201.610359 
L 356.056815 -203.909925 
L 356.056815 -206.209491 
L 356.056815 -208.509057 
L 356.056815 -210.808623 
L 356.056815 -213.108189 
L 356.056815 -215.407755 
L 356.056815 -217.707321 
L 356.056815 -220.006888 
L 356.056815 -222.306454 
L 356.056815 -224.60602 
L 356.056815 -226.905586 
L 356.056815 -229.205152 
L 356.056815 -231.504718 
L 356.056815 -233.804284 
L 356.056815 -236.10385 
L 356.056815 -238.403416 
L 356.056815 -240.702982 
L 356.056815 -243.002548 
L 356.056815 -245.302114 
L 356.056815 -247.60168 
L 356.056815 -249.901247 
L 356.056815 -252.200813 
L 356.056815 -254.500379 
L 356.056815 -256.799945 
L 356.056815 -259.099511 
L 356.056815 -261.399077 
L 356.056815 -263.698643 
L 356.056815 -265.998209 
L 356.056815 -268.297775 
L 356.056815 -270.597341 
L 356.056815 -272.896907 
L 356.056815 -275.196473 
L 356.056815 -277.496039 
L 356.056815 -279.795606 
L 356.056815 -282.095172 
L 356.056815 -284.394738 
L 356.056815 -286.694304 
L 356.056815 -288.99387 
L 356.056815 -291.293436 
L 356.056815 -293.593002 
L 356.056815 -295.892568 
L 356.056815 -298.192134 
L 356.056815 -300.4917 
L 356.056815 -302.791266 
L 356.056815 -305.090832 
L 356.056815 -307.390398 
L 356.056815 -309.689964 
L 356.056815 -311.989531 
L 356.056815 -314.289097 
L 356.056815 -316.588663 
L 356.056815 -318.888229 
L 356.056815 -321.187795 
L 356.056815 -323.487361 
L 356.056815 -325.786927 
L 356.056815 -328.086493 
L 356.056815 -330.386059 
L 356.056815 -332.685625 
L 356.056815 -334.985191 
L 356.056815 -337.284757 
L 356.056815 -339.584323 
L 356.056815 -341.88389 
L 356.056815 -344.183456 
L 356.056815 -346.483022 
L 356.056815 -348.782588 
L 356.056815 -351.082154 
L 395.433712 -351.082154 
L 395.433712 -351.082154 
L 396.762519 -348.782588 
L 398.0182 -346.483022 
L 399.193587 -344.183456 
L 400.282285 -341.88389 
L 401.278766 -339.584323 
L 402.178441 -337.284757 
L 402.977721 -334.985191 
L 403.674055 -332.685625 
L 404.265958 -330.386059 
L 404.753012 -328.086493 
L 405.135855 -325.786927 
L 405.416149 -323.487361 
L 405.596531 -321.187795 
L 405.68055 -318.888229 
L 405.672585 -316.588663 
L 405.577755 -314.289097 
L 405.40182 -311.989531 
L 405.151067 -309.689964 
L 404.832197 -307.390398 
L 404.452208 -305.090832 
L 404.018276 -302.791266 
L 403.53764 -300.4917 
L 403.017488 -298.192134 
L 402.46486 -295.892568 
L 401.886543 -293.593002 
L 401.288993 -291.293436 
L 400.678259 -288.99387 
L 400.059919 -286.694304 
L 399.439035 -284.394738 
L 398.820119 -282.095172 
L 398.207105 -279.795606 
L 397.603346 -277.496039 
L 397.011611 -275.196473 
L 396.4341 -272.896907 
L 395.872466 -270.597341 
L 395.327844 -268.297775 
L 394.800888 -265.998209 
L 394.291811 -263.698643 
L 393.800434 -261.399077 
L 393.326228 -259.099511 
L 392.868364 -256.799945 
L 392.425761 -254.500379 
L 391.997127 -252.200813 
L 391.581008 -249.901247 
L 391.175825 -247.60168 
L 390.779909 -245.302114 
L 390.391537 -243.002548 
L 390.00896 -240.702982 
L 389.630426 -238.403416 
L 389.254208 -236.10385 
L 388.878615 -233.804284 
L 388.502016 -231.504718 
L 388.12285 -229.205152 
L 387.739637 -226.905586 
L 387.350992 -224.60602 
L 386.955635 -222.306454 
L 386.552396 -220.006888 
L 386.140228 -217.707321 
L 385.718211 -215.407755 
L 385.285562 -213.108189 
L 384.841644 -210.808623 
L 384.385966 -208.509057 
L 383.918195 -206.209491 
L 383.438156 -203.909925 
L 382.94584 -201.610359 
L 382.441398 -199.310793 
L 381.925146 -197.011227 
L 381.397559 -194.711661 
L 380.859269 -192.412095 
L 380.311051 -190.112529 
L 379.753818 -187.812963 
L 379.188603 -185.513396 
L 378.616547 -183.21383 
L 378.038879 -180.914264 
L 377.456895 -178.614698 
L 376.87194 -176.315132 
L 376.285381 -174.015566 
L 375.698589 -171.716 
L 375.112914 -169.416434 
L 374.529662 -167.116868 
L 373.950076 -164.817302 
L 373.375317 -162.517736 
L 372.806446 -160.21817 
L 372.244413 -157.918604 
L 371.690045 -155.619037 
L 371.144038 -153.319471 
L 370.606956 -151.019905 
L 370.07923 -148.720339 
L 369.561158 -146.420773 
L 369.052922 -144.121207 
L 368.554587 -141.821641 
L 368.066121 -139.522075 
L 367.587409 -137.222509 
L 367.118267 -134.922943 
L 366.658465 -132.623377 
L 366.207739 -130.323811 
L 365.765817 -128.024245 
L 365.33243 -125.724679 
L 364.907333 -123.425112 
z
"/>
    </defs>
    <g clip-path="url(#p2442d0ca95)">
     <use xlink:href="#m0edc230841" x="0" y="432.729812" style="fill: #4c72b0; fill-opacity: 0.75"/>
    </g>
   </g>
   <g id="patch_3">
    <path d="M 126.18945 143.735943 
L 156.134925 143.735943 
L 156.134925 102.343753 
L 126.18945 102.343753 
L 126.18945 143.735943 
z
" clip-path="url(#p2442d0ca95)" style="fill: #4c72b0; fill-opacity: 0.33; stroke: #000000; stroke-linejoin: miter"/>
   </g>
   <g id="line2d_1">
    <path d="M 141.162187 143.735943 
L 141.162187 205.824227 
" clip-path="url(#p2442d0ca95)" style="fill: none; stroke: #000000"/>
   </g>
   <g id="line2d_2">
    <path d="M 141.162187 102.343753 
L 141.162187 81.647659 
" clip-path="url(#p2442d0ca95)" style="fill: none; stroke: #000000"/>
   </g>
   <g id="line2d_3">
    <path d="M 133.675819 205.824227 
L 148.648556 205.824227 
" clip-path="url(#p2442d0ca95)" style="fill: none; stroke: #000000; stroke-linecap: round"/>
   </g>
   <g id="line2d_4">
    <path d="M 133.675819 81.647659 
L 148.648556 81.647659 
" clip-path="url(#p2442d0ca95)" style="fill: none; stroke: #000000; stroke-linecap: round"/>
   </g>
   <g id="patch_4">
    <path d="M 325.82595 205.824227 
L 355.771425 205.824227 
L 355.771425 102.343753 
L 325.82595 102.343753 
L 325.82595 205.824227 
z
" clip-path="url(#p2442d0ca95)" style="fill: #4c72b0; fill-opacity: 0.33; stroke: #000000; stroke-linejoin: miter"/>
   </g>
   <g id="line2d_5">
    <path d="M 340.798687 205.824227 
L 340.798687 309.3047 
" clip-path="url(#p2442d0ca95)" style="fill: none; stroke: #000000"/>
   </g>
   <g id="line2d_6">
    <path d="M 340.798687 102.343753 
L 340.798687 81.647659 
" clip-path="url(#p2442d0ca95)" style="fill: none; stroke: #000000"/>
   </g>
   <g id="line2d_7">
    <path d="M 333.312319 309.3047 
L 348.285056 309.3047 
" clip-path="url(#p2442d0ca95)" style="fill: none; stroke: #000000; stroke-linecap: round"/>
   </g>
   <g id="line2d_8">
    <path d="M 333.312319 81.647659 
L 348.285056 81.647659 
" clip-path="url(#p2442d0ca95)" style="fill: none; stroke: #000000; stroke-linecap: round"/>
   </g>
   <g id="line2d_9">
    <path d="M 146.63135 104.752349 
L 346.26785 187.536727 
" clip-path="url(#p2442d0ca95)" style="fill: none; stroke: #ff5714; stroke-opacity: 0.5; stroke-width: 1.2; stroke-linecap: round"/>
   </g>
   <g id="line2d_10">
    <path d="M 139.941978 94.550465 
L 339.578478 260.119222 
" clip-path="url(#p2442d0ca95)" style="fill: none; stroke: #ff5714; stroke-opacity: 0.5; stroke-width: 1.2; stroke-linecap: round"/>
   </g>
   <g id="line2d_11">
    <path d="M 148.321111 116.53099 
L 347.957611 75.138801 
" clip-path="url(#p2442d0ca95)" style="fill: none; stroke: #04e762; stroke-opacity: 0.5; stroke-width: 1.2; stroke-linecap: round"/>
   </g>
   <g id="line2d_12">
    <path d="M 145.102374 139.126782 
L 344.738874 221.91116 
" clip-path="url(#p2442d0ca95)" style="fill: none; stroke: #ff5714; stroke-opacity: 0.5; stroke-width: 1.2; stroke-linecap: round"/>
   </g>
   <g id="line2d_13">
    <path d="M 133.060486 107.399582 
L 332.696986 169.487866 
" clip-path="url(#p2442d0ca95)" style="fill: none; stroke: #ff5714; stroke-opacity: 0.5; stroke-width: 1.2; stroke-linecap: round"/>
   </g>
   <g id="line2d_14">
    <path d="M 150.657346 102.89475 
L 350.293846 102.89475 
" clip-path="url(#p2442d0ca95)" style="fill: none; stroke: #808080; stroke-opacity: 0.5; stroke-width: 1.2; stroke-linecap: round"/>
   </g>
   <g id="line2d_15">
    <path d="M 146.375489 192.681316 
L 346.011989 316.857884 
" clip-path="url(#p2442d0ca95)" style="fill: none; stroke: #ff5714; stroke-opacity: 0.5; stroke-width: 1.2; stroke-linecap: round"/>
   </g>
   <g id="line2d_16">
    <path d="M 146.873075 128.763734 
L 346.509575 232.244207 
" clip-path="url(#p2442d0ca95)" style="fill: none; stroke: #ff5714; stroke-opacity: 0.5; stroke-width: 1.2; stroke-linecap: round"/>
   </g>
   <g id="line2d_17">
    <path d="M 133.737978 99.313035 
L 333.374478 99.313035 
" clip-path="url(#p2442d0ca95)" style="fill: none; stroke: #808080; stroke-opacity: 0.5; stroke-width: 1.2; stroke-linecap: round"/>
   </g>
   <g id="line2d_18">
    <path d="M 140.17171 77.595162 
L 339.80821 98.291257 
" clip-path="url(#p2442d0ca95)" style="fill: none; stroke: #ff5714; stroke-opacity: 0.5; stroke-width: 1.2; stroke-linecap: round"/>
   </g>
   <g id="line2d_19">
    <path d="M 138.582844 94.603253 
L 338.219344 239.475916 
" clip-path="url(#p2442d0ca95)" style="fill: none; stroke: #ff5714; stroke-opacity: 0.5; stroke-width: 1.2; stroke-linecap: round"/>
   </g>
   <g id="line2d_20">
    <path d="M 149.681974 146.619731 
L 349.318474 105.227541 
" clip-path="url(#p2442d0ca95)" style="fill: none; stroke: #04e762; stroke-opacity: 0.5; stroke-width: 1.2; stroke-linecap: round"/>
   </g>
   <g id="line2d_21">
    <path d="M 144.03426 104.488536 
L 343.67076 145.880725 
" clip-path="url(#p2442d0ca95)" style="fill: none; stroke: #ff5714; stroke-opacity: 0.5; stroke-width: 1.2; stroke-linecap: round"/>
   </g>
   <g id="line2d_22">
    <path d="M 147.605687 102.847814 
L 347.242187 123.543909 
" clip-path="url(#p2442d0ca95)" style="fill: none; stroke: #ff5714; stroke-opacity: 0.5; stroke-width: 1.2; stroke-linecap: round"/>
   </g>
   <g id="line2d_23">
    <path d="M 140.032528 128.181232 
L 339.669028 86.789043 
" clip-path="url(#p2442d0ca95)" style="fill: none; stroke: #04e762; stroke-opacity: 0.5; stroke-width: 1.2; stroke-linecap: round"/>
   </g>
   <g id="line2d_24">
    <path d="M 135.716877 191.255476 
L 335.353377 170.559381 
" clip-path="url(#p2442d0ca95)" style="fill: none; stroke: #04e762; stroke-opacity: 0.5; stroke-width: 1.2; stroke-linecap: round"/>
   </g>
   <g id="line2d_25">
    <path d="M 142.251899 82.049909 
L 341.888399 123.442099 
" clip-path="url(#p2442d0ca95)" style="fill: none; stroke: #ff5714; stroke-opacity: 0.5; stroke-width: 1.2; stroke-linecap: round"/>
   </g>
   <g id="line2d_26">
    <path d="M 132.454388 148.257471 
L 332.090888 210.345755 
" clip-path="url(#p2442d0ca95)" style="fill: none; stroke: #ff5714; stroke-opacity: 0.5; stroke-width: 1.2; stroke-linecap: round"/>
   </g>
   <g id="line2d_27">
    <path d="M 147.702902 203.012637 
L 347.339402 182.316543 
" clip-path="url(#p2442d0ca95)" style="fill: none; stroke: #04e762; stroke-opacity: 0.5; stroke-width: 1.2; stroke-linecap: round"/>
   </g>
   <g id="line2d_28">
    <path d="M 143.790689 103.384321 
L 343.427189 82.688227 
" clip-path="url(#p2442d0ca95)" style="fill: none; stroke: #04e762; stroke-opacity: 0.5; stroke-width: 1.2; stroke-linecap: round"/>
   </g>
   <g id="line2d_29">
    <path d="M 146.314561 76.139547 
L 345.951061 117.531736 
" clip-path="url(#p2442d0ca95)" style="fill: none; stroke: #ff5714; stroke-opacity: 0.5; stroke-width: 1.2; stroke-linecap: round"/>
   </g>
   <g id="line2d_30">
    <path d="M 126.18945 102.343753 
L 156.134925 102.343753 
" clip-path="url(#p2442d0ca95)" style="fill: none; stroke: #000000"/>
   </g>
   <g id="line2d_31">
    <path d="M 325.82595 143.735943 
L 355.771425 143.735943 
" clip-path="url(#p2442d0ca95)" style="fill: none; stroke: #000000"/>
   </g>
   <g id="patch_5">
    <path d="M 41.343938 377.601812 
L 41.343938 27.837812 
" style="fill: none; stroke: #cccccc; stroke-linejoin: miter; stroke-linecap: square"/>
   </g>
   <g id="patch_6">
    <path d="M 41.343938 377.601812 
L 440.616937 377.601812 
" style="fill: none; stroke: #cccccc; stroke-linejoin: miter; stroke-linecap: square"/>
   </g>
   <g id="PathCollection_1">
    <defs>
     <path id="m986c909cb1" d="M 0 1.732051 
C 0.459345 1.732051 0.899939 1.549551 1.224745 1.224745 
C 1.549551 0.899939 1.732051 0.459345 1.732051 0 
C 1.732051 -0.459345 1.549551 -0.899939 1.224745 -1.224745 
C 0.899939 -1.549551 0.459345 -1.732051 0 -1.732051 
C -0.459345 -1.732051 -0.899939 -1.549551 -1.224745 -1.224745 
C -1.549551 -0.899939 -1.732051 -0.459345 -1.732051 0 
C -1.732051 0.459345 -1.549551 0.899939 -1.224745 1.224745 
C -0.899939 1.549551 -0.459345 1.732051 0 1.732051 
z
" style="stroke: #000000; stroke-opacity: 0.9; stroke-width: 0.8"/>
    </defs>
    <g clip-path="url(#p2442d0ca95)">
     <use xlink:href="#m986c909cb1" x="146.63135" y="104.752349" style="fill-opacity: 0.9; stroke: #000000; stroke-opacity: 0.9; stroke-width: 0.8"/>
     <use xlink:href="#m986c909cb1" x="139.941978" y="94.550465" style="fill-opacity: 0.9; stroke: #000000; stroke-opacity: 0.9; stroke-width: 0.8"/>
     <use xlink:href="#m986c909cb1" x="148.321111" y="116.53099" style="fill-opacity: 0.9; stroke: #000000; stroke-opacity: 0.9; stroke-width: 0.8"/>
     <use xlink:href="#m986c909cb1" x="145.102374" y="139.126782" style="fill-opacity: 0.9; stroke: #000000; stroke-opacity: 0.9; stroke-width: 0.8"/>
     <use xlink:href="#m986c909cb1" x="133.060486" y="107.399582" style="fill-opacity: 0.9; stroke: #000000; stroke-opacity: 0.9; stroke-width: 0.8"/>
     <use xlink:href="#m986c909cb1" x="150.657346" y="102.89475" style="fill-opacity: 0.9; stroke: #000000; stroke-opacity: 0.9; stroke-width: 0.8"/>
     <use xlink:href="#m986c909cb1" x="146.375489" y="192.681316" style="fill-opacity: 0.9; stroke: #000000; stroke-opacity: 0.9; stroke-width: 0.8"/>
     <use xlink:href="#m986c909cb1" x="146.873075" y="128.763734" style="fill-opacity: 0.9; stroke: #000000; stroke-opacity: 0.9; stroke-width: 0.8"/>
     <use xlink:href="#m986c909cb1" x="133.737978" y="99.313035" style="fill-opacity: 0.9; stroke: #000000; stroke-opacity: 0.9; stroke-width: 0.8"/>
     <use xlink:href="#m986c909cb1" x="140.17171" y="77.595162" style="fill-opacity: 0.9; stroke: #000000; stroke-opacity: 0.9; stroke-width: 0.8"/>
     <use xlink:href="#m986c909cb1" x="138.582844" y="94.603253" style="fill-opacity: 0.9; stroke: #000000; stroke-opacity: 0.9; stroke-width: 0.8"/>
     <use xlink:href="#m986c909cb1" x="149.681974" y="146.619731" style="fill-opacity: 0.9; stroke: #000000; stroke-opacity: 0.9; stroke-width: 0.8"/>
     <use xlink:href="#m986c909cb1" x="144.03426" y="104.488536" style="fill-opacity: 0.9; stroke: #000000; stroke-opacity: 0.9; stroke-width: 0.8"/>
     <use xlink:href="#m986c909cb1" x="147.605687" y="102.847814" style="fill-opacity: 0.9; stroke: #000000; stroke-opacity: 0.9; stroke-width: 0.8"/>
     <use xlink:href="#m986c909cb1" x="140.032528" y="128.181232" style="fill-opacity: 0.9; stroke: #000000; stroke-opacity: 0.9; stroke-width: 0.8"/>
     <use xlink:href="#m986c909cb1" x="135.716877" y="191.255476" style="fill-opacity: 0.9; stroke: #000000; stroke-opacity: 0.9; stroke-width: 0.8"/>
     <use xlink:href="#m986c909cb1" x="142.251899" y="82.049909" style="fill-opacity: 0.9; stroke: #000000; stroke-opacity: 0.9; stroke-width: 0.8"/>
     <use xlink:href="#m986c909cb1" x="132.454388" y="148.257471" style="fill-opacity: 0.9; stroke: #000000; stroke-opacity: 0.9; stroke-width: 0.8"/>
     <use xlink:href="#m986c909cb1" x="147.702902" y="203.012637" style="fill-opacity: 0.9; stroke: #000000; stroke-opacity: 0.9; stroke-width: 0.8"/>
     <use xlink:href="#m986c909cb1" x="143.790689" y="103.384321" style="fill-opacity: 0.9; stroke: #000000; stroke-opacity: 0.9; stroke-width: 0.8"/>
     <use xlink:href="#m986c909cb1" x="146.314561" y="76.139547" style="fill-opacity: 0.9; stroke: #000000; stroke-opacity: 0.9; stroke-width: 0.8"/>
    </g>
   </g>
   <g id="PathCollection_2">
    <g clip-path="url(#p2442d0ca95)">
     <use xlink:href="#m986c909cb1" x="346.26785" y="187.536727" style="fill-opacity: 0.9; stroke: #000000; stroke-opacity: 0.9; stroke-width: 0.8"/>
     <use xlink:href="#m986c909cb1" x="339.578478" y="260.119222" style="fill-opacity: 0.9; stroke: #000000; stroke-opacity: 0.9; stroke-width: 0.8"/>
     <use xlink:href="#m986c909cb1" x="347.957611" y="75.138801" style="fill-opacity: 0.9; stroke: #000000; stroke-opacity: 0.9; stroke-width: 0.8"/>
     <use xlink:href="#m986c909cb1" x="344.738874" y="221.91116" style="fill-opacity: 0.9; stroke: #000000; stroke-opacity: 0.9; stroke-width: 0.8"/>
     <use xlink:href="#m986c909cb1" x="332.696986" y="169.487866" style="fill-opacity: 0.9; stroke: #000000; stroke-opacity: 0.9; stroke-width: 0.8"/>
     <use xlink:href="#m986c909cb1" x="350.293846" y="102.89475" style="fill-opacity: 0.9; stroke: #000000; stroke-opacity: 0.9; stroke-width: 0.8"/>
     <use xlink:href="#m986c909cb1" x="346.011989" y="316.857884" style="fill-opacity: 0.9; stroke: #000000; stroke-opacity: 0.9; stroke-width: 0.8"/>
     <use xlink:href="#m986c909cb1" x="346.509575" y="232.244207" style="fill-opacity: 0.9; stroke: #000000; stroke-opacity: 0.9; stroke-width: 0.8"/>
     <use xlink:href="#m986c909cb1" x="333.374478" y="99.313035" style="fill-opacity: 0.9; stroke: #000000; stroke-opacity: 0.9; stroke-width: 0.8"/>
     <use xlink:href="#m986c909cb1" x="339.80821" y="98.291257" style="fill-opacity: 0.9; stroke: #000000; stroke-opacity: 0.9; stroke-width: 0.8"/>
     <use xlink:href="#m986c909cb1" x="338.219344" y="239.475916" style="fill-opacity: 0.9; stroke: #000000; stroke-opacity: 0.9; stroke-width: 0.8"/>
     <use xlink:href="#m986c909cb1" x="349.318474" y="105.227541" style="fill-opacity: 0.9; stroke: #000000; stroke-opacity: 0.9; stroke-width: 0.8"/>
     <use xlink:href="#m986c909cb1" x="343.67076" y="145.880725" style="fill-opacity: 0.9; stroke: #000000; stroke-opacity: 0.9; stroke-width: 0.8"/>
     <use xlink:href="#m986c909cb1" x="347.242187" y="123.543909" style="fill-opacity: 0.9; stroke: #000000; stroke-opacity: 0.9; stroke-width: 0.8"/>
     <use xlink:href="#m986c909cb1" x="339.669028" y="86.789043" style="fill-opacity: 0.9; stroke: #000000; stroke-opacity: 0.9; stroke-width: 0.8"/>
     <use xlink:href="#m986c909cb1" x="335.353377" y="170.559381" style="fill-opacity: 0.9; stroke: #000000; stroke-opacity: 0.9; stroke-width: 0.8"/>
     <use xlink:href="#m986c909cb1" x="341.888399" y="123.442099" style="fill-opacity: 0.9; stroke: #000000; stroke-opacity: 0.9; stroke-width: 0.8"/>
     <use xlink:href="#m986c909cb1" x="332.090888" y="210.345755" style="fill-opacity: 0.9; stroke: #000000; stroke-opacity: 0.9; stroke-width: 0.8"/>
     <use xlink:href="#m986c909cb1" x="347.339402" y="182.316543" style="fill-opacity: 0.9; stroke: #000000; stroke-opacity: 0.9; stroke-width: 0.8"/>
     <use xlink:href="#m986c909cb1" x="343.427189" y="82.688227" style="fill-opacity: 0.9; stroke: #000000; stroke-opacity: 0.9; stroke-width: 0.8"/>
     <use xlink:href="#m986c909cb1" x="345.951061" y="117.531736" style="fill-opacity: 0.9; stroke: #000000; stroke-opacity: 0.9; stroke-width: 0.8"/>
    </g>
   </g>
   <g id="text_13">
    <!-- Tübingen DBS (N = 21) -->
    <g style="fill: #262626" transform="translate(41.343938 17.837812) scale(0.14 -0.14)">
     <defs>
      <path id="DejaVuSans-54" d="M -19 4666 
L 3928 4666 
L 3928 4134 
L 2272 4134 
L 2272 0 
L 1638 0 
L 1638 4134 
L -19 4134 
L -19 4666 
z
" transform="scale(0.015625)"/>
      <path id="DejaVuSans-fc" d="M 544 1381 
L 544 3500 
L 1119 3500 
L 1119 1403 
Q 1119 906 1312 657 
Q 1506 409 1894 409 
Q 2359 409 2629 706 
Q 2900 1003 2900 1516 
L 2900 3500 
L 3475 3500 
L 3475 0 
L 2900 0 
L 2900 538 
Q 2691 219 2414 64 
Q 2138 -91 1772 -91 
Q 1169 -91 856 284 
Q 544 659 544 1381 
z
M 1991 3584 
L 1991 3584 
z
M 2278 4850 
L 2912 4850 
L 2912 4219 
L 2278 4219 
L 2278 4850 
z
M 1056 4850 
L 1690 4850 
L 1690 4219 
L 1056 4219 
L 1056 4850 
z
" transform="scale(0.015625)"/>
      <path id="DejaVuSans-62" d="M 3116 1747 
Q 3116 2381 2855 2742 
Q 2594 3103 2138 3103 
Q 1681 3103 1420 2742 
Q 1159 2381 1159 1747 
Q 1159 1113 1420 752 
Q 1681 391 2138 391 
Q 2594 391 2855 752 
Q 3116 1113 3116 1747 
z
M 1159 2969 
Q 1341 3281 1617 3432 
Q 1894 3584 2278 3584 
Q 2916 3584 3314 3078 
Q 3713 2572 3713 1747 
Q 3713 922 3314 415 
Q 2916 -91 2278 -91 
Q 1894 -91 1617 61 
Q 1341 213 1159 525 
L 1159 0 
L 581 0 
L 581 4863 
L 1159 4863 
L 1159 2969 
z
" transform="scale(0.015625)"/>
      <path id="DejaVuSans-69" d="M 603 3500 
L 1178 3500 
L 1178 0 
L 603 0 
L 603 3500 
z
M 603 4863 
L 1178 4863 
L 1178 4134 
L 603 4134 
L 603 4863 
z
" transform="scale(0.015625)"/>
      <path id="DejaVuSans-6e" d="M 3513 2113 
L 3513 0 
L 2938 0 
L 2938 2094 
Q 2938 2591 2744 2837 
Q 2550 3084 2163 3084 
Q 1697 3084 1428 2787 
Q 1159 2491 1159 1978 
L 1159 0 
L 581 0 
L 581 3500 
L 1159 3500 
L 1159 2956 
Q 1366 3272 1645 3428 
Q 1925 3584 2291 3584 
Q 2894 3584 3203 3211 
Q 3513 2838 3513 2113 
z
" transform="scale(0.015625)"/>
      <path id="DejaVuSans-67" d="M 2906 1791 
Q 2906 2416 2648 2759 
Q 2391 3103 1925 3103 
Q 1463 3103 1205 2759 
Q 947 2416 947 1791 
Q 947 1169 1205 825 
Q 1463 481 1925 481 
Q 2391 481 2648 825 
Q 2906 1169 2906 1791 
z
M 3481 434 
Q 3481 -459 3084 -895 
Q 2688 -1331 1869 -1331 
Q 1566 -1331 1297 -1286 
Q 1028 -1241 775 -1147 
L 775 -588 
Q 1028 -725 1275 -790 
Q 1522 -856 1778 -856 
Q 2344 -856 2625 -561 
Q 2906 -266 2906 331 
L 2906 616 
Q 2728 306 2450 153 
Q 2172 0 1784 0 
Q 1141 0 747 490 
Q 353 981 353 1791 
Q 353 2603 747 3093 
Q 1141 3584 1784 3584 
Q 2172 3584 2450 3431 
Q 2728 3278 2906 2969 
L 2906 3500 
L 3481 3500 
L 3481 434 
z
" transform="scale(0.015625)"/>
      <path id="DejaVuSans-44" d="M 1259 4147 
L 1259 519 
L 2022 519 
Q 2988 519 3436 956 
Q 3884 1394 3884 2338 
Q 3884 3275 3436 3711 
Q 2988 4147 2022 4147 
L 1259 4147 
z
M 628 4666 
L 1925 4666 
Q 3281 4666 3915 4102 
Q 4550 3538 4550 2338 
Q 4550 1131 3912 565 
Q 3275 0 1925 0 
L 628 0 
L 628 4666 
z
" transform="scale(0.015625)"/>
      <path id="DejaVuSans-42" d="M 1259 2228 
L 1259 519 
L 2272 519 
Q 2781 519 3026 730 
Q 3272 941 3272 1375 
Q 3272 1813 3026 2020 
Q 2781 2228 2272 2228 
L 1259 2228 
z
M 1259 4147 
L 1259 2741 
L 2194 2741 
Q 2656 2741 2882 2914 
Q 3109 3088 3109 3444 
Q 3109 3797 2882 3972 
Q 2656 4147 2194 4147 
L 1259 4147 
z
M 628 4666 
L 2241 4666 
Q 2963 4666 3353 4366 
Q 3744 4066 3744 3513 
Q 3744 3084 3544 2831 
Q 3344 2578 2956 2516 
Q 3422 2416 3680 2098 
Q 3938 1781 3938 1306 
Q 3938 681 3513 340 
Q 3088 0 2303 0 
L 628 0 
L 628 4666 
z
" transform="scale(0.015625)"/>
      <path id="DejaVuSans-53" d="M 3425 4513 
L 3425 3897 
Q 3066 4069 2747 4153 
Q 2428 4238 2131 4238 
Q 1616 4238 1336 4038 
Q 1056 3838 1056 3469 
Q 1056 3159 1242 3001 
Q 1428 2844 1947 2747 
L 2328 2669 
Q 3034 2534 3370 2195 
Q 3706 1856 3706 1288 
Q 3706 609 3251 259 
Q 2797 -91 1919 -91 
Q 1588 -91 1214 -16 
Q 841 59 441 206 
L 441 856 
Q 825 641 1194 531 
Q 1563 422 1919 422 
Q 2459 422 2753 634 
Q 3047 847 3047 1241 
Q 3047 1584 2836 1778 
Q 2625 1972 2144 2069 
L 1759 2144 
Q 1053 2284 737 2584 
Q 422 2884 422 3419 
Q 422 4038 858 4394 
Q 1294 4750 2059 4750 
Q 2388 4750 2728 4690 
Q 3069 4631 3425 4513 
z
" transform="scale(0.015625)"/>
      <path id="DejaVuSans-28" d="M 1984 4856 
Q 1566 4138 1362 3434 
Q 1159 2731 1159 2009 
Q 1159 1288 1364 580 
Q 1569 -128 1984 -844 
L 1484 -844 
Q 1016 -109 783 600 
Q 550 1309 550 2009 
Q 550 2706 781 3412 
Q 1013 4119 1484 4856 
L 1984 4856 
z
" transform="scale(0.015625)"/>
      <path id="DejaVuSans-4e" d="M 628 4666 
L 1478 4666 
L 3547 763 
L 3547 4666 
L 4159 4666 
L 4159 0 
L 3309 0 
L 1241 3903 
L 1241 0 
L 628 0 
L 628 4666 
z
" transform="scale(0.015625)"/>
      <path id="DejaVuSans-3d" d="M 678 2906 
L 4684 2906 
L 4684 2381 
L 678 2381 
L 678 2906 
z
M 678 1631 
L 4684 1631 
L 4684 1100 
L 678 1100 
L 678 1631 
z
" transform="scale(0.015625)"/>
      <path id="DejaVuSans-29" d="M 513 4856 
L 1013 4856 
Q 1481 4119 1714 3412 
Q 1947 2706 1947 2009 
Q 1947 1309 1714 600 
Q 1481 -109 1013 -844 
L 513 -844 
Q 928 -128 1133 580 
Q 1338 1288 1338 2009 
Q 1338 2731 1133 3434 
Q 928 4138 513 4856 
z
" transform="scale(0.015625)"/>
     </defs>
     <use xlink:href="#DejaVuSans-54"/>
     <use xlink:href="#DejaVuSans-fc" transform="translate(47.333984 0)"/>
     <use xlink:href="#DejaVuSans-62" transform="translate(110.712891 0)"/>
     <use xlink:href="#DejaVuSans-69" transform="translate(174.189453 0)"/>
     <use xlink:href="#DejaVuSans-6e" transform="translate(201.972656 0)"/>
     <use xlink:href="#DejaVuSans-67" transform="translate(265.351562 0)"/>
     <use xlink:href="#DejaVuSans-65" transform="translate(328.828125 0)"/>
     <use xlink:href="#DejaVuSans-6e" transform="translate(390.351562 0)"/>
     <use xlink:href="#DejaVuSans-20" transform="translate(453.730469 0)"/>
     <use xlink:href="#DejaVuSans-44" transform="translate(485.517578 0)"/>
     <use xlink:href="#DejaVuSans-42" transform="translate(562.519531 0)"/>
     <use xlink:href="#DejaVuSans-53" transform="translate(629.373047 0)"/>
     <use xlink:href="#DejaVuSans-20" transform="translate(692.849609 0)"/>
     <use xlink:href="#DejaVuSans-28" transform="translate(724.636719 0)"/>
     <use xlink:href="#DejaVuSans-4e" transform="translate(763.650391 0)"/>
     <use xlink:href="#DejaVuSans-20" transform="translate(838.455078 0)"/>
     <use xlink:href="#DejaVuSans-3d" transform="translate(870.242188 0)"/>
     <use xlink:href="#DejaVuSans-20" transform="translate(954.03125 0)"/>
     <use xlink:href="#DejaVuSans-32" transform="translate(985.818359 0)"/>
     <use xlink:href="#DejaVuSans-31" transform="translate(1049.441406 0)"/>
     <use xlink:href="#DejaVuSans-29" transform="translate(1113.064453 0)"/>
    </g>
   </g>
   <g id="legend_1">
    <g id="line2d_32">
     <path d="M 49.263938 338.938187 
L 58.063938 338.938187 
L 66.863938 338.938187 
" style="fill: none; stroke: #04e762; stroke-width: 2; stroke-linecap: round"/>
    </g>
    <g id="text_14">
     <!-- Improvement -->
     <g style="fill: #262626" transform="translate(73.903938 342.018187) scale(0.088 -0.088)">
      <defs>
       <path id="DejaVuSans-49" d="M 628 4666 
L 1259 4666 
L 1259 0 
L 628 0 
L 628 4666 
z
" transform="scale(0.015625)"/>
       <path id="DejaVuSans-6d" d="M 3328 2828 
Q 3544 3216 3844 3400 
Q 4144 3584 4550 3584 
Q 5097 3584 5394 3201 
Q 5691 2819 5691 2113 
L 5691 0 
L 5113 0 
L 5113 2094 
Q 5113 2597 4934 2840 
Q 4756 3084 4391 3084 
Q 3944 3084 3684 2787 
Q 3425 2491 3425 1978 
L 3425 0 
L 2847 0 
L 2847 2094 
Q 2847 2600 2669 2842 
Q 2491 3084 2119 3084 
Q 1678 3084 1418 2786 
Q 1159 2488 1159 1978 
L 1159 0 
L 581 0 
L 581 3500 
L 1159 3500 
L 1159 2956 
Q 1356 3278 1631 3431 
Q 1906 3584 2284 3584 
Q 2666 3584 2933 3390 
Q 3200 3197 3328 2828 
z
" transform="scale(0.015625)"/>
       <path id="DejaVuSans-70" d="M 1159 525 
L 1159 -1331 
L 581 -1331 
L 581 3500 
L 1159 3500 
L 1159 2969 
Q 1341 3281 1617 3432 
Q 1894 3584 2278 3584 
Q 2916 3584 3314 3078 
Q 3713 2572 3713 1747 
Q 3713 922 3314 415 
Q 2916 -91 2278 -91 
Q 1894 -91 1617 61 
Q 1341 213 1159 525 
z
M 3116 1747 
Q 3116 2381 2855 2742 
Q 2594 3103 2138 3103 
Q 1681 3103 1420 2742 
Q 1159 2381 1159 1747 
Q 1159 1113 1420 752 
Q 1681 391 2138 391 
Q 2594 391 2855 752 
Q 3116 1113 3116 1747 
z
" transform="scale(0.015625)"/>
       <path id="DejaVuSans-76" d="M 191 3500 
L 800 3500 
L 1894 563 
L 2988 3500 
L 3597 3500 
L 2284 0 
L 1503 0 
L 191 3500 
z
" transform="scale(0.015625)"/>
      </defs>
      <use xlink:href="#DejaVuSans-49"/>
      <use xlink:href="#DejaVuSans-6d" transform="translate(29.492188 0)"/>
      <use xlink:href="#DejaVuSans-70" transform="translate(126.904297 0)"/>
      <use xlink:href="#DejaVuSans-72" transform="translate(190.380859 0)"/>
      <use xlink:href="#DejaVuSans-6f" transform="translate(229.244141 0)"/>
      <use xlink:href="#DejaVuSans-76" transform="translate(290.425781 0)"/>
      <use xlink:href="#DejaVuSans-65" transform="translate(349.605469 0)"/>
      <use xlink:href="#DejaVuSans-6d" transform="translate(411.128906 0)"/>
      <use xlink:href="#DejaVuSans-65" transform="translate(508.541016 0)"/>
      <use xlink:href="#DejaVuSans-6e" transform="translate(570.064453 0)"/>
      <use xlink:href="#DejaVuSans-74" transform="translate(633.443359 0)"/>
     </g>
    </g>
    <g id="line2d_33">
     <path d="M 49.263938 351.854937 
L 58.063938 351.854937 
L 66.863938 351.854937 
" style="fill: none; stroke: #ff5714; stroke-width: 2; stroke-linecap: round"/>
    </g>
    <g id="text_15">
     <!-- Deterioration -->
     <g style="fill: #262626" transform="translate(73.903938 354.934937) scale(0.088 -0.088)">
      <use xlink:href="#DejaVuSans-44"/>
      <use xlink:href="#DejaVuSans-65" transform="translate(77.001953 0)"/>
      <use xlink:href="#DejaVuSans-74" transform="translate(138.525391 0)"/>
      <use xlink:href="#DejaVuSans-65" transform="translate(177.734375 0)"/>
      <use xlink:href="#DejaVuSans-72" transform="translate(239.257812 0)"/>
      <use xlink:href="#DejaVuSans-69" transform="translate(280.371094 0)"/>
      <use xlink:href="#DejaVuSans-6f" transform="translate(308.154297 0)"/>
      <use xlink:href="#DejaVuSans-72" transform="translate(369.335938 0)"/>
      <use xlink:href="#DejaVuSans-61" transform="translate(410.449219 0)"/>
      <use xlink:href="#DejaVuSans-74" transform="translate(471.728516 0)"/>
      <use xlink:href="#DejaVuSans-69" transform="translate(510.9375 0)"/>
      <use xlink:href="#DejaVuSans-6f" transform="translate(538.720703 0)"/>
      <use xlink:href="#DejaVuSans-6e" transform="translate(599.902344 0)"/>
     </g>
    </g>
    <g id="line2d_34">
     <path d="M 49.263938 364.771687 
L 58.063938 364.771687 
L 66.863938 364.771687 
" style="fill: none; stroke: #808080; stroke-width: 2; stroke-linecap: round"/>
    </g>
    <g id="text_16">
     <!-- No change -->
     <g style="fill: #262626" transform="translate(73.903938 367.851687) scale(0.088 -0.088)">
      <defs>
       <path id="DejaVuSans-63" d="M 3122 3366 
L 3122 2828 
Q 2878 2963 2633 3030 
Q 2388 3097 2138 3097 
Q 1578 3097 1268 2742 
Q 959 2388 959 1747 
Q 959 1106 1268 751 
Q 1578 397 2138 397 
Q 2388 397 2633 464 
Q 2878 531 3122 666 
L 3122 134 
Q 2881 22 2623 -34 
Q 2366 -91 2075 -91 
Q 1284 -91 818 406 
Q 353 903 353 1747 
Q 353 2603 823 3093 
Q 1294 3584 2113 3584 
Q 2378 3584 2631 3529 
Q 2884 3475 3122 3366 
z
" transform="scale(0.015625)"/>
       <path id="DejaVuSans-68" d="M 3513 2113 
L 3513 0 
L 2938 0 
L 2938 2094 
Q 2938 2591 2744 2837 
Q 2550 3084 2163 3084 
Q 1697 3084 1428 2787 
Q 1159 2491 1159 1978 
L 1159 0 
L 581 0 
L 581 4863 
L 1159 4863 
L 1159 2956 
Q 1366 3272 1645 3428 
Q 1925 3584 2291 3584 
Q 2894 3584 3203 3211 
Q 3513 2838 3513 2113 
z
" transform="scale(0.015625)"/>
      </defs>
      <use xlink:href="#DejaVuSans-4e"/>
      <use xlink:href="#DejaVuSans-6f" transform="translate(74.804688 0)"/>
      <use xlink:href="#DejaVuSans-20" transform="translate(135.986328 0)"/>
      <use xlink:href="#DejaVuSans-63" transform="translate(167.773438 0)"/>
      <use xlink:href="#DejaVuSans-68" transform="translate(222.753906 0)"/>
      <use xlink:href="#DejaVuSans-61" transform="translate(286.132812 0)"/>
      <use xlink:href="#DejaVuSans-6e" transform="translate(347.412109 0)"/>
      <use xlink:href="#DejaVuSans-67" transform="translate(410.791016 0)"/>
      <use xlink:href="#DejaVuSans-65" transform="translate(474.267578 0)"/>
     </g>
    </g>
   </g>
  </g>
  <g id="axes_2">
   <g id="patch_7">
    <path d="M 450.984938 377.601812 
L 850.257937 377.601812 
L 850.257937 27.837812 
L 450.984938 27.837812 
z
" style="fill: #ffffff"/>
   </g>
   <g id="matplotlib.axis_3">
    <g id="xtick_3">
     <g id="text_17">
      <!-- Pre -->
      <g style="fill: #262626" transform="translate(542.061625 394.260094) scale(0.11 -0.11)">
       <use xlink:href="#DejaVuSans-50"/>
       <use xlink:href="#DejaVuSans-72" transform="translate(58.552734 0)"/>
       <use xlink:href="#DejaVuSans-65" transform="translate(97.416016 0)"/>
      </g>
     </g>
    </g>
    <g id="xtick_4">
     <g id="text_18">
      <!-- Post -->
      <g style="fill: #262626" transform="translate(738.936094 394.260094) scale(0.11 -0.11)">
       <use xlink:href="#DejaVuSans-50"/>
       <use xlink:href="#DejaVuSans-6f" transform="translate(56.677734 0)"/>
       <use xlink:href="#DejaVuSans-73" transform="translate(117.859375 0)"/>
       <use xlink:href="#DejaVuSans-74" transform="translate(169.958984 0)"/>
      </g>
     </g>
    </g>
   </g>
   <g id="matplotlib.axis_4">
    <g id="ytick_35"/>
    <g id="ytick_36"/>
    <g id="ytick_37"/>
    <g id="ytick_38"/>
    <g id="ytick_39"/>
    <g id="ytick_40"/>
    <g id="ytick_41"/>
    <g id="ytick_42"/>
    <g id="ytick_43"/>
    <g id="ytick_44"/>
    <g id="ytick_45"/>
    <g id="ytick_46"/>
    <g id="ytick_47"/>
    <g id="ytick_48"/>
    <g id="ytick_49"/>
    <g id="ytick_50"/>
    <g id="ytick_51"/>
    <g id="ytick_52"/>
    <g id="ytick_53"/>
    <g id="ytick_54"/>
    <g id="ytick_55"/>
    <g id="ytick_56"/>
    <g id="ytick_57"/>
    <g id="ytick_58"/>
    <g id="ytick_59"/>
    <g id="ytick_60"/>
    <g id="ytick_61"/>
    <g id="ytick_62"/>
    <g id="ytick_63"/>
    <g id="ytick_64"/>
    <g id="ytick_65"/>
    <g id="ytick_66"/>
    <g id="ytick_67"/>
    <g id="ytick_68"/>
   </g>
   <g id="FillBetweenPolyCollection_3">
    <defs>
     <path id="m5146e89235" d="M 536.012013 -82.032923 
L 531.49619 -82.032923 
L 531.398205 -84.750592 
L 531.311486 -87.468261 
L 531.235642 -90.18593 
L 531.17012 -92.903599 
L 531.114237 -95.621268 
L 531.067222 -98.338937 
L 531.028261 -101.056606 
L 530.99653 -103.774275 
L 530.97124 -106.491944 
L 530.95166 -109.209613 
L 530.937145 -111.927282 
L 530.927142 -114.644951 
L 530.921198 -117.36262 
L 530.918949 -120.080289 
L 530.920099 -122.797958 
L 530.924389 -125.515627 
L 530.931564 -128.233296 
L 530.941325 -130.950965 
L 530.953283 -133.668634 
L 530.966909 -136.386303 
L 530.981492 -139.103972 
L 530.996092 -141.821641 
L 531.009506 -144.53931 
L 531.020251 -147.256979 
L 531.026542 -149.974648 
L 531.026296 -152.692317 
L 531.017145 -155.409986 
L 530.996462 -158.127655 
L 530.961394 -160.845324 
L 530.908918 -163.562993 
L 530.835887 -166.280662 
L 530.739098 -168.998331 
L 530.615353 -171.716 
L 530.46152 -174.433669 
L 530.274594 -177.151338 
L 530.051748 -179.869007 
L 529.790375 -182.586676 
L 529.488118 -185.304345 
L 529.142892 -188.022014 
L 528.752887 -190.739683 
L 528.316563 -193.457352 
L 527.832629 -196.175021 
L 527.300016 -198.89269 
L 526.71784 -201.610359 
L 526.085365 -204.328028 
L 525.40196 -207.045697 
L 524.667064 -209.763366 
L 523.880156 -212.481035 
L 523.040736 -215.198704 
L 522.148324 -217.916373 
L 521.202468 -220.634042 
L 520.202776 -223.351711 
L 519.148969 -226.06938 
L 518.040945 -228.787049 
L 516.878869 -231.504718 
L 515.663275 -234.222387 
L 514.395175 -236.940056 
L 513.076185 -239.657725 
L 511.708644 -242.375394 
L 510.295732 -245.093063 
L 508.841582 -247.810732 
L 507.351373 -250.528401 
L 505.831401 -253.24607 
L 504.289123 -255.963739 
L 502.733174 -258.681408 
L 501.173347 -261.399077 
L 499.620529 -264.116746 
L 498.086613 -266.834415 
L 496.584359 -269.552084 
L 495.127227 -272.269753 
L 493.729173 -274.987422 
L 492.40442 -277.705091 
L 491.167205 -280.42276 
L 490.031513 -283.140429 
L 489.010799 -285.858098 
L 488.117715 -288.575767 
L 487.363841 -291.293436 
L 486.759437 -294.011105 
L 486.313218 -296.728774 
L 486.032155 -299.446443 
L 485.921325 -302.164112 
L 485.98379 -304.881781 
L 486.220531 -307.59945 
L 486.630421 -310.317119 
L 487.210254 -313.034788 
L 487.954809 -315.752457 
L 488.856967 -318.470126 
L 489.90786 -321.187795 
L 491.097056 -323.905464 
L 492.412769 -326.623133 
L 493.84209 -329.340802 
L 495.371233 -332.058471 
L 496.985786 -334.77614 
L 498.67096 -337.493809 
L 500.411833 -340.211478 
L 502.193579 -342.929147 
L 504.001685 -345.646816 
L 505.822143 -348.364485 
L 507.641617 -351.082154 
L 536.012013 -351.082154 
L 536.012013 -351.082154 
L 536.012013 -348.364485 
L 536.012013 -345.646816 
L 536.012013 -342.929147 
L 536.012013 -340.211478 
L 536.012013 -337.493809 
L 536.012013 -334.77614 
L 536.012013 -332.058471 
L 536.012013 -329.340802 
L 536.012013 -326.623133 
L 536.012013 -323.905464 
L 536.012013 -321.187795 
L 536.012013 -318.470126 
L 536.012013 -315.752457 
L 536.012013 -313.034788 
L 536.012013 -310.317119 
L 536.012013 -307.59945 
L 536.012013 -304.881781 
L 536.012013 -302.164112 
L 536.012013 -299.446443 
L 536.012013 -296.728774 
L 536.012013 -294.011105 
L 536.012013 -291.293436 
L 536.012013 -288.575767 
L 536.012013 -285.858098 
L 536.012013 -283.140429 
L 536.012013 -280.42276 
L 536.012013 -277.705091 
L 536.012013 -274.987422 
L 536.012013 -272.269753 
L 536.012013 -269.552084 
L 536.012013 -266.834415 
L 536.012013 -264.116746 
L 536.012013 -261.399077 
L 536.012013 -258.681408 
L 536.012013 -255.963739 
L 536.012013 -253.24607 
L 536.012013 -250.528401 
L 536.012013 -247.810732 
L 536.012013 -245.093063 
L 536.012013 -242.375394 
L 536.012013 -239.657725 
L 536.012013 -236.940056 
L 536.012013 -234.222387 
L 536.012013 -231.504718 
L 536.012013 -228.787049 
L 536.012013 -226.06938 
L 536.012013 -223.351711 
L 536.012013 -220.634042 
L 536.012013 -217.916373 
L 536.012013 -215.198704 
L 536.012013 -212.481035 
L 536.012013 -209.763366 
L 536.012013 -207.045697 
L 536.012013 -204.328028 
L 536.012013 -201.610359 
L 536.012013 -198.89269 
L 536.012013 -196.175021 
L 536.012013 -193.457352 
L 536.012013 -190.739683 
L 536.012013 -188.022014 
L 536.012013 -185.304345 
L 536.012013 -182.586676 
L 536.012013 -179.869007 
L 536.012013 -177.151338 
L 536.012013 -174.433669 
L 536.012013 -171.716 
L 536.012013 -168.998331 
L 536.012013 -166.280662 
L 536.012013 -163.562993 
L 536.012013 -160.845324 
L 536.012013 -158.127655 
L 536.012013 -155.409986 
L 536.012013 -152.692317 
L 536.012013 -149.974648 
L 536.012013 -147.256979 
L 536.012013 -144.53931 
L 536.012013 -141.821641 
L 536.012013 -139.103972 
L 536.012013 -136.386303 
L 536.012013 -133.668634 
L 536.012013 -130.950965 
L 536.012013 -128.233296 
L 536.012013 -125.515627 
L 536.012013 -122.797958 
L 536.012013 -120.080289 
L 536.012013 -117.36262 
L 536.012013 -114.644951 
L 536.012013 -111.927282 
L 536.012013 -109.209613 
L 536.012013 -106.491944 
L 536.012013 -103.774275 
L 536.012013 -101.056606 
L 536.012013 -98.338937 
L 536.012013 -95.621268 
L 536.012013 -92.903599 
L 536.012013 -90.18593 
L 536.012013 -87.468261 
L 536.012013 -84.750592 
L 536.012013 -82.032923 
z
"/>
    </defs>
    <g clip-path="url(#p8fc708ff86)">
     <use xlink:href="#m5146e89235" x="0" y="432.729812" style="fill: #4c72b0; fill-opacity: 0.75"/>
    </g>
   </g>
   <g id="FillBetweenPolyCollection_4">
    <defs>
     <path id="m3ea0861520" d="M 770.070227 -102.729018 
L 765.627607 -102.729018 
L 765.627607 -105.237635 
L 765.627607 -107.746253 
L 765.627607 -110.25487 
L 765.627607 -112.763488 
L 765.627607 -115.272105 
L 765.627607 -117.780723 
L 765.627607 -120.289341 
L 765.627607 -122.797958 
L 765.627607 -125.306576 
L 765.627607 -127.815193 
L 765.627607 -130.323811 
L 765.627607 -132.832428 
L 765.627607 -135.341046 
L 765.627607 -137.849663 
L 765.627607 -140.358281 
L 765.627607 -142.866898 
L 765.627607 -145.375516 
L 765.627607 -147.884133 
L 765.627607 -150.392751 
L 765.627607 -152.901368 
L 765.627607 -155.409986 
L 765.627607 -157.918604 
L 765.627607 -160.427221 
L 765.627607 -162.935839 
L 765.627607 -165.444456 
L 765.627607 -167.953074 
L 765.627607 -170.461691 
L 765.627607 -172.970309 
L 765.627607 -175.478926 
L 765.627607 -177.987544 
L 765.627607 -180.496161 
L 765.627607 -183.004779 
L 765.627607 -185.513396 
L 765.627607 -188.022014 
L 765.627607 -190.530632 
L 765.627607 -193.039249 
L 765.627607 -195.547867 
L 765.627607 -198.056484 
L 765.627607 -200.565102 
L 765.627607 -203.073719 
L 765.627607 -205.582337 
L 765.627607 -208.090954 
L 765.627607 -210.599572 
L 765.627607 -213.108189 
L 765.627607 -215.616807 
L 765.627607 -218.125424 
L 765.627607 -220.634042 
L 765.627607 -223.142659 
L 765.627607 -225.651277 
L 765.627607 -228.159895 
L 765.627607 -230.668512 
L 765.627607 -233.17713 
L 765.627607 -235.685747 
L 765.627607 -238.194365 
L 765.627607 -240.702982 
L 765.627607 -243.2116 
L 765.627607 -245.720217 
L 765.627607 -248.228835 
L 765.627607 -250.737452 
L 765.627607 -253.24607 
L 765.627607 -255.754687 
L 765.627607 -258.263305 
L 765.627607 -260.771923 
L 765.627607 -263.28054 
L 765.627607 -265.789158 
L 765.627607 -268.297775 
L 765.627607 -270.806393 
L 765.627607 -273.31501 
L 765.627607 -275.823628 
L 765.627607 -278.332245 
L 765.627607 -280.840863 
L 765.627607 -283.34948 
L 765.627607 -285.858098 
L 765.627607 -288.366715 
L 765.627607 -290.875333 
L 765.627607 -293.383951 
L 765.627607 -295.892568 
L 765.627607 -298.401186 
L 765.627607 -300.909803 
L 765.627607 -303.418421 
L 765.627607 -305.927038 
L 765.627607 -308.435656 
L 765.627607 -310.944273 
L 765.627607 -313.452891 
L 765.627607 -315.961508 
L 765.627607 -318.470126 
L 765.627607 -320.978743 
L 765.627607 -323.487361 
L 765.627607 -325.995978 
L 765.627607 -328.504596 
L 765.627607 -331.013214 
L 765.627607 -333.521831 
L 765.627607 -336.030449 
L 765.627607 -338.539066 
L 765.627607 -341.047684 
L 765.627607 -343.556301 
L 765.627607 -346.064919 
L 765.627607 -348.573536 
L 765.627607 -351.082154 
L 799.778824 -351.082154 
L 799.778824 -351.082154 
L 801.26037 -348.573536 
L 802.670957 -346.064919 
L 804.003971 -343.556301 
L 805.254397 -341.047684 
L 806.41887 -338.539066 
L 807.495664 -336.030449 
L 808.484618 -333.521831 
L 809.387016 -331.013214 
L 810.205414 -328.504596 
L 810.943427 -325.995978 
L 811.605491 -323.487361 
L 812.196597 -320.978743 
L 812.722029 -318.470126 
L 813.187103 -315.961508 
L 813.596917 -313.452891 
L 813.95614 -310.944273 
L 814.268823 -308.435656 
L 814.538264 -305.927038 
L 814.766907 -303.418421 
L 814.956295 -300.909803 
L 815.107068 -298.401186 
L 815.218997 -295.892568 
L 815.29106 -293.383951 
L 815.32155 -290.875333 
L 815.308193 -288.366715 
L 815.248293 -285.858098 
L 815.138874 -283.34948 
L 814.97682 -280.840863 
L 814.759008 -278.332245 
L 814.482428 -275.823628 
L 814.144279 -273.31501 
L 813.742052 -270.806393 
L 813.273592 -268.297775 
L 812.737142 -265.789158 
L 812.131366 -263.28054 
L 811.45537 -260.771923 
L 810.708707 -258.263305 
L 809.891384 -255.754687 
L 809.003862 -253.24607 
L 808.047064 -250.737452 
L 807.022385 -248.228835 
L 805.931709 -245.720217 
L 804.777432 -243.2116 
L 803.562482 -240.702982 
L 802.290349 -238.194365 
L 800.965109 -235.685747 
L 799.591439 -233.17713 
L 798.174627 -230.668512 
L 796.720565 -228.159895 
L 795.23573 -225.651277 
L 793.72714 -223.142659 
L 792.202297 -220.634042 
L 790.669102 -218.125424 
L 789.135758 -215.616807 
L 787.610656 -213.108189 
L 786.102242 -210.599572 
L 784.618885 -208.090954 
L 783.168734 -205.582337 
L 781.75958 -203.073719 
L 780.398727 -200.565102 
L 779.09287 -198.056484 
L 777.847996 -195.547867 
L 776.669299 -193.039249 
L 775.561121 -190.530632 
L 774.526912 -188.022014 
L 773.569222 -185.513396 
L 772.689708 -183.004779 
L 771.889162 -180.496161 
L 771.167561 -177.987544 
L 770.524128 -175.478926 
L 769.957405 -172.970309 
L 769.465328 -170.461691 
L 769.045311 -167.953074 
L 768.694324 -165.444456 
L 768.408965 -162.935839 
L 768.185535 -160.427221 
L 768.020088 -157.918604 
L 767.908488 -155.409986 
L 767.846446 -152.901368 
L 767.829553 -150.392751 
L 767.853305 -147.884133 
L 767.913121 -145.375516 
L 768.004355 -142.866898 
L 768.122316 -140.358281 
L 768.262277 -137.849663 
L 768.4195 -135.341046 
L 768.589253 -132.832428 
L 768.766842 -130.323811 
L 768.947648 -127.815193 
L 769.12717 -125.306576 
L 769.301077 -122.797958 
L 769.465257 -120.289341 
L 769.615881 -117.780723 
L 769.74946 -115.272105 
L 769.862904 -112.763488 
L 769.953572 -110.25487 
L 770.019324 -107.746253 
L 770.058557 -105.237635 
L 770.070227 -102.729018 
z
"/>
    </defs>
    <g clip-path="url(#p8fc708ff86)">
     <use xlink:href="#m3ea0861520" x="0" y="432.729812" style="fill: #4c72b0; fill-opacity: 0.75"/>
    </g>
   </g>
   <g id="patch_8">
    <path d="M 535.83045 164.432037 
L 565.775925 164.432037 
L 565.775925 123.039848 
L 535.83045 123.039848 
L 535.83045 164.432037 
z
" clip-path="url(#p8fc708ff86)" style="fill: #4c72b0; fill-opacity: 0.33; stroke: #000000; stroke-linejoin: miter"/>
   </g>
   <g id="line2d_35">
    <path d="M 550.803187 164.432037 
L 550.803187 205.824227 
" clip-path="url(#p8fc708ff86)" style="fill: none; stroke: #000000"/>
   </g>
   <g id="line2d_36">
    <path d="M 550.803187 123.039848 
L 550.803187 81.647659 
" clip-path="url(#p8fc708ff86)" style="fill: none; stroke: #000000"/>
   </g>
   <g id="line2d_37">
    <path d="M 543.316819 205.824227 
L 558.289556 205.824227 
" clip-path="url(#p8fc708ff86)" style="fill: none; stroke: #000000; stroke-linecap: round"/>
   </g>
   <g id="line2d_38">
    <path d="M 543.316819 81.647659 
L 558.289556 81.647659 
" clip-path="url(#p8fc708ff86)" style="fill: none; stroke: #000000; stroke-linecap: round"/>
   </g>
   <g id="patch_9">
    <path d="M 735.46695 185.128132 
L 765.412425 185.128132 
L 765.412425 102.343753 
L 735.46695 102.343753 
L 735.46695 185.128132 
z
" clip-path="url(#p8fc708ff86)" style="fill: #4c72b0; fill-opacity: 0.33; stroke: #000000; stroke-linejoin: miter"/>
   </g>
   <g id="line2d_39">
    <path d="M 750.439687 185.128132 
L 750.439687 205.824227 
" clip-path="url(#p8fc708ff86)" style="fill: none; stroke: #000000"/>
   </g>
   <g id="line2d_40">
    <path d="M 750.439687 102.343753 
L 750.439687 81.647659 
" clip-path="url(#p8fc708ff86)" style="fill: none; stroke: #000000"/>
   </g>
   <g id="line2d_41">
    <path d="M 742.953319 205.824227 
L 757.926056 205.824227 
" clip-path="url(#p8fc708ff86)" style="fill: none; stroke: #000000; stroke-linecap: round"/>
   </g>
   <g id="line2d_42">
    <path d="M 742.953319 81.647659 
L 757.926056 81.647659 
" clip-path="url(#p8fc708ff86)" style="fill: none; stroke: #000000; stroke-linecap: round"/>
   </g>
   <g id="line2d_43">
    <path d="M 556.27235 291.017201 
L 755.90885 104.752349 
" clip-path="url(#p8fc708ff86)" style="fill: none; stroke: #04e762; stroke-opacity: 0.5; stroke-width: 1.2; stroke-linecap: round"/>
   </g>
   <g id="line2d_44">
    <path d="M 549.582978 73.85437 
L 749.219478 73.85437 
" clip-path="url(#p8fc708ff86)" style="fill: none; stroke: #808080; stroke-opacity: 0.5; stroke-width: 1.2; stroke-linecap: round"/>
   </g>
   <g id="line2d_45">
    <path d="M 557.962111 157.92318 
L 757.598611 199.315369 
" clip-path="url(#p8fc708ff86)" style="fill: none; stroke: #ff5714; stroke-opacity: 0.5; stroke-width: 1.2; stroke-linecap: round"/>
   </g>
   <g id="line2d_46">
    <path d="M 554.743374 346.087728 
L 754.379874 325.391634 
" clip-path="url(#p8fc708ff86)" style="fill: none; stroke: #04e762; stroke-opacity: 0.5; stroke-width: 1.2; stroke-linecap: round"/>
   </g>
   <g id="line2d_47">
    <path d="M 542.701486 210.880056 
L 742.337986 148.791772 
" clip-path="url(#p8fc708ff86)" style="fill: none; stroke: #04e762; stroke-opacity: 0.5; stroke-width: 1.2; stroke-linecap: round"/>
   </g>
   <g id="line2d_48">
    <path d="M 560.298346 144.286939 
L 759.934846 102.89475 
" clip-path="url(#p8fc708ff86)" style="fill: none; stroke: #04e762; stroke-opacity: 0.5; stroke-width: 1.2; stroke-linecap: round"/>
   </g>
   <g id="line2d_49">
    <path d="M 556.016489 130.593032 
L 755.652989 171.985222 
" clip-path="url(#p8fc708ff86)" style="fill: none; stroke: #ff5714; stroke-opacity: 0.5; stroke-width: 1.2; stroke-linecap: round"/>
   </g>
   <g id="line2d_50">
    <path d="M 556.514075 128.763734 
L 756.150575 170.155923 
" clip-path="url(#p8fc708ff86)" style="fill: none; stroke: #ff5714; stroke-opacity: 0.5; stroke-width: 1.2; stroke-linecap: round"/>
   </g>
   <g id="line2d_51">
    <path d="M 543.378978 140.705224 
L 743.015478 99.313035 
" clip-path="url(#p8fc708ff86)" style="fill: none; stroke: #04e762; stroke-opacity: 0.5; stroke-width: 1.2; stroke-linecap: round"/>
   </g>
   <g id="line2d_52">
    <path d="M 549.81271 118.987351 
L 749.44921 139.683446 
" clip-path="url(#p8fc708ff86)" style="fill: none; stroke: #ff5714; stroke-opacity: 0.5; stroke-width: 1.2; stroke-linecap: round"/>
   </g>
   <g id="line2d_53">
    <path d="M 548.223844 115.299347 
L 747.860344 94.603253 
" clip-path="url(#p8fc708ff86)" style="fill: none; stroke: #04e762; stroke-opacity: 0.5; stroke-width: 1.2; stroke-linecap: round"/>
   </g>
   <g id="line2d_54">
    <path d="M 559.322974 208.708015 
L 758.959474 208.708015 
" clip-path="url(#p8fc708ff86)" style="fill: none; stroke: #808080; stroke-opacity: 0.5; stroke-width: 1.2; stroke-linecap: round"/>
   </g>
   <g id="line2d_55">
    <path d="M 553.67526 166.57682 
L 753.31176 125.184631 
" clip-path="url(#p8fc708ff86)" style="fill: none; stroke: #04e762; stroke-opacity: 0.5; stroke-width: 1.2; stroke-linecap: round"/>
   </g>
   <g id="line2d_56">
    <path d="M 557.246687 123.543909 
L 756.883187 144.240003 
" clip-path="url(#p8fc708ff86)" style="fill: none; stroke: #ff5714; stroke-opacity: 0.5; stroke-width: 1.2; stroke-linecap: round"/>
   </g>
   <g id="line2d_57">
    <path d="M 549.673528 107.485137 
L 749.310028 169.573421 
" clip-path="url(#p8fc708ff86)" style="fill: none; stroke: #ff5714; stroke-opacity: 0.5; stroke-width: 1.2; stroke-linecap: round"/>
   </g>
   <g id="line2d_58">
    <path d="M 545.357877 170.559381 
L 744.994377 191.255476 
" clip-path="url(#p8fc708ff86)" style="fill: none; stroke: #ff5714; stroke-opacity: 0.5; stroke-width: 1.2; stroke-linecap: round"/>
   </g>
   <g id="line2d_59">
    <path d="M 551.892899 123.442099 
L 751.529399 82.049909 
" clip-path="url(#p8fc708ff86)" style="fill: none; stroke: #04e762; stroke-opacity: 0.5; stroke-width: 1.2; stroke-linecap: round"/>
   </g>
   <g id="line2d_60">
    <path d="M 542.095388 137.909423 
L 741.731888 210.345755 
" clip-path="url(#p8fc708ff86)" style="fill: none; stroke: #ff5714; stroke-opacity: 0.5; stroke-width: 1.2; stroke-linecap: round"/>
   </g>
   <g id="line2d_61">
    <path d="M 557.343902 99.532164 
L 756.980402 140.924353 
" clip-path="url(#p8fc708ff86)" style="fill: none; stroke: #ff5714; stroke-opacity: 0.5; stroke-width: 1.2; stroke-linecap: round"/>
   </g>
   <g id="line2d_62">
    <path d="M 553.431689 144.776511 
L 753.068189 186.1687 
" clip-path="url(#p8fc708ff86)" style="fill: none; stroke: #ff5714; stroke-opacity: 0.5; stroke-width: 1.2; stroke-linecap: round"/>
   </g>
   <g id="line2d_63">
    <path d="M 555.955561 76.139547 
L 755.592061 76.139547 
" clip-path="url(#p8fc708ff86)" style="fill: none; stroke: #808080; stroke-opacity: 0.5; stroke-width: 1.2; stroke-linecap: round"/>
   </g>
   <g id="line2d_64">
    <path d="M 535.83045 133.387895 
L 565.775925 133.387895 
" clip-path="url(#p8fc708ff86)" style="fill: none; stroke: #000000"/>
   </g>
   <g id="line2d_65">
    <path d="M 735.46695 143.735943 
L 765.412425 143.735943 
" clip-path="url(#p8fc708ff86)" style="fill: none; stroke: #000000"/>
   </g>
   <g id="patch_10">
    <path d="M 450.984938 377.601812 
L 450.984938 27.837812 
" style="fill: none; stroke: #cccccc; stroke-linejoin: miter; stroke-linecap: square"/>
   </g>
   <g id="patch_11">
    <path d="M 450.984938 377.601812 
L 850.257937 377.601812 
" style="fill: none; stroke: #cccccc; stroke-linejoin: miter; stroke-linecap: square"/>
   </g>
   <g id="PathCollection_3">
    <g clip-path="url(#p8fc708ff86)">
     <use xlink:href="#m986c909cb1" x="556.27235" y="291.017201" style="fill-opacity: 0.9; stroke: #000000; stroke-opacity: 0.9; stroke-width: 0.8"/>
     <use xlink:href="#m986c909cb1" x="549.582978" y="73.85437" style="fill-opacity: 0.9; stroke: #000000; stroke-opacity: 0.9; stroke-width: 0.8"/>
     <use xlink:href="#m986c909cb1" x="557.962111" y="157.92318" style="fill-opacity: 0.9; stroke: #000000; stroke-opacity: 0.9; stroke-width: 0.8"/>
     <use xlink:href="#m986c909cb1" x="554.743374" y="346.087728" style="fill-opacity: 0.9; stroke: #000000; stroke-opacity: 0.9; stroke-width: 0.8"/>
     <use xlink:href="#m986c909cb1" x="542.701486" y="210.880056" style="fill-opacity: 0.9; stroke: #000000; stroke-opacity: 0.9; stroke-width: 0.8"/>
     <use xlink:href="#m986c909cb1" x="560.298346" y="144.286939" style="fill-opacity: 0.9; stroke: #000000; stroke-opacity: 0.9; stroke-width: 0.8"/>
     <use xlink:href="#m986c909cb1" x="556.016489" y="130.593032" style="fill-opacity: 0.9; stroke: #000000; stroke-opacity: 0.9; stroke-width: 0.8"/>
     <use xlink:href="#m986c909cb1" x="556.514075" y="128.763734" style="fill-opacity: 0.9; stroke: #000000; stroke-opacity: 0.9; stroke-width: 0.8"/>
     <use xlink:href="#m986c909cb1" x="543.378978" y="140.705224" style="fill-opacity: 0.9; stroke: #000000; stroke-opacity: 0.9; stroke-width: 0.8"/>
     <use xlink:href="#m986c909cb1" x="549.81271" y="118.987351" style="fill-opacity: 0.9; stroke: #000000; stroke-opacity: 0.9; stroke-width: 0.8"/>
     <use xlink:href="#m986c909cb1" x="548.223844" y="115.299347" style="fill-opacity: 0.9; stroke: #000000; stroke-opacity: 0.9; stroke-width: 0.8"/>
     <use xlink:href="#m986c909cb1" x="559.322974" y="208.708015" style="fill-opacity: 0.9; stroke: #000000; stroke-opacity: 0.9; stroke-width: 0.8"/>
     <use xlink:href="#m986c909cb1" x="553.67526" y="166.57682" style="fill-opacity: 0.9; stroke: #000000; stroke-opacity: 0.9; stroke-width: 0.8"/>
     <use xlink:href="#m986c909cb1" x="557.246687" y="123.543909" style="fill-opacity: 0.9; stroke: #000000; stroke-opacity: 0.9; stroke-width: 0.8"/>
     <use xlink:href="#m986c909cb1" x="549.673528" y="107.485137" style="fill-opacity: 0.9; stroke: #000000; stroke-opacity: 0.9; stroke-width: 0.8"/>
     <use xlink:href="#m986c909cb1" x="545.357877" y="170.559381" style="fill-opacity: 0.9; stroke: #000000; stroke-opacity: 0.9; stroke-width: 0.8"/>
     <use xlink:href="#m986c909cb1" x="551.892899" y="123.442099" style="fill-opacity: 0.9; stroke: #000000; stroke-opacity: 0.9; stroke-width: 0.8"/>
     <use xlink:href="#m986c909cb1" x="542.095388" y="137.909423" style="fill-opacity: 0.9; stroke: #000000; stroke-opacity: 0.9; stroke-width: 0.8"/>
     <use xlink:href="#m986c909cb1" x="557.343902" y="99.532164" style="fill-opacity: 0.9; stroke: #000000; stroke-opacity: 0.9; stroke-width: 0.8"/>
     <use xlink:href="#m986c909cb1" x="553.431689" y="144.776511" style="fill-opacity: 0.9; stroke: #000000; stroke-opacity: 0.9; stroke-width: 0.8"/>
     <use xlink:href="#m986c909cb1" x="555.955561" y="76.139547" style="fill-opacity: 0.9; stroke: #000000; stroke-opacity: 0.9; stroke-width: 0.8"/>
    </g>
   </g>
   <g id="PathCollection_4">
    <g clip-path="url(#p8fc708ff86)">
     <use xlink:href="#m986c909cb1" x="755.90885" y="104.752349" style="fill-opacity: 0.9; stroke: #000000; stroke-opacity: 0.9; stroke-width: 0.8"/>
     <use xlink:href="#m986c909cb1" x="749.219478" y="73.85437" style="fill-opacity: 0.9; stroke: #000000; stroke-opacity: 0.9; stroke-width: 0.8"/>
     <use xlink:href="#m986c909cb1" x="757.598611" y="199.315369" style="fill-opacity: 0.9; stroke: #000000; stroke-opacity: 0.9; stroke-width: 0.8"/>
     <use xlink:href="#m986c909cb1" x="754.379874" y="325.391634" style="fill-opacity: 0.9; stroke: #000000; stroke-opacity: 0.9; stroke-width: 0.8"/>
     <use xlink:href="#m986c909cb1" x="742.337986" y="148.791772" style="fill-opacity: 0.9; stroke: #000000; stroke-opacity: 0.9; stroke-width: 0.8"/>
     <use xlink:href="#m986c909cb1" x="759.934846" y="102.89475" style="fill-opacity: 0.9; stroke: #000000; stroke-opacity: 0.9; stroke-width: 0.8"/>
     <use xlink:href="#m986c909cb1" x="755.652989" y="171.985222" style="fill-opacity: 0.9; stroke: #000000; stroke-opacity: 0.9; stroke-width: 0.8"/>
     <use xlink:href="#m986c909cb1" x="756.150575" y="170.155923" style="fill-opacity: 0.9; stroke: #000000; stroke-opacity: 0.9; stroke-width: 0.8"/>
     <use xlink:href="#m986c909cb1" x="743.015478" y="99.313035" style="fill-opacity: 0.9; stroke: #000000; stroke-opacity: 0.9; stroke-width: 0.8"/>
     <use xlink:href="#m986c909cb1" x="749.44921" y="139.683446" style="fill-opacity: 0.9; stroke: #000000; stroke-opacity: 0.9; stroke-width: 0.8"/>
     <use xlink:href="#m986c909cb1" x="747.860344" y="94.603253" style="fill-opacity: 0.9; stroke: #000000; stroke-opacity: 0.9; stroke-width: 0.8"/>
     <use xlink:href="#m986c909cb1" x="758.959474" y="208.708015" style="fill-opacity: 0.9; stroke: #000000; stroke-opacity: 0.9; stroke-width: 0.8"/>
     <use xlink:href="#m986c909cb1" x="753.31176" y="125.184631" style="fill-opacity: 0.9; stroke: #000000; stroke-opacity: 0.9; stroke-width: 0.8"/>
     <use xlink:href="#m986c909cb1" x="756.883187" y="144.240003" style="fill-opacity: 0.9; stroke: #000000; stroke-opacity: 0.9; stroke-width: 0.8"/>
     <use xlink:href="#m986c909cb1" x="749.310028" y="169.573421" style="fill-opacity: 0.9; stroke: #000000; stroke-opacity: 0.9; stroke-width: 0.8"/>
     <use xlink:href="#m986c909cb1" x="744.994377" y="191.255476" style="fill-opacity: 0.9; stroke: #000000; stroke-opacity: 0.9; stroke-width: 0.8"/>
     <use xlink:href="#m986c909cb1" x="751.529399" y="82.049909" style="fill-opacity: 0.9; stroke: #000000; stroke-opacity: 0.9; stroke-width: 0.8"/>
     <use xlink:href="#m986c909cb1" x="741.731888" y="210.345755" style="fill-opacity: 0.9; stroke: #000000; stroke-opacity: 0.9; stroke-width: 0.8"/>
     <use xlink:href="#m986c909cb1" x="756.980402" y="140.924353" style="fill-opacity: 0.9; stroke: #000000; stroke-opacity: 0.9; stroke-width: 0.8"/>
     <use xlink:href="#m986c909cb1" x="753.068189" y="186.1687" style="fill-opacity: 0.9; stroke: #000000; stroke-opacity: 0.9; stroke-width: 0.8"/>
     <use xlink:href="#m986c909cb1" x="755.592061" y="76.139547" style="fill-opacity: 0.9; stroke: #000000; stroke-opacity: 0.9; stroke-width: 0.8"/>
    </g>
   </g>
   <g id="text_19">
    <!-- PPMI matched (N = 21) -->
    <g style="fill: #262626" transform="translate(450.984938 17.837812) scale(0.14 -0.14)">
     <defs>
      <path id="DejaVuSans-64" d="M 2906 2969 
L 2906 4863 
L 3481 4863 
L 3481 0 
L 2906 0 
L 2906 525 
Q 2725 213 2448 61 
Q 2172 -91 1784 -91 
Q 1150 -91 751 415 
Q 353 922 353 1747 
Q 353 2572 751 3078 
Q 1150 3584 1784 3584 
Q 2172 3584 2448 3432 
Q 2725 3281 2906 2969 
z
M 947 1747 
Q 947 1113 1208 752 
Q 1469 391 1925 391 
Q 2381 391 2643 752 
Q 2906 1113 2906 1747 
Q 2906 2381 2643 2742 
Q 2381 3103 1925 3103 
Q 1469 3103 1208 2742 
Q 947 2381 947 1747 
z
" transform="scale(0.015625)"/>
     </defs>
     <use xlink:href="#DejaVuSans-50"/>
     <use xlink:href="#DejaVuSans-50" transform="translate(60.302734 0)"/>
     <use xlink:href="#DejaVuSans-4d" transform="translate(120.605469 0)"/>
     <use xlink:href="#DejaVuSans-49" transform="translate(206.884766 0)"/>
     <use xlink:href="#DejaVuSans-20" transform="translate(236.376953 0)"/>
     <use xlink:href="#DejaVuSans-6d" transform="translate(268.164062 0)"/>
     <use xlink:href="#DejaVuSans-61" transform="translate(365.576172 0)"/>
     <use xlink:href="#DejaVuSans-74" transform="translate(426.855469 0)"/>
     <use xlink:href="#DejaVuSans-63" transform="translate(466.064453 0)"/>
     <use xlink:href="#DejaVuSans-68" transform="translate(521.044922 0)"/>
     <use xlink:href="#DejaVuSans-65" transform="translate(584.423828 0)"/>
     <use xlink:href="#DejaVuSans-64" transform="translate(645.947266 0)"/>
     <use xlink:href="#DejaVuSans-20" transform="translate(709.423828 0)"/>
     <use xlink:href="#DejaVuSans-28" transform="translate(741.210938 0)"/>
     <use xlink:href="#DejaVuSans-4e" transform="translate(780.224609 0)"/>
     <use xlink:href="#DejaVuSans-20" transform="translate(855.029297 0)"/>
     <use xlink:href="#DejaVuSans-3d" transform="translate(886.816406 0)"/>
     <use xlink:href="#DejaVuSans-20" transform="translate(970.605469 0)"/>
     <use xlink:href="#DejaVuSans-32" transform="translate(1002.392578 0)"/>
     <use xlink:href="#DejaVuSans-31" transform="translate(1066.015625 0)"/>
     <use xlink:href="#DejaVuSans-29" transform="translate(1129.638672 0)"/>
    </g>
   </g>
  </g>
  <g id="text_20">
   <g id="patch_12">
    <path d="M 130.546172 428.279812 
L 294.705703 428.279812 
Q 297.455703 428.279812 297.455703 425.529812 
L 297.455703 414.529812 
Q 297.455703 411.779812 294.705703 411.779812 
L 130.546172 411.779812 
Q 127.796172 411.779812 127.796172 414.529812 
L 127.796172 425.529812 
Q 127.796172 428.279812 130.546172 428.279812 
z
" style="fill: #ffffff; opacity: 0.8"/>
   </g>
   <!-- Mean |Post − Pre| (DBS): 2.71 -->
   <g style="fill: #262626" transform="translate(130.546172 422.936219) scale(0.11 -0.11)">
    <defs>
     <path id="DejaVuSans-7c" d="M 1344 4891 
L 1344 -1509 
L 813 -1509 
L 813 4891 
L 1344 4891 
z
" transform="scale(0.015625)"/>
     <path id="DejaVuSans-2212" d="M 678 2272 
L 4684 2272 
L 4684 1741 
L 678 1741 
L 678 2272 
z
" transform="scale(0.015625)"/>
     <path id="DejaVuSans-3a" d="M 750 794 
L 1409 794 
L 1409 0 
L 750 0 
L 750 794 
z
M 750 3309 
L 1409 3309 
L 1409 2516 
L 750 2516 
L 750 3309 
z
" transform="scale(0.015625)"/>
     <path id="DejaVuSans-2e" d="M 684 794 
L 1344 794 
L 1344 0 
L 684 0 
L 684 794 
z
" transform="scale(0.015625)"/>
     <path id="DejaVuSans-37" d="M 525 4666 
L 3525 4666 
L 3525 4397 
L 1831 0 
L 1172 0 
L 2766 4134 
L 525 4134 
L 525 4666 
z
" transform="scale(0.015625)"/>
    </defs>
    <use xlink:href="#DejaVuSans-4d"/>
    <use xlink:href="#DejaVuSans-65" transform="translate(86.279297 0)"/>
    <use xlink:href="#DejaVuSans-61" transform="translate(147.802734 0)"/>
    <use xlink:href="#DejaVuSans-6e" transform="translate(209.082031 0)"/>
    <use xlink:href="#DejaVuSans-20" transform="translate(272.460938 0)"/>
    <use xlink:href="#DejaVuSans-7c" transform="translate(304.248047 0)"/>
    <use xlink:href="#DejaVuSans-50" transform="translate(337.939453 0)"/>
    <use xlink:href="#DejaVuSans-6f" transform="translate(394.617188 0)"/>
    <use xlink:href="#DejaVuSans-73" transform="translate(455.798828 0)"/>
    <use xlink:href="#DejaVuSans-74" transform="translate(507.898438 0)"/>
    <use xlink:href="#DejaVuSans-20" transform="translate(547.107422 0)"/>
    <use xlink:href="#DejaVuSans-2212" transform="translate(578.894531 0)"/>
    <use xlink:href="#DejaVuSans-20" transform="translate(662.683594 0)"/>
    <use xlink:href="#DejaVuSans-50" transform="translate(694.470703 0)"/>
    <use xlink:href="#DejaVuSans-72" transform="translate(753.023438 0)"/>
    <use xlink:href="#DejaVuSans-65" transform="translate(791.886719 0)"/>
    <use xlink:href="#DejaVuSans-7c" transform="translate(853.410156 0)"/>
    <use xlink:href="#DejaVuSans-20" transform="translate(887.101562 0)"/>
    <use xlink:href="#DejaVuSans-28" transform="translate(918.888672 0)"/>
    <use xlink:href="#DejaVuSans-44" transform="translate(957.902344 0)"/>
    <use xlink:href="#DejaVuSans-42" transform="translate(1034.904297 0)"/>
    <use xlink:href="#DejaVuSans-53" transform="translate(1101.757812 0)"/>
    <use xlink:href="#DejaVuSans-29" transform="translate(1165.234375 0)"/>
    <use xlink:href="#DejaVuSans-3a" transform="translate(1204.248047 0)"/>
    <use xlink:href="#DejaVuSans-20" transform="translate(1237.939453 0)"/>
    <use xlink:href="#DejaVuSans-32" transform="translate(1269.726562 0)"/>
    <use xlink:href="#DejaVuSans-2e" transform="translate(1333.349609 0)"/>
    <use xlink:href="#DejaVuSans-37" transform="translate(1365.136719 0)"/>
    <use xlink:href="#DejaVuSans-31" transform="translate(1428.759766 0)"/>
   </g>
  </g>
  <g id="text_21">
   <g id="patch_13">
    <path d="M 560.949453 428.279812 
L 728.302422 428.279812 
Q 731.052422 428.279812 731.052422 425.529812 
L 731.052422 414.529812 
Q 731.052422 411.779812 728.302422 411.779812 
L 560.949453 411.779812 
Q 558.199453 411.779812 558.199453 414.529812 
L 558.199453 425.529812 
Q 558.199453 428.279812 560.949453 428.279812 
z
" style="fill: #ffffff; opacity: 0.8"/>
   </g>
   <!-- Mean |Post − Pre| (PPMI): 1.98 -->
   <g style="fill: #262626" transform="translate(560.949453 422.936219) scale(0.11 -0.11)">
    <defs>
     <path id="DejaVuSans-39" d="M 703 97 
L 703 672 
Q 941 559 1184 500 
Q 1428 441 1663 441 
Q 2288 441 2617 861 
Q 2947 1281 2994 2138 
Q 2813 1869 2534 1725 
Q 2256 1581 1919 1581 
Q 1219 1581 811 2004 
Q 403 2428 403 3163 
Q 403 3881 828 4315 
Q 1253 4750 1959 4750 
Q 2769 4750 3195 4129 
Q 3622 3509 3622 2328 
Q 3622 1225 3098 567 
Q 2575 -91 1691 -91 
Q 1453 -91 1209 -44 
Q 966 3 703 97 
z
M 1959 2075 
Q 2384 2075 2632 2365 
Q 2881 2656 2881 3163 
Q 2881 3666 2632 3958 
Q 2384 4250 1959 4250 
Q 1534 4250 1286 3958 
Q 1038 3666 1038 3163 
Q 1038 2656 1286 2365 
Q 1534 2075 1959 2075 
z
" transform="scale(0.015625)"/>
    </defs>
    <use xlink:href="#DejaVuSans-4d"/>
    <use xlink:href="#DejaVuSans-65" transform="translate(86.279297 0)"/>
    <use xlink:href="#DejaVuSans-61" transform="translate(147.802734 0)"/>
    <use xlink:href="#DejaVuSans-6e" transform="translate(209.082031 0)"/>
    <use xlink:href="#DejaVuSans-20" transform="translate(272.460938 0)"/>
    <use xlink:href="#DejaVuSans-7c" transform="translate(304.248047 0)"/>
    <use xlink:href="#DejaVuSans-50" transform="translate(337.939453 0)"/>
    <use xlink:href="#DejaVuSans-6f" transform="translate(394.617188 0)"/>
    <use xlink:href="#DejaVuSans-73" transform="translate(455.798828 0)"/>
    <use xlink:href="#DejaVuSans-74" transform="translate(507.898438 0)"/>
    <use xlink:href="#DejaVuSans-20" transform="translate(547.107422 0)"/>
    <use xlink:href="#DejaVuSans-2212" transform="translate(578.894531 0)"/>
    <use xlink:href="#DejaVuSans-20" transform="translate(662.683594 0)"/>
    <use xlink:href="#DejaVuSans-50" transform="translate(694.470703 0)"/>
    <use xlink:href="#DejaVuSans-72" transform="translate(753.023438 0)"/>
    <use xlink:href="#DejaVuSans-65" transform="translate(791.886719 0)"/>
    <use xlink:href="#DejaVuSans-7c" transform="translate(853.410156 0)"/>
    <use xlink:href="#DejaVuSans-20" transform="translate(887.101562 0)"/>
    <use xlink:href="#DejaVuSans-28" transform="translate(918.888672 0)"/>
    <use xlink:href="#DejaVuSans-50" transform="translate(957.902344 0)"/>
    <use xlink:href="#DejaVuSans-50" transform="translate(1018.205078 0)"/>
    <use xlink:href="#DejaVuSans-4d" transform="translate(1078.507812 0)"/>
    <use xlink:href="#DejaVuSans-49" transform="translate(1164.787109 0)"/>
    <use xlink:href="#DejaVuSans-29" transform="translate(1194.279297 0)"/>
    <use xlink:href="#DejaVuSans-3a" transform="translate(1233.292969 0)"/>
    <use xlink:href="#DejaVuSans-20" transform="translate(1266.984375 0)"/>
    <use xlink:href="#DejaVuSans-31" transform="translate(1298.771484 0)"/>
    <use xlink:href="#DejaVuSans-2e" transform="translate(1362.394531 0)"/>
    <use xlink:href="#DejaVuSans-39" transform="translate(1394.181641 0)"/>
    <use xlink:href="#DejaVuSans-38" transform="translate(1457.804688 0)"/>
   </g>
  </g>
 </g>
 <defs>
  <clipPath id="p2442d0ca95">
   <rect x="41.343938" y="27.837812" width="399.273" height="349.764"/>
  </clipPath>
  <clipPath id="p8fc708ff86">
   <rect x="450.984938" y="27.837812" width="399.273" height="349.764"/>
  </clipPath>
 </defs>
</svg>
