<?xml version="1.0" encoding="utf-8" standalone="no"?>
<!DOCTYPE svg PUBLIC "-//W3C//DTD SVG 1.1//EN"
  "http://www.w3.org/Graphics/SVG/1.1/DTD/svg11.dtd">
<svg xmlns:xlink="http://www.w3.org/1999/xlink" width="410.532906pt" height="274.854719pt" viewBox="0 0 410.532906 274.854719" xmlns="http://www.w3.org/2000/svg" version="1.1">
 <metadata>
  <rdf:RDF xmlns:dc="http://purl.org/dc/elements/1.1/" xmlns:cc="http://creativecommons.org/ns#" xmlns:rdf="http://www.w3.org/1999/02/22-rdf-syntax-ns#">
   <cc:Work>
    <dc:type rdf:resource="http://purl.org/dc/dcmitype/StillImage"/>
    <dc:date>2025-10-25T11:09:30.157455</dc:date>
    <dc:format>image/svg+xml</dc:format>
    <dc:creator>
     <cc:Agent>
      <dc:title>Matplotlib v3.10.0, https://matplotlib.org/</dc:title>
     </cc:Agent>
    </dc:creator>
   </cc:Work>
  </rdf:RDF>
 </metadata>
 <defs>
  <style type="text/css">*{stroke-linejoin: round; stroke-linecap: butt}</style>
 </defs>
 <g id="figure_1">
  <g id="patch_1">
   <path d="M 0 274.854719 
L 410.532906 274.854719 
L 410.532906 0 
L 0 0 
z
" style="fill: #ffffff"/>
  </g>
  <g id="axes_1">
   <g id="patch_2">
    <path d="M 39.989 250.837969 
L 374.789 250.837969 
L 374.789 29.077969 
L 39.989 29.077969 
z
" style="fill: #ffffff"/>
   </g>
   <g id="matplotlib.axis_1">
    <g id="xtick_1">
     <g id="text_1">
      <!-- Tübingen DBS -->
      <g style="fill: #262626" transform="translate(93.203187 265.824594) scale(0.088 -0.088)">
       <defs>
        <path id="DejaVuSans-54" d="M -19 4666 
L 3928 4666 
L 3928 4134 
L 2272 4134 
L 2272 0 
L 1638 0 
L 1638 4134 
L -19 4134 
L -19 4666 
z
" transform="scale(0.015625)"/>
        <path id="DejaVuSans-fc" d="M 544 1381 
L 544 3500 
L 1119 3500 
L 1119 1403 
Q 1119 906 1312 657 
Q 1506 409 1894 409 
Q 2359 409 2629 706 
Q 2900 1003 2900 1516 
L 2900 3500 
L 3475 3500 
L 3475 0 
L 2900 0 
L 2900 538 
Q 2691 219 2414 64 
Q 2138 -91 1772 -91 
Q 1169 -91 856 284 
Q 544 659 544 1381 
z
M 1991 3584 
L 1991 3584 
z
M 2278 4850 
L 2912 4850 
L 2912 4219 
L 2278 4219 
L 2278 4850 
z
M 1056 4850 
L 1690 4850 
L 1690 4219 
L 1056 4219 
L 1056 4850 
z
" transform="scale(0.015625)"/>
        <path id="DejaVuSans-62" d="M 3116 1747 
Q 3116 2381 2855 2742 
Q 2594 3103 2138 3103 
Q 1681 3103 1420 2742 
Q 1159 2381 1159 1747 
Q 1159 1113 1420 752 
Q 1681 391 2138 391 
Q 2594 391 2855 752 
Q 3116 1113 3116 1747 
z
M 1159 2969 
Q 1341 3281 1617 3432 
Q 1894 3584 2278 3584 
Q 2916 3584 3314 3078 
Q 3713 2572 3713 1747 
Q 3713 922 3314 415 
Q 2916 -91 2278 -91 
Q 1894 -91 1617 61 
Q 1341 213 1159 525 
L 1159 0 
L 581 0 
L 581 4863 
L 1159 4863 
L 1159 2969 
z
" transform="scale(0.015625)"/>
        <path id="DejaVuSans-69" d="M 603 3500 
L 1178 3500 
L 1178 0 
L 603 0 
L 603 3500 
z
M 603 4863 
L 1178 4863 
L 1178 4134 
L 603 4134 
L 603 4863 
z
" transform="scale(0.015625)"/>
        <path id="DejaVuSans-6e" d="M 3513 2113 
L 3513 0 
L 2938 0 
L 2938 2094 
Q 2938 2591 2744 2837 
Q 2550 3084 2163 3084 
Q 1697 3084 1428 2787 
Q 1159 2491 1159 1978 
L 1159 0 
L 581 0 
L 581 3500 
L 1159 3500 
L 1159 2956 
Q 1366 3272 1645 3428 
Q 1925 3584 2291 3584 
Q 2894 3584 3203 3211 
Q 3513 2838 3513 2113 
z
" transform="scale(0.015625)"/>
        <path id="DejaVuSans-67" d="M 2906 1791 
Q 2906 2416 2648 2759 
Q 2391 3103 1925 3103 
Q 1463 3103 1205 2759 
Q 947 2416 947 1791 
Q 947 1169 1205 825 
Q 1463 481 1925 481 
Q 2391 481 2648 825 
Q 2906 1169 2906 1791 
z
M 3481 434 
Q 3481 -459 3084 -895 
Q 2688 -1331 1869 -1331 
Q 1566 -1331 1297 -1286 
Q 1028 -1241 775 -1147 
L 775 -588 
Q 1028 -725 1275 -790 
Q 1522 -856 1778 -856 
Q 2344 -856 2625 -561 
Q 2906 -266 2906 331 
L 2906 616 
Q 2728 306 2450 153 
Q 2172 0 1784 0 
Q 1141 0 747 490 
Q 353 981 353 1791 
Q 353 2603 747 3093 
Q 1141 3584 1784 3584 
Q 2172 3584 2450 3431 
Q 2728 3278 2906 2969 
L 2906 3500 
L 3481 3500 
L 3481 434 
z
" transform="scale(0.015625)"/>
        <path id="DejaVuSans-65" d="M 3597 1894 
L 3597 1613 
L 953 1613 
Q 991 1019 1311 708 
Q 1631 397 2203 397 
Q 2534 397 2845 478 
Q 3156 559 3463 722 
L 3463 178 
Q 3153 47 2828 -22 
Q 2503 -91 2169 -91 
Q 1331 -91 842 396 
Q 353 884 353 1716 
Q 353 2575 817 3079 
Q 1281 3584 2069 3584 
Q 2775 3584 3186 3129 
Q 3597 2675 3597 1894 
z
M 3022 2063 
Q 3016 2534 2758 2815 
Q 2500 3097 2075 3097 
Q 1594 3097 1305 2825 
Q 1016 2553 972 2059 
L 3022 2063 
z
" transform="scale(0.015625)"/>
        <path id="DejaVuSans-20" transform="scale(0.015625)"/>
        <path id="DejaVuSans-44" d="M 1259 4147 
L 1259 519 
L 2022 519 
Q 2988 519 3436 956 
Q 3884 1394 3884 2338 
Q 3884 3275 3436 3711 
Q 2988 4147 2022 4147 
L 1259 4147 
z
M 628 4666 
L 1925 4666 
Q 3281 4666 3915 4102 
Q 4550 3538 4550 2338 
Q 4550 1131 3912 565 
Q 3275 0 1925 0 
L 628 0 
L 628 4666 
z
" transform="scale(0.015625)"/>
        <path id="DejaVuSans-42" d="M 1259 2228 
L 1259 519 
L 2272 519 
Q 2781 519 3026 730 
Q 3272 941 3272 1375 
Q 3272 1813 3026 2020 
Q 2781 2228 2272 2228 
L 1259 2228 
z
M 1259 4147 
L 1259 2741 
L 2194 2741 
Q 2656 2741 2882 2914 
Q 3109 3088 3109 3444 
Q 3109 3797 2882 3972 
Q 2656 4147 2194 4147 
L 1259 4147 
z
M 628 4666 
L 2241 4666 
Q 2963 4666 3353 4366 
Q 3744 4066 3744 3513 
Q 3744 3084 3544 2831 
Q 3344 2578 2956 2516 
Q 3422 2416 3680 2098 
Q 3938 1781 3938 1306 
Q 3938 681 3513 340 
Q 3088 0 2303 0 
L 628 0 
L 628 4666 
z
" transform="scale(0.015625)"/>
        <path id="DejaVuSans-53" d="M 3425 4513 
L 3425 3897 
Q 3066 4069 2747 4153 
Q 2428 4238 2131 4238 
Q 1616 4238 1336 4038 
Q 1056 3838 1056 3469 
Q 1056 3159 1242 3001 
Q 1428 2844 1947 2747 
L 2328 2669 
Q 3034 2534 3370 2195 
Q 3706 1856 3706 1288 
Q 3706 609 3251 259 
Q 2797 -91 1919 -91 
Q 1588 -91 1214 -16 
Q 841 59 441 206 
L 441 856 
Q 825 641 1194 531 
Q 1563 422 1919 422 
Q 2459 422 2753 634 
Q 3047 847 3047 1241 
Q 3047 1584 2836 1778 
Q 2625 1972 2144 2069 
L 1759 2144 
Q 1053 2284 737 2584 
Q 422 2884 422 3419 
Q 422 4038 858 4394 
Q 1294 4750 2059 4750 
Q 2388 4750 2728 4690 
Q 3069 4631 3425 4513 
z
" transform="scale(0.015625)"/>
       </defs>
       <use xlink:href="#DejaVuSans-54"/>
       <use xlink:href="#DejaVuSans-fc" transform="translate(47.333984 0)"/>
       <use xlink:href="#DejaVuSans-62" transform="translate(110.712891 0)"/>
       <use xlink:href="#DejaVuSans-69" transform="translate(174.189453 0)"/>
       <use xlink:href="#DejaVuSans-6e" transform="translate(201.972656 0)"/>
       <use xlink:href="#DejaVuSans-67" transform="translate(265.351562 0)"/>
       <use xlink:href="#DejaVuSans-65" transform="translate(328.828125 0)"/>
       <use xlink:href="#DejaVuSans-6e" transform="translate(390.351562 0)"/>
       <use xlink:href="#DejaVuSans-20" transform="translate(453.730469 0)"/>
       <use xlink:href="#DejaVuSans-44" transform="translate(485.517578 0)"/>
       <use xlink:href="#DejaVuSans-42" transform="translate(562.519531 0)"/>
       <use xlink:href="#DejaVuSans-53" transform="translate(629.373047 0)"/>
      </g>
     </g>
    </g>
    <g id="xtick_2">
     <g id="text_2">
      <!-- PPMI -->
      <g style="fill: #262626" transform="translate(280.6885 265.824594) scale(0.088 -0.088)">
       <defs>
        <path id="DejaVuSans-50" d="M 1259 4147 
L 1259 2394 
L 2053 2394 
Q 2494 2394 2734 2622 
Q 2975 2850 2975 3272 
Q 2975 3691 2734 3919 
Q 2494 4147 2053 4147 
L 1259 4147 
z
M 628 4666 
L 2053 4666 
Q 2838 4666 3239 4311 
Q 3641 3956 3641 3272 
Q 3641 2581 3239 2228 
Q 2838 1875 2053 1875 
L 1259 1875 
L 1259 0 
L 628 0 
L 628 4666 
z
" transform="scale(0.015625)"/>
        <path id="DejaVuSans-4d" d="M 628 4666 
L 1569 4666 
L 2759 1491 
L 3956 4666 
L 4897 4666 
L 4897 0 
L 4281 0 
L 4281 4097 
L 3078 897 
L 2444 897 
L 1241 4097 
L 1241 0 
L 628 0 
L 628 4666 
z
" transform="scale(0.015625)"/>
        <path id="DejaVuSans-49" d="M 628 4666 
L 1259 4666 
L 1259 0 
L 628 0 
L 628 4666 
z
" transform="scale(0.015625)"/>
       </defs>
       <use xlink:href="#DejaVuSans-50"/>
       <use xlink:href="#DejaVuSans-50" transform="translate(60.302734 0)"/>
       <use xlink:href="#DejaVuSans-4d" transform="translate(120.605469 0)"/>
       <use xlink:href="#DejaVuSans-49" transform="translate(206.884766 0)"/>
      </g>
     </g>
    </g>
   </g>
   <g id="matplotlib.axis_2">
    <g id="ytick_1">
     <g id="line2d_1">
      <path d="M 39.989 248.925243 
L 374.789 248.925243 
" clip-path="url(#p0a118af06f)" style="fill: none; stroke: #cccccc; stroke-width: 0.8; stroke-linecap: round"/>
     </g>
     <g id="text_3">
      <!-- 40 -->
      <g style="fill: #262626" transform="translate(20.491 252.268556) scale(0.088 -0.088)">
       <defs>
        <path id="DejaVuSans-34" d="M 2419 4116 
L 825 1625 
L 2419 1625 
L 2419 4116 
z
M 2253 4666 
L 3047 4666 
L 3047 1625 
L 3713 1625 
L 3713 1100 
L 3047 1100 
L 3047 0 
L 2419 0 
L 2419 1100 
L 313 1100 
L 313 1709 
L 2253 4666 
z
" transform="scale(0.015625)"/>
        <path id="DejaVuSans-30" d="M 2034 4250 
Q 1547 4250 1301 3770 
Q 1056 3291 1056 2328 
Q 1056 1369 1301 889 
Q 1547 409 2034 409 
Q 2525 409 2770 889 
Q 3016 1369 3016 2328 
Q 3016 3291 2770 3770 
Q 2525 4250 2034 4250 
z
M 2034 4750 
Q 2819 4750 3233 4129 
Q 3647 3509 3647 2328 
Q 3647 1150 3233 529 
Q 2819 -91 2034 -91 
Q 1250 -91 836 529 
Q 422 1150 422 2328 
Q 422 3509 836 4129 
Q 1250 4750 2034 4750 
z
" transform="scale(0.015625)"/>
       </defs>
       <use xlink:href="#DejaVuSans-34"/>
       <use xlink:href="#DejaVuSans-30" transform="translate(63.623047 0)"/>
      </g>
     </g>
    </g>
    <g id="ytick_2">
     <g id="line2d_2">
      <path d="M 39.989 202.551328 
L 374.789 202.551328 
" clip-path="url(#p0a118af06f)" style="fill: none; stroke: #cccccc; stroke-width: 0.8; stroke-linecap: round"/>
     </g>
     <g id="text_4">
      <!-- 50 -->
      <g style="fill: #262626" transform="translate(20.491 205.89464) scale(0.088 -0.088)">
       <defs>
        <path id="DejaVuSans-35" d="M 691 4666 
L 3169 4666 
L 3169 4134 
L 1269 4134 
L 1269 2991 
Q 1406 3038 1543 3061 
Q 1681 3084 1819 3084 
Q 2600 3084 3056 2656 
Q 3513 2228 3513 1497 
Q 3513 744 3044 326 
Q 2575 -91 1722 -91 
Q 1428 -91 1123 -41 
Q 819 9 494 109 
L 494 744 
Q 775 591 1075 516 
Q 1375 441 1709 441 
Q 2250 441 2565 725 
Q 2881 1009 2881 1497 
Q 2881 1984 2565 2268 
Q 2250 2553 1709 2553 
Q 1456 2553 1204 2497 
Q 953 2441 691 2322 
L 691 4666 
z
" transform="scale(0.015625)"/>
       </defs>
       <use xlink:href="#DejaVuSans-35"/>
       <use xlink:href="#DejaVuSans-30" transform="translate(63.623047 0)"/>
      </g>
     </g>
    </g>
    <g id="ytick_3">
     <g id="line2d_3">
      <path d="M 39.989 156.177412 
L 374.789 156.177412 
" clip-path="url(#p0a118af06f)" style="fill: none; stroke: #cccccc; stroke-width: 0.8; stroke-linecap: round"/>
     </g>
     <g id="text_5">
      <!-- 60 -->
      <g style="fill: #262626" transform="translate(20.491 159.520725) scale(0.088 -0.088)">
       <defs>
        <path id="DejaVuSans-36" d="M 2113 2584 
Q 1688 2584 1439 2293 
Q 1191 2003 1191 1497 
Q 1191 994 1439 701 
Q 1688 409 2113 409 
Q 2538 409 2786 701 
Q 3034 994 3034 1497 
Q 3034 2003 2786 2293 
Q 2538 2584 2113 2584 
z
M 3366 4563 
L 3366 3988 
Q 3128 4100 2886 4159 
Q 2644 4219 2406 4219 
Q 1781 4219 1451 3797 
Q 1122 3375 1075 2522 
Q 1259 2794 1537 2939 
Q 1816 3084 2150 3084 
Q 2853 3084 3261 2657 
Q 3669 2231 3669 1497 
Q 3669 778 3244 343 
Q 2819 -91 2113 -91 
Q 1303 -91 875 529 
Q 447 1150 447 2328 
Q 447 3434 972 4092 
Q 1497 4750 2381 4750 
Q 2619 4750 2861 4703 
Q 3103 4656 3366 4563 
z
" transform="scale(0.015625)"/>
       </defs>
       <use xlink:href="#DejaVuSans-36"/>
       <use xlink:href="#DejaVuSans-30" transform="translate(63.623047 0)"/>
      </g>
     </g>
    </g>
    <g id="ytick_4">
     <g id="line2d_4">
      <path d="M 39.989 109.803497 
L 374.789 109.803497 
" clip-path="url(#p0a118af06f)" style="fill: none; stroke: #cccccc; stroke-width: 0.8; stroke-linecap: round"/>
     </g>
     <g id="text_6">
      <!-- 70 -->
      <g style="fill: #262626" transform="translate(20.491 113.146809) scale(0.088 -0.088)">
       <defs>
        <path id="DejaVuSans-37" d="M 525 4666 
L 3525 4666 
L 3525 4397 
L 1831 0 
L 1172 0 
L 2766 4134 
L 525 4134 
L 525 4666 
z
" transform="scale(0.015625)"/>
       </defs>
       <use xlink:href="#DejaVuSans-37"/>
       <use xlink:href="#DejaVuSans-30" transform="translate(63.623047 0)"/>
      </g>
     </g>
    </g>
    <g id="ytick_5">
     <g id="line2d_5">
      <path d="M 39.989 63.429581 
L 374.789 63.429581 
" clip-path="url(#p0a118af06f)" style="fill: none; stroke: #cccccc; stroke-width: 0.8; stroke-linecap: round"/>
     </g>
     <g id="text_7">
      <!-- 80 -->
      <g style="fill: #262626" transform="translate(20.491 66.772894) scale(0.088 -0.088)">
       <defs>
        <path id="DejaVuSans-38" d="M 2034 2216 
Q 1584 2216 1326 1975 
Q 1069 1734 1069 1313 
Q 1069 891 1326 650 
Q 1584 409 2034 409 
Q 2484 409 2743 651 
Q 3003 894 3003 1313 
Q 3003 1734 2745 1975 
Q 2488 2216 2034 2216 
z
M 1403 2484 
Q 997 2584 770 2862 
Q 544 3141 544 3541 
Q 544 4100 942 4425 
Q 1341 4750 2034 4750 
Q 2731 4750 3128 4425 
Q 3525 4100 3525 3541 
Q 3525 3141 3298 2862 
Q 3072 2584 2669 2484 
Q 3125 2378 3379 2068 
Q 3634 1759 3634 1313 
Q 3634 634 3220 271 
Q 2806 -91 2034 -91 
Q 1263 -91 848 271 
Q 434 634 434 1313 
Q 434 1759 690 2068 
Q 947 2378 1403 2484 
z
M 1172 3481 
Q 1172 3119 1398 2916 
Q 1625 2713 2034 2713 
Q 2441 2713 2670 2916 
Q 2900 3119 2900 3481 
Q 2900 3844 2670 4047 
Q 2441 4250 2034 4250 
Q 1625 4250 1398 4047 
Q 1172 3844 1172 3481 
z
" transform="scale(0.015625)"/>
       </defs>
       <use xlink:href="#DejaVuSans-38"/>
       <use xlink:href="#DejaVuSans-30" transform="translate(63.623047 0)"/>
      </g>
     </g>
    </g>
    <g id="ytick_6"/>
    <g id="ytick_7"/>
    <g id="ytick_8"/>
    <g id="ytick_9"/>
    <g id="ytick_10"/>
    <g id="ytick_11"/>
    <g id="ytick_12"/>
    <g id="ytick_13"/>
    <g id="ytick_14"/>
    <g id="ytick_15"/>
    <g id="ytick_16"/>
    <g id="ytick_17"/>
    <g id="ytick_18"/>
    <g id="ytick_19"/>
    <g id="ytick_20"/>
    <g id="ytick_21"/>
    <g id="ytick_22"/>
    <g id="ytick_23"/>
    <g id="ytick_24"/>
    <g id="text_8">
     <!-- Age at Baseline -->
     <g style="fill: #262626" transform="translate(14.4945 177.467719) rotate(-90) scale(0.096 -0.096)">
      <defs>
       <path id="DejaVuSans-41" d="M 2188 4044 
L 1331 1722 
L 3047 1722 
L 2188 4044 
z
M 1831 4666 
L 2547 4666 
L 4325 0 
L 3669 0 
L 3244 1197 
L 1141 1197 
L 716 0 
L 50 0 
L 1831 4666 
z
" transform="scale(0.015625)"/>
       <path id="DejaVuSans-61" d="M 2194 1759 
Q 1497 1759 1228 1600 
Q 959 1441 959 1056 
Q 959 750 1161 570 
Q 1363 391 1709 391 
Q 2188 391 2477 730 
Q 2766 1069 2766 1631 
L 2766 1759 
L 2194 1759 
z
M 3341 1997 
L 3341 0 
L 2766 0 
L 2766 531 
Q 2569 213 2275 61 
Q 1981 -91 1556 -91 
Q 1019 -91 701 211 
Q 384 513 384 1019 
Q 384 1609 779 1909 
Q 1175 2209 1959 2209 
L 2766 2209 
L 2766 2266 
Q 2766 2663 2505 2880 
Q 2244 3097 1772 3097 
Q 1472 3097 1187 3025 
Q 903 2953 641 2809 
L 641 3341 
Q 956 3463 1253 3523 
Q 1550 3584 1831 3584 
Q 2591 3584 2966 3190 
Q 3341 2797 3341 1997 
z
" transform="scale(0.015625)"/>
       <path id="DejaVuSans-74" d="M 1172 4494 
L 1172 3500 
L 2356 3500 
L 2356 3053 
L 1172 3053 
L 1172 1153 
Q 1172 725 1289 603 
Q 1406 481 1766 481 
L 2356 481 
L 2356 0 
L 1766 0 
Q 1100 0 847 248 
Q 594 497 594 1153 
L 594 3053 
L 172 3053 
L 172 3500 
L 594 3500 
L 594 4494 
L 1172 4494 
z
" transform="scale(0.015625)"/>
       <path id="DejaVuSans-73" d="M 2834 3397 
L 2834 2853 
Q 2591 2978 2328 3040 
Q 2066 3103 1784 3103 
Q 1356 3103 1142 2972 
Q 928 2841 928 2578 
Q 928 2378 1081 2264 
Q 1234 2150 1697 2047 
L 1894 2003 
Q 2506 1872 2764 1633 
Q 3022 1394 3022 966 
Q 3022 478 2636 193 
Q 2250 -91 1575 -91 
Q 1294 -91 989 -36 
Q 684 19 347 128 
L 347 722 
Q 666 556 975 473 
Q 1284 391 1588 391 
Q 1994 391 2212 530 
Q 2431 669 2431 922 
Q 2431 1156 2273 1281 
Q 2116 1406 1581 1522 
L 1381 1569 
Q 847 1681 609 1914 
Q 372 2147 372 2553 
Q 372 3047 722 3315 
Q 1072 3584 1716 3584 
Q 2034 3584 2315 3537 
Q 2597 3491 2834 3397 
z
" transform="scale(0.015625)"/>
       <path id="DejaVuSans-6c" d="M 603 4863 
L 1178 4863 
L 1178 0 
L 603 0 
L 603 4863 
z
" transform="scale(0.015625)"/>
      </defs>
      <use xlink:href="#DejaVuSans-41"/>
      <use xlink:href="#DejaVuSans-67" transform="translate(68.408203 0)"/>
      <use xlink:href="#DejaVuSans-65" transform="translate(131.884766 0)"/>
      <use xlink:href="#DejaVuSans-20" transform="translate(193.408203 0)"/>
      <use xlink:href="#DejaVuSans-61" transform="translate(225.195312 0)"/>
      <use xlink:href="#DejaVuSans-74" transform="translate(286.474609 0)"/>
      <use xlink:href="#DejaVuSans-20" transform="translate(325.683594 0)"/>
      <use xlink:href="#DejaVuSans-42" transform="translate(357.470703 0)"/>
      <use xlink:href="#DejaVuSans-61" transform="translate(426.074219 0)"/>
      <use xlink:href="#DejaVuSans-73" transform="translate(487.353516 0)"/>
      <use xlink:href="#DejaVuSans-65" transform="translate(539.453125 0)"/>
      <use xlink:href="#DejaVuSans-6c" transform="translate(600.976562 0)"/>
      <use xlink:href="#DejaVuSans-69" transform="translate(628.759766 0)"/>
      <use xlink:href="#DejaVuSans-6e" transform="translate(656.542969 0)"/>
      <use xlink:href="#DejaVuSans-65" transform="translate(719.921875 0)"/>
     </g>
    </g>
   </g>
   <g id="patch_3">
    <path d="M 56.729 165.128435 
L 190.649 165.128435 
L 190.649 114.74243 
L 56.729 114.74243 
L 56.729 165.128435 
z
" clip-path="url(#p0a118af06f)" style="fill: #4c72b0; opacity: 0.3; stroke: #4c72b0; stroke-width: 1.5; stroke-linejoin: miter"/>
   </g>
   <g id="line2d_6">
    <path d="M 123.689 165.128435 
L 123.689 228.039524 
" clip-path="url(#p0a118af06f)" style="fill: none; stroke: #4c72b0; stroke-width: 1.2"/>
   </g>
   <g id="line2d_7">
    <path d="M 123.689 114.74243 
L 123.689 64.559569 
" clip-path="url(#p0a118af06f)" style="fill: none; stroke: #4c72b0; stroke-width: 1.2"/>
   </g>
   <g id="line2d_8">
    <path d="M 90.209 228.039524 
L 157.169 228.039524 
" clip-path="url(#p0a118af06f)" style="fill: none; stroke: #4c72b0; stroke-width: 1.2; stroke-linecap: round"/>
   </g>
   <g id="line2d_9">
    <path d="M 90.209 64.559569 
L 157.169 64.559569 
" clip-path="url(#p0a118af06f)" style="fill: none; stroke: #4c72b0; stroke-width: 1.2; stroke-linecap: round"/>
   </g>
   <g id="patch_4">
    <path d="M 224.129 171.248141 
L 358.049 171.248141 
L 358.049 114.628162 
L 224.129 114.628162 
L 224.129 171.248141 
z
" clip-path="url(#p0a118af06f)" style="fill: #4c72b0; opacity: 0.3; stroke: #4c72b0; stroke-width: 1.5; stroke-linejoin: miter"/>
   </g>
   <g id="line2d_10">
    <path d="M 291.089 171.248141 
L 291.089 230.375677 
" clip-path="url(#p0a118af06f)" style="fill: none; stroke: #4c72b0; stroke-width: 1.2"/>
   </g>
   <g id="line2d_11">
    <path d="M 291.089 114.628162 
L 291.089 76.595838 
" clip-path="url(#p0a118af06f)" style="fill: none; stroke: #4c72b0; stroke-width: 1.2"/>
   </g>
   <g id="line2d_12">
    <path d="M 257.609 230.375677 
L 324.569 230.375677 
" clip-path="url(#p0a118af06f)" style="fill: none; stroke: #4c72b0; stroke-width: 1.2; stroke-linecap: round"/>
   </g>
   <g id="line2d_13">
    <path d="M 257.609 76.595838 
L 324.569 76.595838 
" clip-path="url(#p0a118af06f)" style="fill: none; stroke: #4c72b0; stroke-width: 1.2; stroke-linecap: round"/>
   </g>
   <g id="line2d_14">
    <path d="M 56.729 140.319501 
L 190.649 140.319501 
" clip-path="url(#p0a118af06f)" style="fill: none; stroke: #4c72b0; stroke-width: 1.2"/>
   </g>
   <g id="line2d_15">
    <path d="M 224.129 141.106683 
L 358.049 141.106683 
" clip-path="url(#p0a118af06f)" style="fill: none; stroke: #4c72b0; stroke-width: 1.2"/>
   </g>
   <g id="patch_5">
    <path d="M 39.989 250.837969 
L 39.989 29.077969 
" style="fill: none; stroke: #cccccc; stroke-linejoin: miter; stroke-linecap: square"/>
   </g>
   <g id="patch_6">
    <path d="M 39.989 250.837969 
L 374.789 250.837969 
" style="fill: none; stroke: #cccccc; stroke-linejoin: miter; stroke-linecap: square"/>
   </g>
   <g id="PathCollection_1">
    <defs>
     <path id="m42cdda107b" d="M 0 1.5 
C 0.397805 1.5 0.77937 1.341951 1.06066 1.06066 
C 1.341951 0.77937 1.5 0.397805 1.5 0 
C 1.5 -0.397805 1.341951 -0.77937 1.06066 -1.06066 
C 0.77937 -1.341951 0.397805 -1.5 0 -1.5 
C -0.397805 -1.5 -0.77937 -1.341951 -1.06066 -1.06066 
C -1.341951 -0.77937 -1.5 -0.397805 -1.5 0 
C -1.5 0.397805 -1.341951 0.77937 -1.06066 1.06066 
C -0.77937 1.341951 -0.397805 1.5 0 1.5 
z
"/>
    </defs>
    <g clip-path="url(#p0a118af06f)">
     <use xlink:href="#m42cdda107b" x="135.124879" y="132.815878" style="fill: #4c72b0; fill-opacity: 0.6"/>
     <use xlink:href="#m42cdda107b" x="121.359177" y="164.036537" style="fill: #4c72b0; fill-opacity: 0.6"/>
     <use xlink:href="#m42cdda107b" x="130.642854" y="101.023877" style="fill: #4c72b0; fill-opacity: 0.6"/>
     <use xlink:href="#m42cdda107b" x="132.725078" y="144.522038" style="fill: #4c72b0; fill-opacity: 0.6"/>
     <use xlink:href="#m42cdda107b" x="110.569673" y="134.529904" style="fill: #4c72b0; fill-opacity: 0.6"/>
     <use xlink:href="#m42cdda107b" x="93.17834" y="198.342443" style="fill: #4c72b0; fill-opacity: 0.6"/>
     <use xlink:href="#m42cdda107b" x="143.216225" y="162.779585" style="fill: #4c72b0; fill-opacity: 0.6"/>
     <use xlink:href="#m42cdda107b" x="138.349495" y="145.118773" style="fill: #4c72b0; fill-opacity: 0.6"/>
     <use xlink:href="#m42cdda107b" x="147.483743" y="64.559569" style="fill: #4c72b0; fill-opacity: 0.6"/>
     <use xlink:href="#m42cdda107b" x="109.856388" y="131.25421" style="fill: #4c72b0; fill-opacity: 0.6"/>
     <use xlink:href="#m42cdda107b" x="97.664369" y="93.710701" style="fill: #4c72b0; fill-opacity: 0.6"/>
     <use xlink:href="#m42cdda107b" x="136.072008" y="158.437387" style="fill: #4c72b0; fill-opacity: 0.6"/>
     <use xlink:href="#m42cdda107b" x="132.502239" y="114.38058" style="fill: #4c72b0; fill-opacity: 0.6"/>
     <use xlink:href="#m42cdda107b" x="102.252962" y="160.81163" style="fill: #4c72b0; fill-opacity: 0.6"/>
     <use xlink:href="#m42cdda107b" x="142.284288" y="129.1212" style="fill: #4c72b0; fill-opacity: 0.6"/>
     <use xlink:href="#m42cdda107b" x="145.720032" y="108.629072" style="fill: #4c72b0; fill-opacity: 0.6"/>
     <use xlink:href="#m42cdda107b" x="132.077316" y="140.319501" style="fill: #4c72b0; fill-opacity: 0.6"/>
     <use xlink:href="#m42cdda107b" x="90.736454" y="190.978481" style="fill: #4c72b0; fill-opacity: 0.6"/>
     <use xlink:href="#m42cdda107b" x="130.443729" y="182.840033" style="fill: #4c72b0; fill-opacity: 0.6"/>
     <use xlink:href="#m42cdda107b" x="150.307309" y="127.96582" style="fill: #4c72b0; fill-opacity: 0.6"/>
     <use xlink:href="#m42cdda107b" x="106.059074" y="141.881169" style="fill: #4c72b0; fill-opacity: 0.6"/>
     <use xlink:href="#m42cdda107b" x="134.614163" y="84.277212" style="fill: #4c72b0; fill-opacity: 0.6"/>
     <use xlink:href="#m42cdda107b" x="91.835989" y="228.039524" style="fill: #4c72b0; fill-opacity: 0.6"/>
     <use xlink:href="#m42cdda107b" x="133.21907" y="241.967569" style="fill: #4c72b0; fill-opacity: 0.6"/>
     <use xlink:href="#m42cdda107b" x="97.893963" y="145.728204" style="fill: #4c72b0; fill-opacity: 0.6"/>
     <use xlink:href="#m42cdda107b" x="140.046222" y="146.896281" style="fill: #4c72b0; fill-opacity: 0.6"/>
     <use xlink:href="#m42cdda107b" x="141.98807" y="127.597622" style="fill: #4c72b0; fill-opacity: 0.6"/>
     <use xlink:href="#m42cdda107b" x="107.845199" y="131.063763" style="fill: #4c72b0; fill-opacity: 0.6"/>
     <use xlink:href="#m42cdda107b" x="111.045388" y="161.205221" style="fill: #4c72b0; fill-opacity: 0.6"/>
     <use xlink:href="#m42cdda107b" x="136.549311" y="93.164752" style="fill: #4c72b0; fill-opacity: 0.6"/>
     <use xlink:href="#m42cdda107b" x="97.827209" y="127.178638" style="fill: #4c72b0; fill-opacity: 0.6"/>
     <use xlink:href="#m42cdda107b" x="128.071614" y="167.756608" style="fill: #4c72b0; fill-opacity: 0.6"/>
     <use xlink:href="#m42cdda107b" x="126.289824" y="110.19074" style="fill: #4c72b0; fill-opacity: 0.6"/>
     <use xlink:href="#m42cdda107b" x="119.176372" y="133.38722" style="fill: #4c72b0; fill-opacity: 0.6"/>
     <use xlink:href="#m42cdda107b" x="138.379223" y="176.669541" style="fill: #4c72b0; fill-opacity: 0.6"/>
     <use xlink:href="#m42cdda107b" x="110.369113" y="166.220333" style="fill: #4c72b0; fill-opacity: 0.6"/>
     <use xlink:href="#m42cdda107b" x="117.391835" y="151.924089" style="fill: #4c72b0; fill-opacity: 0.6"/>
     <use xlink:href="#m42cdda107b" x="149.511901" y="103.994855" style="fill: #4c72b0; fill-opacity: 0.6"/>
     <use xlink:href="#m42cdda107b" x="104.986787" y="213.349689" style="fill: #4c72b0; fill-opacity: 0.6"/>
     <use xlink:href="#m42cdda107b" x="111.502828" y="163.503285" style="fill: #4c72b0; fill-opacity: 0.6"/>
     <use xlink:href="#m42cdda107b" x="91.901151" y="212.994188" style="fill: #4c72b0; fill-opacity: 0.6"/>
     <use xlink:href="#m42cdda107b" x="120.725329" y="181.697349" style="fill: #4c72b0; fill-opacity: 0.6"/>
     <use xlink:href="#m42cdda107b" x="104.02022" y="172.809809" style="fill: #4c72b0; fill-opacity: 0.6"/>
     <use xlink:href="#m42cdda107b" x="155.458176" y="126.404152" style="fill: #4c72b0; fill-opacity: 0.6"/>
     <use xlink:href="#m42cdda107b" x="143.416209" y="119.07828" style="fill: #4c72b0; fill-opacity: 0.6"/>
     <use xlink:href="#m42cdda107b" x="136.968049" y="109.416254" style="fill: #4c72b0; fill-opacity: 0.6"/>
     <use xlink:href="#m42cdda107b" x="110.682263" y="139.189514" style="fill: #4c72b0; fill-opacity: 0.6"/>
     <use xlink:href="#m42cdda107b" x="128.456391" y="89.190752" style="fill: #4c72b0; fill-opacity: 0.6"/>
     <use xlink:href="#m42cdda107b" x="117.094202" y="140.319501" style="fill: #4c72b0; fill-opacity: 0.6"/>
     <use xlink:href="#m42cdda107b" x="114.656529" y="99.38603" style="fill: #4c72b0; fill-opacity: 0.6"/>
     <use xlink:href="#m42cdda107b" x="90.925167" y="162.741496" style="fill: #4c72b0; fill-opacity: 0.6"/>
     <use xlink:href="#m42cdda107b" x="93.86396" y="73.117" style="fill: #4c72b0; fill-opacity: 0.6"/>
     <use xlink:href="#m42cdda107b" x="112.65742" y="199.9422" style="fill: #4c72b0; fill-opacity: 0.6"/>
     <use xlink:href="#m42cdda107b" x="106.171062" y="115.10428" style="fill: #4c72b0; fill-opacity: 0.6"/>
     <use xlink:href="#m42cdda107b" x="124.925529" y="193.416206" style="fill: #4c72b0; fill-opacity: 0.6"/>
     <use xlink:href="#m42cdda107b" x="141.65899" y="109.771756" style="fill: #4c72b0; fill-opacity: 0.6"/>
     <use xlink:href="#m42cdda107b" x="147.337844" y="186.763247" style="fill: #4c72b0; fill-opacity: 0.6"/>
     <use xlink:href="#m42cdda107b" x="138.228213" y="137.653239" style="fill: #4c72b0; fill-opacity: 0.6"/>
     <use xlink:href="#m42cdda107b" x="116.234067" y="86.765723" style="fill: #4c72b0; fill-opacity: 0.6"/>
     <use xlink:href="#m42cdda107b" x="146.275919" y="85.838879" style="fill: #4c72b0; fill-opacity: 0.6"/>
     <use xlink:href="#m42cdda107b" x="120.209573" y="151.619374" style="fill: #4c72b0; fill-opacity: 0.6"/>
     <use xlink:href="#m42cdda107b" x="112.155263" y="178.281995" style="fill: #4c72b0; fill-opacity: 0.6"/>
     <use xlink:href="#m42cdda107b" x="116.638585" y="153.015987" style="fill: #4c72b0; fill-opacity: 0.6"/>
    </g>
   </g>
   <g id="PathCollection_2">
    <g clip-path="url(#p0a118af06f)">
     <use xlink:href="#m42cdda107b" x="323.331303" y="151.543195" style="fill: #4c72b0; fill-opacity: 0.6"/>
     <use xlink:href="#m42cdda107b" x="304.302015" y="169.318275" style="fill: #4c72b0; fill-opacity: 0.6"/>
     <use xlink:href="#m42cdda107b" x="271.318478" y="107.867283" style="fill: #4c72b0; fill-opacity: 0.6"/>
     <use xlink:href="#m42cdda107b" x="263.658246" y="143.43014" style="fill: #4c72b0; fill-opacity: 0.6"/>
     <use xlink:href="#m42cdda107b" x="281.752305" y="130.695565" style="fill: #4c72b0; fill-opacity: 0.6"/>
     <use xlink:href="#m42cdda107b" x="305.329922" y="180.910167" style="fill: #4c72b0; fill-opacity: 0.6"/>
     <use xlink:href="#m42cdda107b" x="274.194808" y="178.967605" style="fill: #4c72b0; fill-opacity: 0.6"/>
     <use xlink:href="#m42cdda107b" x="308.046945" y="146.908977" style="fill: #4c72b0; fill-opacity: 0.6"/>
     <use xlink:href="#m42cdda107b" x="309.861336" y="76.595838" style="fill: #4c72b0; fill-opacity: 0.6"/>
     <use xlink:href="#m42cdda107b" x="283.152893" y="117.910203" style="fill: #4c72b0; fill-opacity: 0.6"/>
     <use xlink:href="#m42cdda107b" x="259.908812" y="112.120606" style="fill: #4c72b0; fill-opacity: 0.6"/>
     <use xlink:href="#m42cdda107b" x="259.508861" y="173.952493" style="fill: #4c72b0; fill-opacity: 0.6"/>
     <use xlink:href="#m42cdda107b" x="306.724074" y="111.371513" style="fill: #4c72b0; fill-opacity: 0.6"/>
     <use xlink:href="#m42cdda107b" x="318.890263" y="160.024448" style="fill: #4c72b0; fill-opacity: 0.6"/>
     <use xlink:href="#m42cdda107b" x="289.188028" y="125.642363" style="fill: #4c72b0; fill-opacity: 0.6"/>
     <use xlink:href="#m42cdda107b" x="295.501321" y="100.528714" style="fill: #4c72b0; fill-opacity: 0.6"/>
     <use xlink:href="#m42cdda107b" x="303.819641" y="138.376939" style="fill: #4c72b0; fill-opacity: 0.6"/>
     <use xlink:href="#m42cdda107b" x="315.09764" y="184.769899" style="fill: #4c72b0; fill-opacity: 0.6"/>
     <use xlink:href="#m42cdda107b" x="319.272756" y="189.416813" style="fill: #4c72b0; fill-opacity: 0.6"/>
     <use xlink:href="#m42cdda107b" x="261.252862" y="127.597622" style="fill: #4c72b0; fill-opacity: 0.6"/>
     <use xlink:href="#m42cdda107b" x="293.448822" y="141.106683" style="fill: #4c72b0; fill-opacity: 0.6"/>
     <use xlink:href="#m42cdda107b" x="262.521558" y="84.670803" style="fill: #4c72b0; fill-opacity: 0.6"/>
     <use xlink:href="#m42cdda107b" x="290.677234" y="223.82429" style="fill: #4c72b0; fill-opacity: 0.6"/>
     <use xlink:href="#m42cdda107b" x="294.49077" y="230.375677" style="fill: #4c72b0; fill-opacity: 0.6"/>
     <use xlink:href="#m42cdda107b" x="262.63397" y="145.740901" style="fill: #4c72b0; fill-opacity: 0.6"/>
     <use xlink:href="#m42cdda107b" x="271.2718" y="157.73908" style="fill: #4c72b0; fill-opacity: 0.6"/>
     <use xlink:href="#m42cdda107b" x="288.787883" y="124.106088" style="fill: #4c72b0; fill-opacity: 0.6"/>
     <use xlink:href="#m42cdda107b" x="292.42834" y="128.346715" style="fill: #4c72b0; fill-opacity: 0.6"/>
     <use xlink:href="#m42cdda107b" x="263.277339" y="162.347905" style="fill: #4c72b0; fill-opacity: 0.6"/>
     <use xlink:href="#m42cdda107b" x="320.737064" y="86.613365" style="fill: #4c72b0; fill-opacity: 0.6"/>
     <use xlink:href="#m42cdda107b" x="283.554892" y="129.514792" style="fill: #4c72b0; fill-opacity: 0.6"/>
     <use xlink:href="#m42cdda107b" x="315.802641" y="166.969425" style="fill: #4c72b0; fill-opacity: 0.6"/>
     <use xlink:href="#m42cdda107b" x="308.688763" y="109.022663" style="fill: #4c72b0; fill-opacity: 0.6"/>
     <use xlink:href="#m42cdda107b" x="258.973043" y="133.38722" style="fill: #4c72b0; fill-opacity: 0.6"/>
     <use xlink:href="#m42cdda107b" x="290.326859" y="179.361196" style="fill: #4c72b0; fill-opacity: 0.6"/>
     <use xlink:href="#m42cdda107b" x="270.482945" y="166.982122" style="fill: #4c72b0; fill-opacity: 0.6"/>
     <use xlink:href="#m42cdda107b" x="297.645947" y="150.768709" style="fill: #4c72b0; fill-opacity: 0.6"/>
     <use xlink:href="#m42cdda107b" x="323.619213" y="106.724599" style="fill: #4c72b0; fill-opacity: 0.6"/>
     <use xlink:href="#m42cdda107b" x="299.979674" y="219.977255" style="fill: #4c72b0; fill-opacity: 0.6"/>
     <use xlink:href="#m42cdda107b" x="285.666649" y="157.700991" style="fill: #4c72b0; fill-opacity: 0.6"/>
     <use xlink:href="#m42cdda107b" x="284.309158" y="212.600596" style="fill: #4c72b0; fill-opacity: 0.6"/>
     <use xlink:href="#m42cdda107b" x="291.785904" y="183.627215" style="fill: #4c72b0; fill-opacity: 0.6"/>
     <use xlink:href="#m42cdda107b" x="271.071849" y="173.178007" style="fill: #4c72b0; fill-opacity: 0.6"/>
     <use xlink:href="#m42cdda107b" x="306.874558" y="131.812856" style="fill: #4c72b0; fill-opacity: 0.6"/>
     <use xlink:href="#m42cdda107b" x="308.109809" y="120.601858" style="fill: #4c72b0; fill-opacity: 0.6"/>
     <use xlink:href="#m42cdda107b" x="271.047625" y="107.879979" style="fill: #4c72b0; fill-opacity: 0.6"/>
     <use xlink:href="#m42cdda107b" x="317.311875" y="138.795923" style="fill: #4c72b0; fill-opacity: 0.6"/>
     <use xlink:href="#m42cdda107b" x="300.377918" y="80.811071" style="fill: #4c72b0; fill-opacity: 0.6"/>
     <use xlink:href="#m42cdda107b" x="260.241393" y="128.753002" style="fill: #4c72b0; fill-opacity: 0.6"/>
     <use xlink:href="#m42cdda107b" x="276.624675" y="99.779621" style="fill: #4c72b0; fill-opacity: 0.6"/>
     <use xlink:href="#m42cdda107b" x="260.94604" y="152.685879" style="fill: #4c72b0; fill-opacity: 0.6"/>
     <use xlink:href="#m42cdda107b" x="262.233316" y="96.288087" style="fill: #4c72b0; fill-opacity: 0.6"/>
     <use xlink:href="#m42cdda107b" x="316.676457" y="203.713056" style="fill: #4c72b0; fill-opacity: 0.6"/>
     <use xlink:href="#m42cdda107b" x="298.60945" y="117.161111" style="fill: #4c72b0; fill-opacity: 0.6"/>
     <use xlink:href="#m42cdda107b" x="267.053024" y="188.248736" style="fill: #4c72b0; fill-opacity: 0.6"/>
     <use xlink:href="#m42cdda107b" x="313.090034" y="114.037775" style="fill: #4c72b0; fill-opacity: 0.6"/>
     <use xlink:href="#m42cdda107b" x="285.216587" y="197.542564" style="fill: #4c72b0; fill-opacity: 0.6"/>
     <use xlink:href="#m42cdda107b" x="324.462778" y="115.218548" style="fill: #4c72b0; fill-opacity: 0.6"/>
     <use xlink:href="#m42cdda107b" x="299.539091" y="88.936822" style="fill: #4c72b0; fill-opacity: 0.6"/>
     <use xlink:href="#m42cdda107b" x="287.46632" y="80.036585" style="fill: #4c72b0; fill-opacity: 0.6"/>
     <use xlink:href="#m42cdda107b" x="275.217287" y="149.600633" style="fill: #4c72b0; fill-opacity: 0.6"/>
     <use xlink:href="#m42cdda107b" x="289.249499" y="197.136276" style="fill: #4c72b0; fill-opacity: 0.6"/>
     <use xlink:href="#m42cdda107b" x="259.062746" y="143.43014" style="fill: #4c72b0; fill-opacity: 0.6"/>
    </g>
   </g>
   <g id="text_9">
    <!-- Age at Baseline — N(custom=63, ppmi=63, paired=63) -->
    <g style="fill: #262626" transform="translate(39.989 17.077969) scale(0.13 -0.13)">
     <defs>
      <path id="DejaVuSans-2014" d="M 313 1978 
L 6088 1978 
L 6088 1528 
L 313 1528 
L 313 1978 
z
" transform="scale(0.015625)"/>
      <path id="DejaVuSans-4e" d="M 628 4666 
L 1478 4666 
L 3547 763 
L 3547 4666 
L 4159 4666 
L 4159 0 
L 3309 0 
L 1241 3903 
L 1241 0 
L 628 0 
L 628 4666 
z
" transform="scale(0.015625)"/>
      <path id="DejaVuSans-28" d="M 1984 4856 
Q 1566 4138 1362 3434 
Q 1159 2731 1159 2009 
Q 1159 1288 1364 580 
Q 1569 -128 1984 -844 
L 1484 -844 
Q 1016 -109 783 600 
Q 550 1309 550 2009 
Q 550 2706 781 3412 
Q 1013 4119 1484 4856 
L 1984 4856 
z
" transform="scale(0.015625)"/>
      <path id="DejaVuSans-63" d="M 3122 3366 
L 3122 2828 
Q 2878 2963 2633 3030 
Q 2388 3097 2138 3097 
Q 1578 3097 1268 2742 
Q 959 2388 959 1747 
Q 959 1106 1268 751 
Q 1578 397 2138 397 
Q 2388 397 2633 464 
Q 2878 531 3122 666 
L 3122 134 
Q 2881 22 2623 -34 
Q 2366 -91 2075 -91 
Q 1284 -91 818 406 
Q 353 903 353 1747 
Q 353 2603 823 3093 
Q 1294 3584 2113 3584 
Q 2378 3584 2631 3529 
Q 2884 3475 3122 3366 
z
" transform="scale(0.015625)"/>
      <path id="DejaVuSans-75" d="M 544 1381 
L 544 3500 
L 1119 3500 
L 1119 1403 
Q 1119 906 1312 657 
Q 1506 409 1894 409 
Q 2359 409 2629 706 
Q 2900 1003 2900 1516 
L 2900 3500 
L 3475 3500 
L 3475 0 
L 2900 0 
L 2900 538 
Q 2691 219 2414 64 
Q 2138 -91 1772 -91 
Q 1169 -91 856 284 
Q 544 659 544 1381 
z
M 1991 3584 
L 1991 3584 
z
" transform="scale(0.015625)"/>
      <path id="DejaVuSans-6f" d="M 1959 3097 
Q 1497 3097 1228 2736 
Q 959 2375 959 1747 
Q 959 1119 1226 758 
Q 1494 397 1959 397 
Q 2419 397 2687 759 
Q 2956 1122 2956 1747 
Q 2956 2369 2687 2733 
Q 2419 3097 1959 3097 
z
M 1959 3584 
Q 2709 3584 3137 3096 
Q 3566 2609 3566 1747 
Q 3566 888 3137 398 
Q 2709 -91 1959 -91 
Q 1206 -91 779 398 
Q 353 888 353 1747 
Q 353 2609 779 3096 
Q 1206 3584 1959 3584 
z
" transform="scale(0.015625)"/>
      <path id="DejaVuSans-6d" d="M 3328 2828 
Q 3544 3216 3844 3400 
Q 4144 3584 4550 3584 
Q 5097 3584 5394 3201 
Q 5691 2819 5691 2113 
L 5691 0 
L 5113 0 
L 5113 2094 
Q 5113 2597 4934 2840 
Q 4756 3084 4391 3084 
Q 3944 3084 3684 2787 
Q 3425 2491 3425 1978 
L 3425 0 
L 2847 0 
L 2847 2094 
Q 2847 2600 2669 2842 
Q 2491 3084 2119 3084 
Q 1678 3084 1418 2786 
Q 1159 2488 1159 1978 
L 1159 0 
L 581 0 
L 581 3500 
L 1159 3500 
L 1159 2956 
Q 1356 3278 1631 3431 
Q 1906 3584 2284 3584 
Q 2666 3584 2933 3390 
Q 3200 3197 3328 2828 
z
" transform="scale(0.015625)"/>
      <path id="DejaVuSans-3d" d="M 678 2906 
L 4684 2906 
L 4684 2381 
L 678 2381 
L 678 2906 
z
M 678 1631 
L 4684 1631 
L 4684 1100 
L 678 1100 
L 678 1631 
z
" transform="scale(0.015625)"/>
      <path id="DejaVuSans-33" d="M 2597 2516 
Q 3050 2419 3304 2112 
Q 3559 1806 3559 1356 
Q 3559 666 3084 287 
Q 2609 -91 1734 -91 
Q 1441 -91 1130 -33 
Q 819 25 488 141 
L 488 750 
Q 750 597 1062 519 
Q 1375 441 1716 441 
Q 2309 441 2620 675 
Q 2931 909 2931 1356 
Q 2931 1769 2642 2001 
Q 2353 2234 1838 2234 
L 1294 2234 
L 1294 2753 
L 1863 2753 
Q 2328 2753 2575 2939 
Q 2822 3125 2822 3475 
Q 2822 3834 2567 4026 
Q 2313 4219 1838 4219 
Q 1578 4219 1281 4162 
Q 984 4106 628 3988 
L 628 4550 
Q 988 4650 1302 4700 
Q 1616 4750 1894 4750 
Q 2613 4750 3031 4423 
Q 3450 4097 3450 3541 
Q 3450 3153 3228 2886 
Q 3006 2619 2597 2516 
z
" transform="scale(0.015625)"/>
      <path id="DejaVuSans-2c" d="M 750 794 
L 1409 794 
L 1409 256 
L 897 -744 
L 494 -744 
L 750 256 
L 750 794 
z
" transform="scale(0.015625)"/>
      <path id="DejaVuSans-70" d="M 1159 525 
L 1159 -1331 
L 581 -1331 
L 581 3500 
L 1159 3500 
L 1159 2969 
Q 1341 3281 1617 3432 
Q 1894 3584 2278 3584 
Q 2916 3584 3314 3078 
Q 3713 2572 3713 1747 
Q 3713 922 3314 415 
Q 2916 -91 2278 -91 
Q 1894 -91 1617 61 
Q 1341 213 1159 525 
z
M 3116 1747 
Q 3116 2381 2855 2742 
Q 2594 3103 2138 3103 
Q 1681 3103 1420 2742 
Q 1159 2381 1159 1747 
Q 1159 1113 1420 752 
Q 1681 391 2138 391 
Q 2594 391 2855 752 
Q 3116 1113 3116 1747 
z
" transform="scale(0.015625)"/>
      <path id="DejaVuSans-72" d="M 2631 2963 
Q 2534 3019 2420 3045 
Q 2306 3072 2169 3072 
Q 1681 3072 1420 2755 
Q 1159 2438 1159 1844 
L 1159 0 
L 581 0 
L 581 3500 
L 1159 3500 
L 1159 2956 
Q 1341 3275 1631 3429 
Q 1922 3584 2338 3584 
Q 2397 3584 2469 3576 
Q 2541 3569 2628 3553 
L 2631 2963 
z
" transform="scale(0.015625)"/>
      <path id="DejaVuSans-64" d="M 2906 2969 
L 2906 4863 
L 3481 4863 
L 3481 0 
L 2906 0 
L 2906 525 
Q 2725 213 2448 61 
Q 2172 -91 1784 -91 
Q 1150 -91 751 415 
Q 353 922 353 1747 
Q 353 2572 751 3078 
Q 1150 3584 1784 3584 
Q 2172 3584 2448 3432 
Q 2725 3281 2906 2969 
z
M 947 1747 
Q 947 1113 1208 752 
Q 1469 391 1925 391 
Q 2381 391 2643 752 
Q 2906 1113 2906 1747 
Q 2906 2381 2643 2742 
Q 2381 3103 1925 3103 
Q 1469 3103 1208 2742 
Q 947 2381 947 1747 
z
" transform="scale(0.015625)"/>
      <path id="DejaVuSans-29" d="M 513 4856 
L 1013 4856 
Q 1481 4119 1714 3412 
Q 1947 2706 1947 2009 
Q 1947 1309 1714 600 
Q 1481 -109 1013 -844 
L 513 -844 
Q 928 -128 1133 580 
Q 1338 1288 1338 2009 
Q 1338 2731 1133 3434 
Q 928 4138 513 4856 
z
" transform="scale(0.015625)"/>
     </defs>
     <use xlink:href="#DejaVuSans-41"/>
     <use xlink:href="#DejaVuSans-67" transform="translate(68.408203 0)"/>
     <use xlink:href="#DejaVuSans-65" transform="translate(131.884766 0)"/>
     <use xlink:href="#DejaVuSans-20" transform="translate(193.408203 0)"/>
     <use xlink:href="#DejaVuSans-61" transform="translate(225.195312 0)"/>
     <use xlink:href="#DejaVuSans-74" transform="translate(286.474609 0)"/>
     <use xlink:href="#DejaVuSans-20" transform="translate(325.683594 0)"/>
     <use xlink:href="#DejaVuSans-42" transform="translate(357.470703 0)"/>
     <use xlink:href="#DejaVuSans-61" transform="translate(426.074219 0)"/>
     <use xlink:href="#DejaVuSans-73" transform="translate(487.353516 0)"/>
     <use xlink:href="#DejaVuSans-65" transform="translate(539.453125 0)"/>
     <use xlink:href="#DejaVuSans-6c" transform="translate(600.976562 0)"/>
     <use xlink:href="#DejaVuSans-69" transform="translate(628.759766 0)"/>
     <use xlink:href="#DejaVuSans-6e" transform="translate(656.542969 0)"/>
     <use xlink:href="#DejaVuSans-65" transform="translate(719.921875 0)"/>
     <use xlink:href="#DejaVuSans-20" transform="translate(781.445312 0)"/>
     <use xlink:href="#DejaVuSans-2014" transform="translate(813.232422 0)"/>
     <use xlink:href="#DejaVuSans-20" transform="translate(913.232422 0)"/>
     <use xlink:href="#DejaVuSans-4e" transform="translate(945.019531 0)"/>
     <use xlink:href="#DejaVuSans-28" transform="translate(1019.824219 0)"/>
     <use xlink:href="#DejaVuSans-63" transform="translate(1058.837891 0)"/>
     <use xlink:href="#DejaVuSans-75" transform="translate(1113.818359 0)"/>
     <use xlink:href="#DejaVuSans-73" transform="translate(1177.197266 0)"/>
     <use xlink:href="#DejaVuSans-74" transform="translate(1229.296875 0)"/>
     <use xlink:href="#DejaVuSans-6f" transform="translate(1268.505859 0)"/>
     <use xlink:href="#DejaVuSans-6d" transform="translate(1329.6875 0)"/>
     <use xlink:href="#DejaVuSans-3d" transform="translate(1427.099609 0)"/>
     <use xlink:href="#DejaVuSans-36" transform="translate(1510.888672 0)"/>
     <use xlink:href="#DejaVuSans-33" transform="translate(1574.511719 0)"/>
     <use xlink:href="#DejaVuSans-2c" transform="translate(1638.134766 0)"/>
     <use xlink:href="#DejaVuSans-20" transform="translate(1669.921875 0)"/>
     <use xlink:href="#DejaVuSans-70" transform="translate(1701.708984 0)"/>
     <use xlink:href="#DejaVuSans-70" transform="translate(1765.185547 0)"/>
     <use xlink:href="#DejaVuSans-6d" transform="translate(1828.662109 0)"/>
     <use xlink:href="#DejaVuSans-69" transform="translate(1926.074219 0)"/>
     <use xlink:href="#DejaVuSans-3d" transform="translate(1953.857422 0)"/>
     <use xlink:href="#DejaVuSans-36" transform="translate(2037.646484 0)"/>
     <use xlink:href="#DejaVuSans-33" transform="translate(2101.269531 0)"/>
     <use xlink:href="#DejaVuSans-2c" transform="translate(2164.892578 0)"/>
     <use xlink:href="#DejaVuSans-20" transform="translate(2196.679688 0)"/>
     <use xlink:href="#DejaVuSans-70" transform="translate(2228.466797 0)"/>
     <use xlink:href="#DejaVuSans-61" transform="translate(2291.943359 0)"/>
     <use xlink:href="#DejaVuSans-69" transform="translate(2353.222656 0)"/>
     <use xlink:href="#DejaVuSans-72" transform="translate(2381.005859 0)"/>
     <use xlink:href="#DejaVuSans-65" transform="translate(2419.869141 0)"/>
     <use xlink:href="#DejaVuSans-64" transform="translate(2481.392578 0)"/>
     <use xlink:href="#DejaVuSans-3d" transform="translate(2544.869141 0)"/>
     <use xlink:href="#DejaVuSans-36" transform="translate(2628.658203 0)"/>
     <use xlink:href="#DejaVuSans-33" transform="translate(2692.28125 0)"/>
     <use xlink:href="#DejaVuSans-29" transform="translate(2755.904297 0)"/>
    </g>
   </g>
   <g id="text_10">
    <g id="patch_7">
     <path d="M 265.786906 58.536712 
L 368.093 58.536712 
Q 369.893 58.536712 369.893 56.736712 
L 369.893 37.948369 
Q 369.893 36.148369 368.093 36.148369 
L 265.786906 36.148369 
Q 263.986906 36.148369 263.986906 37.948369 
L 263.986906 56.736712 
Q 263.986906 58.536712 265.786906 58.536712 
z
" style="fill: #ffffff; opacity: 0.75"/>
    </g>
    <!-- Welch p = 0.948 -->
    <g style="fill: #262626" transform="translate(293.430969 44.786962) scale(0.09 -0.09)">
     <defs>
      <path id="DejaVuSans-57" d="M 213 4666 
L 850 4666 
L 1831 722 
L 2809 4666 
L 3519 4666 
L 4500 722 
L 5478 4666 
L 6119 4666 
L 4947 0 
L 4153 0 
L 3169 4050 
L 2175 0 
L 1381 0 
L 213 4666 
z
" transform="scale(0.015625)"/>
      <path id="DejaVuSans-68" d="M 3513 2113 
L 3513 0 
L 2938 0 
L 2938 2094 
Q 2938 2591 2744 2837 
Q 2550 3084 2163 3084 
Q 1697 3084 1428 2787 
Q 1159 2491 1159 1978 
L 1159 0 
L 581 0 
L 581 4863 
L 1159 4863 
L 1159 2956 
Q 1366 3272 1645 3428 
Q 1925 3584 2291 3584 
Q 2894 3584 3203 3211 
Q 3513 2838 3513 2113 
z
" transform="scale(0.015625)"/>
      <path id="DejaVuSans-2e" d="M 684 794 
L 1344 794 
L 1344 0 
L 684 0 
L 684 794 
z
" transform="scale(0.015625)"/>
      <path id="DejaVuSans-39" d="M 703 97 
L 703 672 
Q 941 559 1184 500 
Q 1428 441 1663 441 
Q 2288 441 2617 861 
Q 2947 1281 2994 2138 
Q 2813 1869 2534 1725 
Q 2256 1581 1919 1581 
Q 1219 1581 811 2004 
Q 403 2428 403 3163 
Q 403 3881 828 4315 
Q 1253 4750 1959 4750 
Q 2769 4750 3195 4129 
Q 3622 3509 3622 2328 
Q 3622 1225 3098 567 
Q 2575 -91 1691 -91 
Q 1453 -91 1209 -44 
Q 966 3 703 97 
z
M 1959 2075 
Q 2384 2075 2632 2365 
Q 2881 2656 2881 3163 
Q 2881 3666 2632 3958 
Q 2384 4250 1959 4250 
Q 1534 4250 1286 3958 
Q 1038 3666 1038 3163 
Q 1038 2656 1286 2365 
Q 1534 2075 1959 2075 
z
" transform="scale(0.015625)"/>
     </defs>
     <use xlink:href="#DejaVuSans-57"/>
     <use xlink:href="#DejaVuSans-65" transform="translate(93.001953 0)"/>
     <use xlink:href="#DejaVuSans-6c" transform="translate(154.525391 0)"/>
     <use xlink:href="#DejaVuSans-63" transform="translate(182.308594 0)"/>
     <use xlink:href="#DejaVuSans-68" transform="translate(237.289062 0)"/>
     <use xlink:href="#DejaVuSans-20" transform="translate(300.667969 0)"/>
     <use xlink:href="#DejaVuSans-70" transform="translate(332.455078 0)"/>
     <use xlink:href="#DejaVuSans-20" transform="translate(395.931641 0)"/>
     <use xlink:href="#DejaVuSans-3d" transform="translate(427.71875 0)"/>
     <use xlink:href="#DejaVuSans-20" transform="translate(511.507812 0)"/>
     <use xlink:href="#DejaVuSans-30" transform="translate(543.294922 0)"/>
     <use xlink:href="#DejaVuSans-2e" transform="translate(606.917969 0)"/>
     <use xlink:href="#DejaVuSans-39" transform="translate(638.705078 0)"/>
     <use xlink:href="#DejaVuSans-34" transform="translate(702.328125 0)"/>
     <use xlink:href="#DejaVuSans-38" transform="translate(765.951172 0)"/>
    </g>
    <!-- Paired t-test p = 0.678 -->
    <g style="fill: #262626" transform="translate(265.786906 54.864994) scale(0.09 -0.09)">
     <defs>
      <path id="DejaVuSans-2d" d="M 313 2009 
L 1997 2009 
L 1997 1497 
L 313 1497 
L 313 2009 
z
" transform="scale(0.015625)"/>
     </defs>
     <use xlink:href="#DejaVuSans-50"/>
     <use xlink:href="#DejaVuSans-61" transform="translate(55.802734 0)"/>
     <use xlink:href="#DejaVuSans-69" transform="translate(117.082031 0)"/>
     <use xlink:href="#DejaVuSans-72" transform="translate(144.865234 0)"/>
     <use xlink:href="#DejaVuSans-65" transform="translate(183.728516 0)"/>
     <use xlink:href="#DejaVuSans-64" transform="translate(245.251953 0)"/>
     <use xlink:href="#DejaVuSans-20" transform="translate(308.728516 0)"/>
     <use xlink:href="#DejaVuSans-74" transform="translate(340.515625 0)"/>
     <use xlink:href="#DejaVuSans-2d" transform="translate(379.724609 0)"/>
     <use xlink:href="#DejaVuSans-74" transform="translate(415.808594 0)"/>
     <use xlink:href="#DejaVuSans-65" transform="translate(455.017578 0)"/>
     <use xlink:href="#DejaVuSans-73" transform="translate(516.541016 0)"/>
     <use xlink:href="#DejaVuSans-74" transform="translate(568.640625 0)"/>
     <use xlink:href="#DejaVuSans-20" transform="translate(607.849609 0)"/>
     <use xlink:href="#DejaVuSans-70" transform="translate(639.636719 0)"/>
     <use xlink:href="#DejaVuSans-20" transform="translate(703.113281 0)"/>
     <use xlink:href="#DejaVuSans-3d" transform="translate(734.900391 0)"/>
     <use xlink:href="#DejaVuSans-20" transform="translate(818.689453 0)"/>
     <use xlink:href="#DejaVuSans-30" transform="translate(850.476562 0)"/>
     <use xlink:href="#DejaVuSans-2e" transform="translate(914.099609 0)"/>
     <use xlink:href="#DejaVuSans-36" transform="translate(945.886719 0)"/>
     <use xlink:href="#DejaVuSans-37" transform="translate(1009.509766 0)"/>
     <use xlink:href="#DejaVuSans-38" transform="translate(1073.132812 0)"/>
    </g>
   </g>
  </g>
 </g>
 <defs>
  <clipPath id="p0a118af06f">
   <rect x="39.989" y="29.077969" width="334.8" height="221.76"/>
  </clipPath>
 </defs>
</svg>
