<?xml version="1.0" encoding="utf-8" standalone="no"?>
<!DOCTYPE svg PUBLIC "-//W3C//DTD SVG 1.1//EN"
  "http://www.w3.org/Graphics/SVG/1.1/DTD/svg11.dtd">
<svg xmlns:xlink="http://www.w3.org/1999/xlink" width="432.295863pt" height="423.607076pt" viewBox="0 0 432.295863 423.607076" xmlns="http://www.w3.org/2000/svg" version="1.1">
 <metadata>
  <rdf:RDF xmlns:dc="http://purl.org/dc/elements/1.1/" xmlns:cc="http://creativecommons.org/ns#" xmlns:rdf="http://www.w3.org/1999/02/22-rdf-syntax-ns#">
   <cc:Work>
    <dc:type rdf:resource="http://purl.org/dc/dcmitype/StillImage"/>
    <dc:date>2025-10-25T11:09:29.931415</dc:date>
    <dc:format>image/svg+xml</dc:format>
    <dc:creator>
     <cc:Agent>
      <dc:title>Matplotlib v3.10.0, https://matplotlib.org/</dc:title>
     </cc:Agent>
    </dc:creator>
   </cc:Work>
  </rdf:RDF>
 </metadata>
 <defs>
  <style type="text/css">*{stroke-linejoin: round; stroke-linecap: butt}</style>
 </defs>
 <g id="figure_1">
  <g id="patch_1">
   <path d="M 0 423.607076 
L 432.295863 423.607076 
L 432.295863 0 
L 0 0 
z
" style="fill: #ffffff"/>
  </g>
  <g id="axes_1">
   <g id="patch_2">
    <path d="M 363.567863 235.769013 
C 363.567863 213.92807 359.265673 192.299504 350.907506 172.121104 
C 342.54934 151.942704 330.297741 133.606891 314.853862 118.163013 
C 299.409984 102.719134 281.074171 90.467535 260.895771 82.109369 
C 240.717371 73.751202 219.088805 69.449012 197.247863 69.449012 
C 175.40692 69.449012 153.778354 73.751202 133.599954 82.109369 
C 113.421554 90.467535 95.085741 102.719134 79.641863 118.163013 
C 64.197984 133.606891 51.946385 151.942704 43.588219 172.121104 
C 35.230052 192.299504 30.927863 213.92807 30.927863 235.769012 
C 30.927863 257.609955 35.230052 279.238521 43.588219 299.416921 
C 51.946385 319.595321 64.197984 337.931134 79.641863 353.375012 
C 95.085741 368.818891 113.421554 381.07049 133.599954 389.428656 
C 153.778354 397.786823 175.40692 402.089013 197.247863 402.089013 
C 219.088805 402.089013 240.717371 397.786823 260.895771 389.428656 
C 281.074171 381.07049 299.409984 368.818891 314.853862 353.375012 
C 330.297741 337.931134 342.54934 319.595321 350.907506 299.416921 
C 359.265673 279.238521 363.567863 257.609955 363.567863 235.769013 
M 197.247863 235.769013 
C 197.247863 235.769013 197.247863 235.769013 197.247863 235.769013 
C 197.247863 235.769013 197.247863 235.769013 197.247863 235.769013 
C 197.247863 235.769013 197.247863 235.769013 197.247863 235.769013 
C 197.247863 235.769013 197.247863 235.769013 197.247863 235.769013 
C 197.247863 235.769013 197.247863 235.769013 197.247863 235.769013 
C 197.247863 235.769013 197.247863 235.769013 197.247863 235.769013 
C 197.247863 235.769013 197.247863 235.769013 197.247863 235.769013 
C 197.247863 235.769013 197.247863 235.769013 197.247863 235.769013 
C 197.247863 235.769013 197.247863 235.769013 197.247863 235.769013 
C 197.247863 235.769013 197.247863 235.769013 197.247863 235.769013 
C 197.247863 235.769013 197.247863 235.769013 197.247863 235.769013 
C 197.247863 235.769013 197.247863 235.769013 197.247863 235.769013 
C 197.247863 235.769013 197.247863 235.769013 197.247863 235.769013 
C 197.247863 235.769013 197.247863 235.769013 197.247863 235.769013 
C 197.247863 235.769013 197.247863 235.769013 197.247863 235.769013 
C 197.247863 235.769013 197.247863 235.769013 197.247863 235.769013 
z
" style="fill: #ffffff"/>
   </g>
   <g id="patch_3">
    <path d="M 247.689174 235.769013 
L 297.263395 110.353502 
L 178.743022 154.694007 
L 101.442673 189.631665 
L 89.569381 287.624236 
L 160.238181 397.919023 
L 239.46405 288.706438 
z
" clip-path="url(#p880467eae0)" style="fill: #2a9d8f; opacity: 0.25; stroke: #2a9d8f; stroke-linejoin: miter"/>
   </g>
   <g id="patch_4">
    <path d="M 249.571797 235.769013 
L 293.166351 115.491032 
L 179.036749 155.980912 
L 110.216042 193.856697 
L 88.861012 287.965369 
L 161.223693 393.601211 
L 239.072785 288.215806 
z
" clip-path="url(#p880467eae0)" style="fill: #264653; opacity: 0.25; stroke: #264653; stroke-linejoin: miter"/>
   </g>
   <g id="matplotlib.axis_1">
    <g id="xtick_1">
     <g id="line2d_1">
      <path d="M 197.247863 235.769013 
L 363.567863 235.769013 
" clip-path="url(#p880467eae0)" style="fill: none; stroke: #b0b0b0; stroke-width: 0.8; stroke-linecap: square"/>
     </g>
     <g id="text_1">
      <!-- Abstraktion -->
      <g transform="translate(348.8163 238.528388) scale(0.1 -0.1)">
       <defs>
        <path id="DejaVuSans-41" d="M 2188 4044 
L 1331 1722 
L 3047 1722 
L 2188 4044 
z
M 1831 4666 
L 2547 4666 
L 4325 0 
L 3669 0 
L 3244 1197 
L 1141 1197 
L 716 0 
L 50 0 
L 1831 4666 
z
" transform="scale(0.015625)"/>
        <path id="DejaVuSans-62" d="M 3116 1747 
Q 3116 2381 2855 2742 
Q 2594 3103 2138 3103 
Q 1681 3103 1420 2742 
Q 1159 2381 1159 1747 
Q 1159 1113 1420 752 
Q 1681 391 2138 391 
Q 2594 391 2855 752 
Q 3116 1113 3116 1747 
z
M 1159 2969 
Q 1341 3281 1617 3432 
Q 1894 3584 2278 3584 
Q 2916 3584 3314 3078 
Q 3713 2572 3713 1747 
Q 3713 922 3314 415 
Q 2916 -91 2278 -91 
Q 1894 -91 1617 61 
Q 1341 213 1159 525 
L 1159 0 
L 581 0 
L 581 4863 
L 1159 4863 
L 1159 2969 
z
" transform="scale(0.015625)"/>
        <path id="DejaVuSans-73" d="M 2834 3397 
L 2834 2853 
Q 2591 2978 2328 3040 
Q 2066 3103 1784 3103 
Q 1356 3103 1142 2972 
Q 928 2841 928 2578 
Q 928 2378 1081 2264 
Q 1234 2150 1697 2047 
L 1894 2003 
Q 2506 1872 2764 1633 
Q 3022 1394 3022 966 
Q 3022 478 2636 193 
Q 2250 -91 1575 -91 
Q 1294 -91 989 -36 
Q 684 19 347 128 
L 347 722 
Q 666 556 975 473 
Q 1284 391 1588 391 
Q 1994 391 2212 530 
Q 2431 669 2431 922 
Q 2431 1156 2273 1281 
Q 2116 1406 1581 1522 
L 1381 1569 
Q 847 1681 609 1914 
Q 372 2147 372 2553 
Q 372 3047 722 3315 
Q 1072 3584 1716 3584 
Q 2034 3584 2315 3537 
Q 2597 3491 2834 3397 
z
" transform="scale(0.015625)"/>
        <path id="DejaVuSans-74" d="M 1172 4494 
L 1172 3500 
L 2356 3500 
L 2356 3053 
L 1172 3053 
L 1172 1153 
Q 1172 725 1289 603 
Q 1406 481 1766 481 
L 2356 481 
L 2356 0 
L 1766 0 
Q 1100 0 847 248 
Q 594 497 594 1153 
L 594 3053 
L 172 3053 
L 172 3500 
L 594 3500 
L 594 4494 
L 1172 4494 
z
" transform="scale(0.015625)"/>
        <path id="DejaVuSans-72" d="M 2631 2963 
Q 2534 3019 2420 3045 
Q 2306 3072 2169 3072 
Q 1681 3072 1420 2755 
Q 1159 2438 1159 1844 
L 1159 0 
L 581 0 
L 581 3500 
L 1159 3500 
L 1159 2956 
Q 1341 3275 1631 3429 
Q 1922 3584 2338 3584 
Q 2397 3584 2469 3576 
Q 2541 3569 2628 3553 
L 2631 2963 
z
" transform="scale(0.015625)"/>
        <path id="DejaVuSans-61" d="M 2194 1759 
Q 1497 1759 1228 1600 
Q 959 1441 959 1056 
Q 959 750 1161 570 
Q 1363 391 1709 391 
Q 2188 391 2477 730 
Q 2766 1069 2766 1631 
L 2766 1759 
L 2194 1759 
z
M 3341 1997 
L 3341 0 
L 2766 0 
L 2766 531 
Q 2569 213 2275 61 
Q 1981 -91 1556 -91 
Q 1019 -91 701 211 
Q 384 513 384 1019 
Q 384 1609 779 1909 
Q 1175 2209 1959 2209 
L 2766 2209 
L 2766 2266 
Q 2766 2663 2505 2880 
Q 2244 3097 1772 3097 
Q 1472 3097 1187 3025 
Q 903 2953 641 2809 
L 641 3341 
Q 956 3463 1253 3523 
Q 1550 3584 1831 3584 
Q 2591 3584 2966 3190 
Q 3341 2797 3341 1997 
z
" transform="scale(0.015625)"/>
        <path id="DejaVuSans-6b" d="M 581 4863 
L 1159 4863 
L 1159 1991 
L 2875 3500 
L 3609 3500 
L 1753 1863 
L 3688 0 
L 2938 0 
L 1159 1709 
L 1159 0 
L 581 0 
L 581 4863 
z
" transform="scale(0.015625)"/>
        <path id="DejaVuSans-69" d="M 603 3500 
L 1178 3500 
L 1178 0 
L 603 0 
L 603 3500 
z
M 603 4863 
L 1178 4863 
L 1178 4134 
L 603 4134 
L 603 4863 
z
" transform="scale(0.015625)"/>
        <path id="DejaVuSans-6f" d="M 1959 3097 
Q 1497 3097 1228 2736 
Q 959 2375 959 1747 
Q 959 1119 1226 758 
Q 1494 397 1959 397 
Q 2419 397 2687 759 
Q 2956 1122 2956 1747 
Q 2956 2369 2687 2733 
Q 2419 3097 1959 3097 
z
M 1959 3584 
Q 2709 3584 3137 3096 
Q 3566 2609 3566 1747 
Q 3566 888 3137 398 
Q 2709 -91 1959 -91 
Q 1206 -91 779 398 
Q 353 888 353 1747 
Q 353 2609 779 3096 
Q 1206 3584 1959 3584 
z
" transform="scale(0.015625)"/>
        <path id="DejaVuSans-6e" d="M 3513 2113 
L 3513 0 
L 2938 0 
L 2938 2094 
Q 2938 2591 2744 2837 
Q 2550 3084 2163 3084 
Q 1697 3084 1428 2787 
Q 1159 2491 1159 1978 
L 1159 0 
L 581 0 
L 581 3500 
L 1159 3500 
L 1159 2956 
Q 1366 3272 1645 3428 
Q 1925 3584 2291 3584 
Q 2894 3584 3203 3211 
Q 3513 2838 3513 2113 
z
" transform="scale(0.015625)"/>
       </defs>
       <use xlink:href="#DejaVuSans-41"/>
       <use xlink:href="#DejaVuSans-62" transform="translate(68.408203 0)"/>
       <use xlink:href="#DejaVuSans-73" transform="translate(131.884766 0)"/>
       <use xlink:href="#DejaVuSans-74" transform="translate(183.984375 0)"/>
       <use xlink:href="#DejaVuSans-72" transform="translate(223.193359 0)"/>
       <use xlink:href="#DejaVuSans-61" transform="translate(264.306641 0)"/>
       <use xlink:href="#DejaVuSans-6b" transform="translate(325.585938 0)"/>
       <use xlink:href="#DejaVuSans-74" transform="translate(383.496094 0)"/>
       <use xlink:href="#DejaVuSans-69" transform="translate(422.705078 0)"/>
       <use xlink:href="#DejaVuSans-6f" transform="translate(450.488281 0)"/>
       <use xlink:href="#DejaVuSans-6e" transform="translate(511.669922 0)"/>
      </g>
     </g>
    </g>
    <g id="xtick_2">
     <g id="line2d_2">
      <path d="M 197.247863 235.769013 
L 300.946686 105.7348 
" clip-path="url(#p880467eae0)" style="fill: none; stroke: #b0b0b0; stroke-width: 0.8; stroke-linecap: square"/>
     </g>
     <g id="text_2">
      <!-- Aufmerksamkeit -->
      <g transform="translate(268.749762 97.548535) scale(0.1 -0.1)">
       <defs>
        <path id="DejaVuSans-75" d="M 544 1381 
L 544 3500 
L 1119 3500 
L 1119 1403 
Q 1119 906 1312 657 
Q 1506 409 1894 409 
Q 2359 409 2629 706 
Q 2900 1003 2900 1516 
L 2900 3500 
L 3475 3500 
L 3475 0 
L 2900 0 
L 2900 538 
Q 2691 219 2414 64 
Q 2138 -91 1772 -91 
Q 1169 -91 856 284 
Q 544 659 544 1381 
z
M 1991 3584 
L 1991 3584 
z
" transform="scale(0.015625)"/>
        <path id="DejaVuSans-66" d="M 2375 4863 
L 2375 4384 
L 1825 4384 
Q 1516 4384 1395 4259 
Q 1275 4134 1275 3809 
L 1275 3500 
L 2222 3500 
L 2222 3053 
L 1275 3053 
L 1275 0 
L 697 0 
L 697 3053 
L 147 3053 
L 147 3500 
L 697 3500 
L 697 3744 
Q 697 4328 969 4595 
Q 1241 4863 1831 4863 
L 2375 4863 
z
" transform="scale(0.015625)"/>
        <path id="DejaVuSans-6d" d="M 3328 2828 
Q 3544 3216 3844 3400 
Q 4144 3584 4550 3584 
Q 5097 3584 5394 3201 
Q 5691 2819 5691 2113 
L 5691 0 
L 5113 0 
L 5113 2094 
Q 5113 2597 4934 2840 
Q 4756 3084 4391 3084 
Q 3944 3084 3684 2787 
Q 3425 2491 3425 1978 
L 3425 0 
L 2847 0 
L 2847 2094 
Q 2847 2600 2669 2842 
Q 2491 3084 2119 3084 
Q 1678 3084 1418 2786 
Q 1159 2488 1159 1978 
L 1159 0 
L 581 0 
L 581 3500 
L 1159 3500 
L 1159 2956 
Q 1356 3278 1631 3431 
Q 1906 3584 2284 3584 
Q 2666 3584 2933 3390 
Q 3200 3197 3328 2828 
z
" transform="scale(0.015625)"/>
        <path id="DejaVuSans-65" d="M 3597 1894 
L 3597 1613 
L 953 1613 
Q 991 1019 1311 708 
Q 1631 397 2203 397 
Q 2534 397 2845 478 
Q 3156 559 3463 722 
L 3463 178 
Q 3153 47 2828 -22 
Q 2503 -91 2169 -91 
Q 1331 -91 842 396 
Q 353 884 353 1716 
Q 353 2575 817 3079 
Q 1281 3584 2069 3584 
Q 2775 3584 3186 3129 
Q 3597 2675 3597 1894 
z
M 3022 2063 
Q 3016 2534 2758 2815 
Q 2500 3097 2075 3097 
Q 1594 3097 1305 2825 
Q 1016 2553 972 2059 
L 3022 2063 
z
" transform="scale(0.015625)"/>
       </defs>
       <use xlink:href="#DejaVuSans-41"/>
       <use xlink:href="#DejaVuSans-75" transform="translate(68.408203 0)"/>
       <use xlink:href="#DejaVuSans-66" transform="translate(131.787109 0)"/>
       <use xlink:href="#DejaVuSans-6d" transform="translate(166.992188 0)"/>
       <use xlink:href="#DejaVuSans-65" transform="translate(264.404297 0)"/>
       <use xlink:href="#DejaVuSans-72" transform="translate(325.927734 0)"/>
       <use xlink:href="#DejaVuSans-6b" transform="translate(367.041016 0)"/>
       <use xlink:href="#DejaVuSans-73" transform="translate(424.951172 0)"/>
       <use xlink:href="#DejaVuSans-61" transform="translate(477.050781 0)"/>
       <use xlink:href="#DejaVuSans-6d" transform="translate(538.330078 0)"/>
       <use xlink:href="#DejaVuSans-6b" transform="translate(635.742188 0)"/>
       <use xlink:href="#DejaVuSans-65" transform="translate(690.027344 0)"/>
       <use xlink:href="#DejaVuSans-69" transform="translate(751.550781 0)"/>
       <use xlink:href="#DejaVuSans-74" transform="translate(779.333984 0)"/>
      </g>
     </g>
    </g>
    <g id="xtick_3">
     <g id="line2d_3">
      <path d="M 197.247863 235.769013 
L 160.238181 73.619002 
" clip-path="url(#p880467eae0)" style="fill: none; stroke: #b0b0b0; stroke-width: 0.8; stroke-linecap: square"/>
     </g>
     <g id="text_3">
      <!-- Benennen -->
      <g transform="translate(131.787731 62.729386) scale(0.1 -0.1)">
       <defs>
        <path id="DejaVuSans-42" d="M 1259 2228 
L 1259 519 
L 2272 519 
Q 2781 519 3026 730 
Q 3272 941 3272 1375 
Q 3272 1813 3026 2020 
Q 2781 2228 2272 2228 
L 1259 2228 
z
M 1259 4147 
L 1259 2741 
L 2194 2741 
Q 2656 2741 2882 2914 
Q 3109 3088 3109 3444 
Q 3109 3797 2882 3972 
Q 2656 4147 2194 4147 
L 1259 4147 
z
M 628 4666 
L 2241 4666 
Q 2963 4666 3353 4366 
Q 3744 4066 3744 3513 
Q 3744 3084 3544 2831 
Q 3344 2578 2956 2516 
Q 3422 2416 3680 2098 
Q 3938 1781 3938 1306 
Q 3938 681 3513 340 
Q 3088 0 2303 0 
L 628 0 
L 628 4666 
z
" transform="scale(0.015625)"/>
       </defs>
       <use xlink:href="#DejaVuSans-42"/>
       <use xlink:href="#DejaVuSans-65" transform="translate(68.603516 0)"/>
       <use xlink:href="#DejaVuSans-6e" transform="translate(130.126953 0)"/>
       <use xlink:href="#DejaVuSans-65" transform="translate(193.505859 0)"/>
       <use xlink:href="#DejaVuSans-6e" transform="translate(255.029297 0)"/>
       <use xlink:href="#DejaVuSans-6e" transform="translate(318.408203 0)"/>
       <use xlink:href="#DejaVuSans-65" transform="translate(381.787109 0)"/>
       <use xlink:href="#DejaVuSans-6e" transform="translate(443.310547 0)"/>
      </g>
     </g>
    </g>
    <g id="xtick_4">
     <g id="line2d_4">
      <path d="M 197.247863 235.769013 
L 47.39872 163.605469 
" clip-path="url(#p880467eae0)" style="fill: none; stroke: #b0b0b0; stroke-width: 0.8; stroke-linecap: square"/>
     </g>
     <g id="text_4">
      <!-- Erinnerung -->
      <g transform="translate(7.2 160.290472) scale(0.1 -0.1)">
       <defs>
        <path id="DejaVuSans-45" d="M 628 4666 
L 3578 4666 
L 3578 4134 
L 1259 4134 
L 1259 2753 
L 3481 2753 
L 3481 2222 
L 1259 2222 
L 1259 531 
L 3634 531 
L 3634 0 
L 628 0 
L 628 4666 
z
" transform="scale(0.015625)"/>
        <path id="DejaVuSans-67" d="M 2906 1791 
Q 2906 2416 2648 2759 
Q 2391 3103 1925 3103 
Q 1463 3103 1205 2759 
Q 947 2416 947 1791 
Q 947 1169 1205 825 
Q 1463 481 1925 481 
Q 2391 481 2648 825 
Q 2906 1169 2906 1791 
z
M 3481 434 
Q 3481 -459 3084 -895 
Q 2688 -1331 1869 -1331 
Q 1566 -1331 1297 -1286 
Q 1028 -1241 775 -1147 
L 775 -588 
Q 1028 -725 1275 -790 
Q 1522 -856 1778 -856 
Q 2344 -856 2625 -561 
Q 2906 -266 2906 331 
L 2906 616 
Q 2728 306 2450 153 
Q 2172 0 1784 0 
Q 1141 0 747 490 
Q 353 981 353 1791 
Q 353 2603 747 3093 
Q 1141 3584 1784 3584 
Q 2172 3584 2450 3431 
Q 2728 3278 2906 2969 
L 2906 3500 
L 3481 3500 
L 3481 434 
z
" transform="scale(0.015625)"/>
       </defs>
       <use xlink:href="#DejaVuSans-45"/>
       <use xlink:href="#DejaVuSans-72" transform="translate(63.183594 0)"/>
       <use xlink:href="#DejaVuSans-69" transform="translate(104.296875 0)"/>
       <use xlink:href="#DejaVuSans-6e" transform="translate(132.080078 0)"/>
       <use xlink:href="#DejaVuSans-6e" transform="translate(195.458984 0)"/>
       <use xlink:href="#DejaVuSans-65" transform="translate(258.837891 0)"/>
       <use xlink:href="#DejaVuSans-72" transform="translate(320.361328 0)"/>
       <use xlink:href="#DejaVuSans-75" transform="translate(361.474609 0)"/>
       <use xlink:href="#DejaVuSans-6e" transform="translate(424.853516 0)"/>
       <use xlink:href="#DejaVuSans-67" transform="translate(488.232422 0)"/>
      </g>
     </g>
    </g>
    <g id="xtick_5">
     <g id="line2d_5">
      <path d="M 197.247863 235.769013 
L 47.39872 307.932556 
" clip-path="url(#p880467eae0)" style="fill: none; stroke: #b0b0b0; stroke-width: 0.8; stroke-linecap: square"/>
     </g>
     <g id="text_5">
      <!-- Executive -->
      <g transform="translate(10.442969 316.766303) scale(0.1 -0.1)">
       <defs>
        <path id="DejaVuSans-78" d="M 3513 3500 
L 2247 1797 
L 3578 0 
L 2900 0 
L 1881 1375 
L 863 0 
L 184 0 
L 1544 1831 
L 300 3500 
L 978 3500 
L 1906 2253 
L 2834 3500 
L 3513 3500 
z
" transform="scale(0.015625)"/>
        <path id="DejaVuSans-63" d="M 3122 3366 
L 3122 2828 
Q 2878 2963 2633 3030 
Q 2388 3097 2138 3097 
Q 1578 3097 1268 2742 
Q 959 2388 959 1747 
Q 959 1106 1268 751 
Q 1578 397 2138 397 
Q 2388 397 2633 464 
Q 2878 531 3122 666 
L 3122 134 
Q 2881 22 2623 -34 
Q 2366 -91 2075 -91 
Q 1284 -91 818 406 
Q 353 903 353 1747 
Q 353 2603 823 3093 
Q 1294 3584 2113 3584 
Q 2378 3584 2631 3529 
Q 2884 3475 3122 3366 
z
" transform="scale(0.015625)"/>
        <path id="DejaVuSans-76" d="M 191 3500 
L 800 3500 
L 1894 563 
L 2988 3500 
L 3597 3500 
L 2284 0 
L 1503 0 
L 191 3500 
z
" transform="scale(0.015625)"/>
       </defs>
       <use xlink:href="#DejaVuSans-45"/>
       <use xlink:href="#DejaVuSans-78" transform="translate(63.183594 0)"/>
       <use xlink:href="#DejaVuSans-65" transform="translate(119.238281 0)"/>
       <use xlink:href="#DejaVuSans-63" transform="translate(180.761719 0)"/>
       <use xlink:href="#DejaVuSans-75" transform="translate(235.742188 0)"/>
       <use xlink:href="#DejaVuSans-74" transform="translate(299.121094 0)"/>
       <use xlink:href="#DejaVuSans-69" transform="translate(338.330078 0)"/>
       <use xlink:href="#DejaVuSans-76" transform="translate(366.113281 0)"/>
       <use xlink:href="#DejaVuSans-65" transform="translate(425.292969 0)"/>
      </g>
     </g>
    </g>
    <g id="xtick_6">
     <g id="line2d_6">
      <path d="M 197.247863 235.769013 
L 160.238181 397.919023 
" clip-path="url(#p880467eae0)" style="fill: none; stroke: #b0b0b0; stroke-width: 0.8; stroke-linecap: square"/>
     </g>
     <g id="text_6">
      <!-- Orientierung -->
      <g transform="translate(125.504138 414.327389) scale(0.1 -0.1)">
       <defs>
        <path id="DejaVuSans-4f" d="M 2522 4238 
Q 1834 4238 1429 3725 
Q 1025 3213 1025 2328 
Q 1025 1447 1429 934 
Q 1834 422 2522 422 
Q 3209 422 3611 934 
Q 4013 1447 4013 2328 
Q 4013 3213 3611 3725 
Q 3209 4238 2522 4238 
z
M 2522 4750 
Q 3503 4750 4090 4092 
Q 4678 3434 4678 2328 
Q 4678 1225 4090 567 
Q 3503 -91 2522 -91 
Q 1538 -91 948 565 
Q 359 1222 359 2328 
Q 359 3434 948 4092 
Q 1538 4750 2522 4750 
z
" transform="scale(0.015625)"/>
       </defs>
       <use xlink:href="#DejaVuSans-4f"/>
       <use xlink:href="#DejaVuSans-72" transform="translate(78.710938 0)"/>
       <use xlink:href="#DejaVuSans-69" transform="translate(119.824219 0)"/>
       <use xlink:href="#DejaVuSans-65" transform="translate(147.607422 0)"/>
       <use xlink:href="#DejaVuSans-6e" transform="translate(209.130859 0)"/>
       <use xlink:href="#DejaVuSans-74" transform="translate(272.509766 0)"/>
       <use xlink:href="#DejaVuSans-69" transform="translate(311.71875 0)"/>
       <use xlink:href="#DejaVuSans-65" transform="translate(339.501953 0)"/>
       <use xlink:href="#DejaVuSans-72" transform="translate(401.025391 0)"/>
       <use xlink:href="#DejaVuSans-75" transform="translate(442.138672 0)"/>
       <use xlink:href="#DejaVuSans-6e" transform="translate(505.517578 0)"/>
       <use xlink:href="#DejaVuSans-67" transform="translate(568.896484 0)"/>
      </g>
     </g>
    </g>
    <g id="xtick_7">
     <g id="line2d_7">
      <path d="M 197.247863 235.769013 
L 300.946686 365.803225 
" clip-path="url(#p880467eae0)" style="fill: none; stroke: #b0b0b0; stroke-width: 0.8; stroke-linecap: square"/>
     </g>
     <g id="text_7">
      <!-- Sprache -->
      <g transform="translate(289.213044 379.50824) scale(0.1 -0.1)">
       <defs>
        <path id="DejaVuSans-53" d="M 3425 4513 
L 3425 3897 
Q 3066 4069 2747 4153 
Q 2428 4238 2131 4238 
Q 1616 4238 1336 4038 
Q 1056 3838 1056 3469 
Q 1056 3159 1242 3001 
Q 1428 2844 1947 2747 
L 2328 2669 
Q 3034 2534 3370 2195 
Q 3706 1856 3706 1288 
Q 3706 609 3251 259 
Q 2797 -91 1919 -91 
Q 1588 -91 1214 -16 
Q 841 59 441 206 
L 441 856 
Q 825 641 1194 531 
Q 1563 422 1919 422 
Q 2459 422 2753 634 
Q 3047 847 3047 1241 
Q 3047 1584 2836 1778 
Q 2625 1972 2144 2069 
L 1759 2144 
Q 1053 2284 737 2584 
Q 422 2884 422 3419 
Q 422 4038 858 4394 
Q 1294 4750 2059 4750 
Q 2388 4750 2728 4690 
Q 3069 4631 3425 4513 
z
" transform="scale(0.015625)"/>
        <path id="DejaVuSans-70" d="M 1159 525 
L 1159 -1331 
L 581 -1331 
L 581 3500 
L 1159 3500 
L 1159 2969 
Q 1341 3281 1617 3432 
Q 1894 3584 2278 3584 
Q 2916 3584 3314 3078 
Q 3713 2572 3713 1747 
Q 3713 922 3314 415 
Q 2916 -91 2278 -91 
Q 1894 -91 1617 61 
Q 1341 213 1159 525 
z
M 3116 1747 
Q 3116 2381 2855 2742 
Q 2594 3103 2138 3103 
Q 1681 3103 1420 2742 
Q 1159 2381 1159 1747 
Q 1159 1113 1420 752 
Q 1681 391 2138 391 
Q 2594 391 2855 752 
Q 3116 1113 3116 1747 
z
" transform="scale(0.015625)"/>
        <path id="DejaVuSans-68" d="M 3513 2113 
L 3513 0 
L 2938 0 
L 2938 2094 
Q 2938 2591 2744 2837 
Q 2550 3084 2163 3084 
Q 1697 3084 1428 2787 
Q 1159 2491 1159 1978 
L 1159 0 
L 581 0 
L 581 4863 
L 1159 4863 
L 1159 2956 
Q 1366 3272 1645 3428 
Q 1925 3584 2291 3584 
Q 2894 3584 3203 3211 
Q 3513 2838 3513 2113 
z
" transform="scale(0.015625)"/>
       </defs>
       <use xlink:href="#DejaVuSans-53"/>
       <use xlink:href="#DejaVuSans-70" transform="translate(63.476562 0)"/>
       <use xlink:href="#DejaVuSans-72" transform="translate(126.953125 0)"/>
       <use xlink:href="#DejaVuSans-61" transform="translate(168.066406 0)"/>
       <use xlink:href="#DejaVuSans-63" transform="translate(229.345703 0)"/>
       <use xlink:href="#DejaVuSans-68" transform="translate(284.326172 0)"/>
       <use xlink:href="#DejaVuSans-65" transform="translate(347.705078 0)"/>
      </g>
     </g>
    </g>
   </g>
   <g id="matplotlib.axis_2">
    <g id="ytick_1">
     <g id="line2d_8">
      <path d="M 225.422289 235.769013 
C 225.422289 232.069181 224.693503 228.405325 223.277638 224.987126 
C 221.861774 221.568928 219.786366 218.462861 217.17019 215.846685 
C 214.554014 213.230509 211.447947 211.155101 208.029749 209.739237 
C 204.61155 208.323372 200.947694 207.594586 197.247863 207.594586 
C 193.548031 207.594586 189.884175 208.323372 186.465976 209.739237 
C 183.047778 211.155101 179.941711 213.230509 177.325535 215.846685 
C 174.709359 218.462861 172.633951 221.568928 171.218087 224.987126 
C 169.802222 228.405325 169.073436 232.069181 169.073436 235.769013 
C 169.073436 239.468844 169.802222 243.1327 171.218087 246.550899 
C 172.633951 249.969097 174.709359 253.075164 177.325535 255.69134 
C 179.941711 258.307516 183.047778 260.382924 186.465976 261.798788 
C 189.884175 263.214653 193.548031 263.943439 197.247863 263.943439 
C 200.947694 263.943439 204.61155 263.214653 208.029749 261.798788 
C 211.447947 260.382924 214.554014 258.307516 217.17019 255.69134 
C 219.786366 253.075164 221.861774 249.969097 223.277638 246.550899 
C 224.693503 243.1327 225.422289 239.468844 225.422289 235.769013 
" clip-path="url(#p880467eae0)" style="fill: none; stroke: #b0b0b0; stroke-width: 0.8; stroke-linecap: square"/>
     </g>
     <g id="text_8">
      <!-- 1 -->
      <g transform="translate(223.277638 222.907439) scale(0.1 -0.1)">
       <defs>
        <path id="DejaVuSans-31" d="M 794 531 
L 1825 531 
L 1825 4091 
L 703 3866 
L 703 4441 
L 1819 4666 
L 2450 4666 
L 2450 531 
L 3481 531 
L 3481 0 
L 794 0 
L 794 531 
z
" transform="scale(0.015625)"/>
       </defs>
       <use xlink:href="#DejaVuSans-31"/>
      </g>
     </g>
    </g>
    <g id="ytick_2">
     <g id="line2d_9">
      <path d="M 253.596715 235.769013 
C 253.596715 228.369349 252.139143 221.041638 249.307414 214.20524 
C 246.475685 207.368843 242.32487 201.156709 237.092518 195.924357 
C 231.860166 190.692005 225.648032 186.54119 218.811635 183.709461 
C 211.975237 180.877732 204.647526 179.42016 197.247863 179.42016 
C 189.848199 179.42016 182.520488 180.877732 175.68409 183.709461 
C 168.847693 186.54119 162.635559 190.692005 157.403207 195.924357 
C 152.170855 201.156709 148.02004 207.368843 145.188311 214.20524 
C 142.356582 221.041638 140.89901 228.369349 140.89901 235.769013 
C 140.89901 243.168676 142.356582 250.496387 145.188311 257.332785 
C 148.02004 264.169182 152.170855 270.381316 157.403207 275.613668 
C 162.635559 280.84602 168.847693 284.996835 175.68409 287.828564 
C 182.520488 290.660293 189.848199 292.117865 197.247863 292.117865 
C 204.647526 292.117865 211.975237 290.660293 218.811635 287.828564 
C 225.648032 284.996835 231.860166 280.84602 237.092518 275.613668 
C 242.32487 270.381316 246.475685 264.169182 249.307414 257.332785 
C 252.139143 250.496387 253.596715 243.168676 253.596715 235.769013 
" clip-path="url(#p880467eae0)" style="fill: none; stroke: #b0b0b0; stroke-width: 0.8; stroke-linecap: square"/>
     </g>
     <g id="text_9">
      <!-- 2 -->
      <g transform="translate(249.307414 212.125553) scale(0.1 -0.1)">
       <defs>
        <path id="DejaVuSans-32" d="M 1228 531 
L 3431 531 
L 3431 0 
L 469 0 
L 469 531 
Q 828 903 1448 1529 
Q 2069 2156 2228 2338 
Q 2531 2678 2651 2914 
Q 2772 3150 2772 3378 
Q 2772 3750 2511 3984 
Q 2250 4219 1831 4219 
Q 1534 4219 1204 4116 
Q 875 4013 500 3803 
L 500 4441 
Q 881 4594 1212 4672 
Q 1544 4750 1819 4750 
Q 2544 4750 2975 4387 
Q 3406 4025 3406 3419 
Q 3406 3131 3298 2873 
Q 3191 2616 2906 2266 
Q 2828 2175 2409 1742 
Q 1991 1309 1228 531 
z
" transform="scale(0.015625)"/>
       </defs>
       <use xlink:href="#DejaVuSans-32"/>
      </g>
     </g>
    </g>
    <g id="ytick_3">
     <g id="line2d_10">
      <path d="M 281.771141 235.769013 
C 281.771141 224.669517 279.584783 213.677951 275.33719 203.423354 
C 271.089597 193.168758 264.863374 183.850557 257.014846 176.002029 
C 249.166318 168.153501 239.848117 161.927278 229.593521 157.679685 
C 219.338924 153.432092 208.347358 151.245734 197.247863 151.245734 
C 186.148367 151.245734 175.156801 153.432092 164.902204 157.679685 
C 154.647608 161.927278 145.329407 168.153501 137.480879 176.002029 
C 129.632351 183.850557 123.406128 193.168758 119.158535 203.423354 
C 114.910942 213.677951 112.724584 224.669517 112.724584 235.769013 
C 112.724584 246.868508 114.910942 257.860074 119.158535 268.114671 
C 123.406128 278.369267 129.632351 287.687468 137.480879 295.535996 
C 145.329407 303.384524 154.647608 309.610747 164.902204 313.85834 
C 175.156801 318.105933 186.148367 320.292291 197.247863 320.292291 
C 208.347358 320.292291 219.338924 318.105933 229.593521 313.85834 
C 239.848117 309.610747 249.166318 303.384524 257.014846 295.535996 
C 264.863374 287.687468 271.089597 278.369267 275.33719 268.114671 
C 279.584783 257.860074 281.771141 246.868508 281.771141 235.769013 
" clip-path="url(#p880467eae0)" style="fill: none; stroke: #b0b0b0; stroke-width: 0.8; stroke-linecap: square"/>
     </g>
     <g id="text_10">
      <!-- 3 -->
      <g transform="translate(275.33719 201.343667) scale(0.1 -0.1)">
       <defs>
        <path id="DejaVuSans-33" d="M 2597 2516 
Q 3050 2419 3304 2112 
Q 3559 1806 3559 1356 
Q 3559 666 3084 287 
Q 2609 -91 1734 -91 
Q 1441 -91 1130 -33 
Q 819 25 488 141 
L 488 750 
Q 750 597 1062 519 
Q 1375 441 1716 441 
Q 2309 441 2620 675 
Q 2931 909 2931 1356 
Q 2931 1769 2642 2001 
Q 2353 2234 1838 2234 
L 1294 2234 
L 1294 2753 
L 1863 2753 
Q 2328 2753 2575 2939 
Q 2822 3125 2822 3475 
Q 2822 3834 2567 4026 
Q 2313 4219 1838 4219 
Q 1578 4219 1281 4162 
Q 984 4106 628 3988 
L 628 4550 
Q 988 4650 1302 4700 
Q 1616 4750 1894 4750 
Q 2613 4750 3031 4423 
Q 3450 4097 3450 3541 
Q 3450 3153 3228 2886 
Q 3006 2619 2597 2516 
z
" transform="scale(0.015625)"/>
       </defs>
       <use xlink:href="#DejaVuSans-33"/>
      </g>
     </g>
    </g>
    <g id="ytick_4">
     <g id="line2d_11">
      <path d="M 309.945567 235.769013 
C 309.945567 220.969685 307.030423 206.314263 301.366965 192.641468 
C 295.703508 178.968673 287.401878 166.544406 276.937174 156.079701 
C 266.472469 145.614997 254.048202 137.313367 240.375407 131.64991 
C 226.702612 125.986452 212.04719 123.071308 197.247863 123.071308 
C 182.448535 123.071308 167.793113 125.986452 154.120318 131.64991 
C 140.447523 137.313367 128.023256 145.614997 117.558551 156.079701 
C 107.093847 166.544406 98.792217 178.968673 93.12876 192.641468 
C 87.465302 206.314263 84.550158 220.969685 84.550158 235.769013 
C 84.550158 250.56834 87.465302 265.223762 93.12876 278.896557 
C 98.792217 292.569352 107.093847 304.993619 117.558551 315.458324 
C 128.023256 325.923028 140.447523 334.224658 154.120318 339.888115 
C 167.793113 345.551573 182.448535 348.466717 197.247863 348.466717 
C 212.04719 348.466717 226.702612 345.551573 240.375407 339.888115 
C 254.048202 334.224658 266.472469 325.923028 276.937174 315.458324 
C 287.401878 304.993619 295.703508 292.569352 301.366965 278.896557 
C 307.030423 265.223762 309.945567 250.56834 309.945567 235.769013 
" clip-path="url(#p880467eae0)" style="fill: none; stroke: #b0b0b0; stroke-width: 0.8; stroke-linecap: square"/>
     </g>
     <g id="text_11">
      <!-- 4 -->
      <g transform="translate(301.366965 190.56178) scale(0.1 -0.1)">
       <defs>
        <path id="DejaVuSans-34" d="M 2419 4116 
L 825 1625 
L 2419 1625 
L 2419 4116 
z
M 2253 4666 
L 3047 4666 
L 3047 1625 
L 3713 1625 
L 3713 1100 
L 3047 1100 
L 3047 0 
L 2419 0 
L 2419 1100 
L 313 1100 
L 313 1709 
L 2253 4666 
z
" transform="scale(0.015625)"/>
       </defs>
       <use xlink:href="#DejaVuSans-34"/>
      </g>
     </g>
    </g>
    <g id="ytick_5">
     <g id="line2d_12">
      <path d="M 338.119994 235.769013 
C 338.119994 217.269854 334.476063 198.950576 327.396741 181.859582 
C 320.31742 164.768588 309.940382 149.238254 296.859502 136.157373 
C 283.778621 123.076493 268.248287 112.699455 251.157293 105.620134 
C 234.066299 98.540812 215.747021 94.896881 197.247863 94.896881 
C 178.748704 94.896881 160.429426 98.540812 143.338432 105.620134 
C 126.247438 112.699455 110.717104 123.076493 97.636223 136.157373 
C 84.555343 149.238254 74.178305 164.768588 67.098984 181.859582 
C 60.019662 198.950576 56.375731 217.269854 56.375731 235.769013 
C 56.375731 254.268171 60.019662 272.587449 67.098984 289.678443 
C 74.178305 306.769437 84.555343 322.299771 97.636223 335.380652 
C 110.717104 348.461532 126.247438 358.83857 143.338432 365.917891 
C 160.429426 372.997213 178.748704 376.641144 197.247863 376.641144 
C 215.747021 376.641144 234.066299 372.997213 251.157293 365.917891 
C 268.248287 358.83857 283.778621 348.461532 296.859502 335.380652 
C 309.940382 322.299771 320.31742 306.769437 327.396741 289.678443 
C 334.476063 272.587449 338.119994 254.268171 338.119994 235.769013 
" clip-path="url(#p880467eae0)" style="fill: none; stroke: #b0b0b0; stroke-width: 0.8; stroke-linecap: square"/>
     </g>
     <g id="text_12">
      <!-- 5 -->
      <g transform="translate(327.396741 179.779894) scale(0.1 -0.1)">
       <defs>
        <path id="DejaVuSans-35" d="M 691 4666 
L 3169 4666 
L 3169 4134 
L 1269 4134 
L 1269 2991 
Q 1406 3038 1543 3061 
Q 1681 3084 1819 3084 
Q 2600 3084 3056 2656 
Q 3513 2228 3513 1497 
Q 3513 744 3044 326 
Q 2575 -91 1722 -91 
Q 1428 -91 1123 -41 
Q 819 9 494 109 
L 494 744 
Q 775 591 1075 516 
Q 1375 441 1709 441 
Q 2250 441 2565 725 
Q 2881 1009 2881 1497 
Q 2881 1984 2565 2268 
Q 2250 2553 1709 2553 
Q 1456 2553 1204 2497 
Q 953 2441 691 2322 
L 691 4666 
z
" transform="scale(0.015625)"/>
       </defs>
       <use xlink:href="#DejaVuSans-35"/>
      </g>
     </g>
    </g>
   </g>
   <g id="line2d_13">
    <path d="M 247.689174 235.769013 
L 297.263395 110.353502 
L 178.743022 154.694007 
L 101.442673 189.631665 
L 89.569381 287.624236 
L 160.238181 397.919023 
L 239.46405 288.706438 
L 247.689174 235.769013 
" clip-path="url(#p880467eae0)" style="fill: none; stroke: #2a9d8f; stroke-width: 1.5; stroke-linecap: square"/>
   </g>
   <g id="line2d_14">
    <path d="M 249.571797 235.769013 
L 293.166351 115.491032 
L 179.036749 155.980912 
L 110.216042 193.856697 
L 88.861012 287.965369 
L 161.223693 393.601211 
L 239.072785 288.215806 
L 249.571797 235.769013 
" clip-path="url(#p880467eae0)" style="fill: none; stroke: #264653; stroke-width: 1.5; stroke-linecap: square"/>
   </g>
   <g id="patch_5">
    <path d="M 363.567863 235.769013 
C 363.567863 213.92807 359.265673 192.299504 350.907506 172.121104 
C 342.54934 151.942704 330.297741 133.606891 314.853862 118.163013 
C 299.409984 102.719134 281.074171 90.467535 260.895771 82.109369 
C 240.717371 73.751202 219.088805 69.449013 197.247863 69.449013 
C 175.40692 69.449013 153.778354 73.751202 133.599954 82.109369 
C 113.421554 90.467535 95.085741 102.719134 79.641863 118.163013 
C 64.197984 133.606891 51.946385 151.942704 43.588219 172.121104 
C 35.230052 192.299504 30.927863 213.92807 30.927863 235.769013 
C 30.927863 257.609955 35.230052 279.238521 43.588219 299.416921 
C 51.946385 319.595321 64.197984 337.931134 79.641863 353.375012 
C 95.085741 368.818891 113.421554 381.07049 133.599954 389.428656 
C 153.778354 397.786823 175.40692 402.089013 197.247863 402.089013 
C 219.088805 402.089013 240.717371 397.786823 260.895771 389.428656 
C 281.074171 381.07049 299.409984 368.818891 314.853862 353.375012 
C 330.297741 337.931134 342.54934 319.595321 350.907506 299.416921 
C 359.265673 279.238521 363.567863 257.609955 363.567863 235.769013 
" style="fill: none; stroke: #000000; stroke-width: 0.8; stroke-linejoin: miter; stroke-linecap: square"/>
   </g>
   <g id="text_13">
    <!-- MoCA Postoperative Subscores (Radar) -->
    <g transform="translate(42.131144 17.837812) scale(0.14 -0.14)">
     <defs>
      <path id="DejaVuSans-Bold-4d" d="M 588 4666 
L 2119 4666 
L 3181 2169 
L 4250 4666 
L 5778 4666 
L 5778 0 
L 4641 0 
L 4641 3413 
L 3566 897 
L 2803 897 
L 1728 3413 
L 1728 0 
L 588 0 
L 588 4666 
z
" transform="scale(0.015625)"/>
      <path id="DejaVuSans-Bold-6f" d="M 2203 2784 
Q 1831 2784 1636 2517 
Q 1441 2250 1441 1747 
Q 1441 1244 1636 976 
Q 1831 709 2203 709 
Q 2569 709 2762 976 
Q 2956 1244 2956 1747 
Q 2956 2250 2762 2517 
Q 2569 2784 2203 2784 
z
M 2203 3584 
Q 3106 3584 3614 3096 
Q 4122 2609 4122 1747 
Q 4122 884 3614 396 
Q 3106 -91 2203 -91 
Q 1297 -91 786 396 
Q 275 884 275 1747 
Q 275 2609 786 3096 
Q 1297 3584 2203 3584 
z
" transform="scale(0.015625)"/>
      <path id="DejaVuSans-Bold-43" d="M 4288 256 
Q 3956 84 3597 -3 
Q 3238 -91 2847 -91 
Q 1681 -91 1000 561 
Q 319 1213 319 2328 
Q 319 3447 1000 4098 
Q 1681 4750 2847 4750 
Q 3238 4750 3597 4662 
Q 3956 4575 4288 4403 
L 4288 3438 
Q 3953 3666 3628 3772 
Q 3303 3878 2944 3878 
Q 2300 3878 1931 3465 
Q 1563 3053 1563 2328 
Q 1563 1606 1931 1193 
Q 2300 781 2944 781 
Q 3303 781 3628 887 
Q 3953 994 4288 1222 
L 4288 256 
z
" transform="scale(0.015625)"/>
      <path id="DejaVuSans-Bold-41" d="M 3419 850 
L 1538 850 
L 1241 0 
L 31 0 
L 1759 4666 
L 3194 4666 
L 4922 0 
L 3713 0 
L 3419 850 
z
M 1838 1716 
L 3116 1716 
L 2478 3572 
L 1838 1716 
z
" transform="scale(0.015625)"/>
      <path id="DejaVuSans-Bold-20" transform="scale(0.015625)"/>
      <path id="DejaVuSans-Bold-50" d="M 588 4666 
L 2584 4666 
Q 3475 4666 3951 4270 
Q 4428 3875 4428 3144 
Q 4428 2409 3951 2014 
Q 3475 1619 2584 1619 
L 1791 1619 
L 1791 0 
L 588 0 
L 588 4666 
z
M 1791 3794 
L 1791 2491 
L 2456 2491 
Q 2806 2491 2997 2661 
Q 3188 2831 3188 3144 
Q 3188 3456 2997 3625 
Q 2806 3794 2456 3794 
L 1791 3794 
z
" transform="scale(0.015625)"/>
      <path id="DejaVuSans-Bold-73" d="M 3272 3391 
L 3272 2541 
Q 2913 2691 2578 2766 
Q 2244 2841 1947 2841 
Q 1628 2841 1473 2761 
Q 1319 2681 1319 2516 
Q 1319 2381 1436 2309 
Q 1553 2238 1856 2203 
L 2053 2175 
Q 2913 2066 3209 1816 
Q 3506 1566 3506 1031 
Q 3506 472 3093 190 
Q 2681 -91 1863 -91 
Q 1516 -91 1145 -36 
Q 775 19 384 128 
L 384 978 
Q 719 816 1070 734 
Q 1422 653 1784 653 
Q 2113 653 2278 743 
Q 2444 834 2444 1013 
Q 2444 1163 2330 1236 
Q 2216 1309 1875 1350 
L 1678 1375 
Q 931 1469 631 1722 
Q 331 1975 331 2491 
Q 331 3047 712 3315 
Q 1094 3584 1881 3584 
Q 2191 3584 2531 3537 
Q 2872 3491 3272 3391 
z
" transform="scale(0.015625)"/>
      <path id="DejaVuSans-Bold-74" d="M 1759 4494 
L 1759 3500 
L 2913 3500 
L 2913 2700 
L 1759 2700 
L 1759 1216 
Q 1759 972 1856 886 
Q 1953 800 2241 800 
L 2816 800 
L 2816 0 
L 1856 0 
Q 1194 0 917 276 
Q 641 553 641 1216 
L 641 2700 
L 84 2700 
L 84 3500 
L 641 3500 
L 641 4494 
L 1759 4494 
z
" transform="scale(0.015625)"/>
      <path id="DejaVuSans-Bold-70" d="M 1656 506 
L 1656 -1331 
L 538 -1331 
L 538 3500 
L 1656 3500 
L 1656 2988 
Q 1888 3294 2169 3439 
Q 2450 3584 2816 3584 
Q 3463 3584 3878 3070 
Q 4294 2556 4294 1747 
Q 4294 938 3878 423 
Q 3463 -91 2816 -91 
Q 2450 -91 2169 54 
Q 1888 200 1656 506 
z
M 2400 2772 
Q 2041 2772 1848 2508 
Q 1656 2244 1656 1747 
Q 1656 1250 1848 986 
Q 2041 722 2400 722 
Q 2759 722 2948 984 
Q 3138 1247 3138 1747 
Q 3138 2247 2948 2509 
Q 2759 2772 2400 2772 
z
" transform="scale(0.015625)"/>
      <path id="DejaVuSans-Bold-65" d="M 4031 1759 
L 4031 1441 
L 1416 1441 
Q 1456 1047 1700 850 
Q 1944 653 2381 653 
Q 2734 653 3104 758 
Q 3475 863 3866 1075 
L 3866 213 
Q 3469 63 3072 -14 
Q 2675 -91 2278 -91 
Q 1328 -91 801 392 
Q 275 875 275 1747 
Q 275 2603 792 3093 
Q 1309 3584 2216 3584 
Q 3041 3584 3536 3087 
Q 4031 2591 4031 1759 
z
M 2881 2131 
Q 2881 2450 2695 2645 
Q 2509 2841 2209 2841 
Q 1884 2841 1681 2658 
Q 1478 2475 1428 2131 
L 2881 2131 
z
" transform="scale(0.015625)"/>
      <path id="DejaVuSans-Bold-72" d="M 3138 2547 
Q 2991 2616 2845 2648 
Q 2700 2681 2553 2681 
Q 2122 2681 1889 2404 
Q 1656 2128 1656 1613 
L 1656 0 
L 538 0 
L 538 3500 
L 1656 3500 
L 1656 2925 
Q 1872 3269 2151 3426 
Q 2431 3584 2822 3584 
Q 2878 3584 2943 3579 
Q 3009 3575 3134 3559 
L 3138 2547 
z
" transform="scale(0.015625)"/>
      <path id="DejaVuSans-Bold-61" d="M 2106 1575 
Q 1756 1575 1579 1456 
Q 1403 1338 1403 1106 
Q 1403 894 1545 773 
Q 1688 653 1941 653 
Q 2256 653 2472 879 
Q 2688 1106 2688 1447 
L 2688 1575 
L 2106 1575 
z
M 3816 1997 
L 3816 0 
L 2688 0 
L 2688 519 
Q 2463 200 2181 54 
Q 1900 -91 1497 -91 
Q 953 -91 614 226 
Q 275 544 275 1050 
Q 275 1666 698 1953 
Q 1122 2241 2028 2241 
L 2688 2241 
L 2688 2328 
Q 2688 2594 2478 2717 
Q 2269 2841 1825 2841 
Q 1466 2841 1156 2769 
Q 847 2697 581 2553 
L 581 3406 
Q 941 3494 1303 3539 
Q 1666 3584 2028 3584 
Q 2975 3584 3395 3211 
Q 3816 2838 3816 1997 
z
" transform="scale(0.015625)"/>
      <path id="DejaVuSans-Bold-69" d="M 538 3500 
L 1656 3500 
L 1656 0 
L 538 0 
L 538 3500 
z
M 538 4863 
L 1656 4863 
L 1656 3950 
L 538 3950 
L 538 4863 
z
" transform="scale(0.015625)"/>
      <path id="DejaVuSans-Bold-76" d="M 97 3500 
L 1216 3500 
L 2088 1081 
L 2956 3500 
L 4078 3500 
L 2700 0 
L 1472 0 
L 97 3500 
z
" transform="scale(0.015625)"/>
      <path id="DejaVuSans-Bold-53" d="M 3834 4519 
L 3834 3531 
Q 3450 3703 3084 3790 
Q 2719 3878 2394 3878 
Q 1963 3878 1756 3759 
Q 1550 3641 1550 3391 
Q 1550 3203 1689 3098 
Q 1828 2994 2194 2919 
L 2706 2816 
Q 3484 2659 3812 2340 
Q 4141 2022 4141 1434 
Q 4141 663 3683 286 
Q 3225 -91 2284 -91 
Q 1841 -91 1394 -6 
Q 947 78 500 244 
L 500 1259 
Q 947 1022 1364 901 
Q 1781 781 2169 781 
Q 2563 781 2772 912 
Q 2981 1044 2981 1288 
Q 2981 1506 2839 1625 
Q 2697 1744 2272 1838 
L 1806 1941 
Q 1106 2091 782 2419 
Q 459 2747 459 3303 
Q 459 4000 909 4375 
Q 1359 4750 2203 4750 
Q 2588 4750 2994 4692 
Q 3400 4634 3834 4519 
z
" transform="scale(0.015625)"/>
      <path id="DejaVuSans-Bold-75" d="M 500 1363 
L 500 3500 
L 1625 3500 
L 1625 3150 
Q 1625 2866 1622 2436 
Q 1619 2006 1619 1863 
Q 1619 1441 1641 1255 
Q 1663 1069 1716 984 
Q 1784 875 1895 815 
Q 2006 756 2150 756 
Q 2500 756 2700 1025 
Q 2900 1294 2900 1772 
L 2900 3500 
L 4019 3500 
L 4019 0 
L 2900 0 
L 2900 506 
Q 2647 200 2364 54 
Q 2081 -91 1741 -91 
Q 1134 -91 817 281 
Q 500 653 500 1363 
z
" transform="scale(0.015625)"/>
      <path id="DejaVuSans-Bold-62" d="M 2400 722 
Q 2759 722 2948 984 
Q 3138 1247 3138 1747 
Q 3138 2247 2948 2509 
Q 2759 2772 2400 2772 
Q 2041 2772 1848 2508 
Q 1656 2244 1656 1747 
Q 1656 1250 1848 986 
Q 2041 722 2400 722 
z
M 1656 2988 
Q 1888 3294 2169 3439 
Q 2450 3584 2816 3584 
Q 3463 3584 3878 3070 
Q 4294 2556 4294 1747 
Q 4294 938 3878 423 
Q 3463 -91 2816 -91 
Q 2450 -91 2169 54 
Q 1888 200 1656 506 
L 1656 0 
L 538 0 
L 538 4863 
L 1656 4863 
L 1656 2988 
z
" transform="scale(0.015625)"/>
      <path id="DejaVuSans-Bold-63" d="M 3366 3391 
L 3366 2478 
Q 3138 2634 2908 2709 
Q 2678 2784 2431 2784 
Q 1963 2784 1702 2511 
Q 1441 2238 1441 1747 
Q 1441 1256 1702 982 
Q 1963 709 2431 709 
Q 2694 709 2930 787 
Q 3166 866 3366 1019 
L 3366 103 
Q 3103 6 2833 -42 
Q 2563 -91 2291 -91 
Q 1344 -91 809 395 
Q 275 881 275 1747 
Q 275 2613 809 3098 
Q 1344 3584 2291 3584 
Q 2566 3584 2833 3536 
Q 3100 3488 3366 3391 
z
" transform="scale(0.015625)"/>
      <path id="DejaVuSans-Bold-28" d="M 2413 -844 
L 1484 -844 
Q 1006 -72 778 623 
Q 550 1319 550 2003 
Q 550 2688 779 3389 
Q 1009 4091 1484 4856 
L 2413 4856 
Q 2013 4116 1813 3408 
Q 1613 2700 1613 2009 
Q 1613 1319 1811 609 
Q 2009 -100 2413 -844 
z
" transform="scale(0.015625)"/>
      <path id="DejaVuSans-Bold-52" d="M 2297 2597 
Q 2675 2597 2839 2737 
Q 3003 2878 3003 3200 
Q 3003 3519 2839 3656 
Q 2675 3794 2297 3794 
L 1791 3794 
L 1791 2597 
L 2297 2597 
z
M 1791 1766 
L 1791 0 
L 588 0 
L 588 4666 
L 2425 4666 
Q 3347 4666 3776 4356 
Q 4206 4047 4206 3378 
Q 4206 2916 3982 2619 
Q 3759 2322 3309 2181 
Q 3556 2125 3751 1926 
Q 3947 1728 4147 1325 
L 4800 0 
L 3519 0 
L 2950 1159 
Q 2778 1509 2601 1637 
Q 2425 1766 2131 1766 
L 1791 1766 
z
" transform="scale(0.015625)"/>
      <path id="DejaVuSans-Bold-64" d="M 2919 2988 
L 2919 4863 
L 4044 4863 
L 4044 0 
L 2919 0 
L 2919 506 
Q 2688 197 2409 53 
Q 2131 -91 1766 -91 
Q 1119 -91 703 423 
Q 288 938 288 1747 
Q 288 2556 703 3070 
Q 1119 3584 1766 3584 
Q 2128 3584 2408 3439 
Q 2688 3294 2919 2988 
z
M 2181 722 
Q 2541 722 2730 984 
Q 2919 1247 2919 1747 
Q 2919 2247 2730 2509 
Q 2541 2772 2181 2772 
Q 1825 2772 1636 2509 
Q 1447 2247 1447 1747 
Q 1447 1247 1636 984 
Q 1825 722 2181 722 
z
" transform="scale(0.015625)"/>
      <path id="DejaVuSans-Bold-29" d="M 513 -844 
Q 913 -100 1113 609 
Q 1313 1319 1313 2009 
Q 1313 2700 1113 3408 
Q 913 4116 513 4856 
L 1441 4856 
Q 1916 4091 2145 3389 
Q 2375 2688 2375 2003 
Q 2375 1319 2147 623 
Q 1919 -72 1441 -844 
L 513 -844 
z
" transform="scale(0.015625)"/>
     </defs>
     <use xlink:href="#DejaVuSans-Bold-4d"/>
     <use xlink:href="#DejaVuSans-Bold-6f" transform="translate(99.511719 0)"/>
     <use xlink:href="#DejaVuSans-Bold-43" transform="translate(168.212891 0)"/>
     <use xlink:href="#DejaVuSans-Bold-41" transform="translate(241.601562 0)"/>
     <use xlink:href="#DejaVuSans-Bold-20" transform="translate(318.994141 0)"/>
     <use xlink:href="#DejaVuSans-Bold-50" transform="translate(353.808594 0)"/>
     <use xlink:href="#DejaVuSans-Bold-6f" transform="translate(427.099609 0)"/>
     <use xlink:href="#DejaVuSans-Bold-73" transform="translate(495.800781 0)"/>
     <use xlink:href="#DejaVuSans-Bold-74" transform="translate(555.322266 0)"/>
     <use xlink:href="#DejaVuSans-Bold-6f" transform="translate(603.125 0)"/>
     <use xlink:href="#DejaVuSans-Bold-70" transform="translate(671.826172 0)"/>
     <use xlink:href="#DejaVuSans-Bold-65" transform="translate(743.408203 0)"/>
     <use xlink:href="#DejaVuSans-Bold-72" transform="translate(811.230469 0)"/>
     <use xlink:href="#DejaVuSans-Bold-61" transform="translate(860.546875 0)"/>
     <use xlink:href="#DejaVuSans-Bold-74" transform="translate(928.027344 0)"/>
     <use xlink:href="#DejaVuSans-Bold-69" transform="translate(975.830078 0)"/>
     <use xlink:href="#DejaVuSans-Bold-76" transform="translate(1010.107422 0)"/>
     <use xlink:href="#DejaVuSans-Bold-65" transform="translate(1075.292969 0)"/>
     <use xlink:href="#DejaVuSans-Bold-20" transform="translate(1143.115234 0)"/>
     <use xlink:href="#DejaVuSans-Bold-53" transform="translate(1177.929688 0)"/>
     <use xlink:href="#DejaVuSans-Bold-75" transform="translate(1249.951172 0)"/>
     <use xlink:href="#DejaVuSans-Bold-62" transform="translate(1321.142578 0)"/>
     <use xlink:href="#DejaVuSans-Bold-73" transform="translate(1392.724609 0)"/>
     <use xlink:href="#DejaVuSans-Bold-63" transform="translate(1452.246094 0)"/>
     <use xlink:href="#DejaVuSans-Bold-6f" transform="translate(1511.523438 0)"/>
     <use xlink:href="#DejaVuSans-Bold-72" transform="translate(1580.224609 0)"/>
     <use xlink:href="#DejaVuSans-Bold-65" transform="translate(1629.541016 0)"/>
     <use xlink:href="#DejaVuSans-Bold-73" transform="translate(1697.363281 0)"/>
     <use xlink:href="#DejaVuSans-Bold-20" transform="translate(1756.884766 0)"/>
     <use xlink:href="#DejaVuSans-Bold-28" transform="translate(1791.699219 0)"/>
     <use xlink:href="#DejaVuSans-Bold-52" transform="translate(1837.402344 0)"/>
     <use xlink:href="#DejaVuSans-Bold-61" transform="translate(1914.404297 0)"/>
     <use xlink:href="#DejaVuSans-Bold-64" transform="translate(1981.884766 0)"/>
     <use xlink:href="#DejaVuSans-Bold-61" transform="translate(2053.466797 0)"/>
     <use xlink:href="#DejaVuSans-Bold-72" transform="translate(2120.947266 0)"/>
     <use xlink:href="#DejaVuSans-Bold-29" transform="translate(2170.263672 0)"/>
    </g>
   </g>
   <g id="legend_1">
    <g id="patch_6">
     <path d="M 320.153675 73.541262 
L 423.095863 73.541262 
Q 425.095863 73.541262 425.095863 71.541262 
L 425.095863 43.185012 
Q 425.095863 41.185012 423.095863 41.185012 
L 320.153675 41.185012 
Q 318.153675 41.185012 318.153675 43.185012 
L 318.153675 71.541262 
Q 318.153675 73.541262 320.153675 73.541262 
z
" style="fill: #ffffff; opacity: 0.8; stroke: #cccccc; stroke-linejoin: miter"/>
    </g>
    <g id="line2d_15">
     <path d="M 322.153675 49.28345 
L 332.153675 49.28345 
L 342.153675 49.28345 
" style="fill: none; stroke: #2a9d8f; stroke-width: 1.5; stroke-linecap: square"/>
    </g>
    <g id="text_14">
     <!-- Tübingen DBS -->
     <g transform="translate(350.153675 52.78345) scale(0.1 -0.1)">
      <defs>
       <path id="DejaVuSans-54" d="M -19 4666 
L 3928 4666 
L 3928 4134 
L 2272 4134 
L 2272 0 
L 1638 0 
L 1638 4134 
L -19 4134 
L -19 4666 
z
" transform="scale(0.015625)"/>
       <path id="DejaVuSans-fc" d="M 544 1381 
L 544 3500 
L 1119 3500 
L 1119 1403 
Q 1119 906 1312 657 
Q 1506 409 1894 409 
Q 2359 409 2629 706 
Q 2900 1003 2900 1516 
L 2900 3500 
L 3475 3500 
L 3475 0 
L 2900 0 
L 2900 538 
Q 2691 219 2414 64 
Q 2138 -91 1772 -91 
Q 1169 -91 856 284 
Q 544 659 544 1381 
z
M 1991 3584 
L 1991 3584 
z
M 2278 4850 
L 2912 4850 
L 2912 4219 
L 2278 4219 
L 2278 4850 
z
M 1056 4850 
L 1690 4850 
L 1690 4219 
L 1056 4219 
L 1056 4850 
z
" transform="scale(0.015625)"/>
       <path id="DejaVuSans-20" transform="scale(0.015625)"/>
       <path id="DejaVuSans-44" d="M 1259 4147 
L 1259 519 
L 2022 519 
Q 2988 519 3436 956 
Q 3884 1394 3884 2338 
Q 3884 3275 3436 3711 
Q 2988 4147 2022 4147 
L 1259 4147 
z
M 628 4666 
L 1925 4666 
Q 3281 4666 3915 4102 
Q 4550 3538 4550 2338 
Q 4550 1131 3912 565 
Q 3275 0 1925 0 
L 628 0 
L 628 4666 
z
" transform="scale(0.015625)"/>
      </defs>
      <use xlink:href="#DejaVuSans-54"/>
      <use xlink:href="#DejaVuSans-fc" transform="translate(47.333984 0)"/>
      <use xlink:href="#DejaVuSans-62" transform="translate(110.712891 0)"/>
      <use xlink:href="#DejaVuSans-69" transform="translate(174.189453 0)"/>
      <use xlink:href="#DejaVuSans-6e" transform="translate(201.972656 0)"/>
      <use xlink:href="#DejaVuSans-67" transform="translate(265.351562 0)"/>
      <use xlink:href="#DejaVuSans-65" transform="translate(328.828125 0)"/>
      <use xlink:href="#DejaVuSans-6e" transform="translate(390.351562 0)"/>
      <use xlink:href="#DejaVuSans-20" transform="translate(453.730469 0)"/>
      <use xlink:href="#DejaVuSans-44" transform="translate(485.517578 0)"/>
      <use xlink:href="#DejaVuSans-42" transform="translate(562.519531 0)"/>
      <use xlink:href="#DejaVuSans-53" transform="translate(629.373047 0)"/>
     </g>
    </g>
    <g id="line2d_16">
     <path d="M 322.153675 63.961575 
L 332.153675 63.961575 
L 342.153675 63.961575 
" style="fill: none; stroke: #264653; stroke-width: 1.5; stroke-linecap: square"/>
    </g>
    <g id="text_15">
     <!-- PPMI matched -->
     <g transform="translate(350.153675 67.461575) scale(0.1 -0.1)">
      <defs>
       <path id="DejaVuSans-50" d="M 1259 4147 
L 1259 2394 
L 2053 2394 
Q 2494 2394 2734 2622 
Q 2975 2850 2975 3272 
Q 2975 3691 2734 3919 
Q 2494 4147 2053 4147 
L 1259 4147 
z
M 628 4666 
L 2053 4666 
Q 2838 4666 3239 4311 
Q 3641 3956 3641 3272 
Q 3641 2581 3239 2228 
Q 2838 1875 2053 1875 
L 1259 1875 
L 1259 0 
L 628 0 
L 628 4666 
z
" transform="scale(0.015625)"/>
       <path id="DejaVuSans-4d" d="M 628 4666 
L 1569 4666 
L 2759 1491 
L 3956 4666 
L 4897 4666 
L 4897 0 
L 4281 0 
L 4281 4097 
L 3078 897 
L 2444 897 
L 1241 4097 
L 1241 0 
L 628 0 
L 628 4666 
z
" transform="scale(0.015625)"/>
       <path id="DejaVuSans-49" d="M 628 4666 
L 1259 4666 
L 1259 0 
L 628 0 
L 628 4666 
z
" transform="scale(0.015625)"/>
       <path id="DejaVuSans-64" d="M 2906 2969 
L 2906 4863 
L 3481 4863 
L 3481 0 
L 2906 0 
L 2906 525 
Q 2725 213 2448 61 
Q 2172 -91 1784 -91 
Q 1150 -91 751 415 
Q 353 922 353 1747 
Q 353 2572 751 3078 
Q 1150 3584 1784 3584 
Q 2172 3584 2448 3432 
Q 2725 3281 2906 2969 
z
M 947 1747 
Q 947 1113 1208 752 
Q 1469 391 1925 391 
Q 2381 391 2643 752 
Q 2906 1113 2906 1747 
Q 2906 2381 2643 2742 
Q 2381 3103 1925 3103 
Q 1469 3103 1208 2742 
Q 947 2381 947 1747 
z
" transform="scale(0.015625)"/>
      </defs>
      <use xlink:href="#DejaVuSans-50"/>
      <use xlink:href="#DejaVuSans-50" transform="translate(60.302734 0)"/>
      <use xlink:href="#DejaVuSans-4d" transform="translate(120.605469 0)"/>
      <use xlink:href="#DejaVuSans-49" transform="translate(206.884766 0)"/>
      <use xlink:href="#DejaVuSans-20" transform="translate(236.376953 0)"/>
      <use xlink:href="#DejaVuSans-6d" transform="translate(268.164062 0)"/>
      <use xlink:href="#DejaVuSans-61" transform="translate(365.576172 0)"/>
      <use xlink:href="#DejaVuSans-74" transform="translate(426.855469 0)"/>
      <use xlink:href="#DejaVuSans-63" transform="translate(466.064453 0)"/>
      <use xlink:href="#DejaVuSans-68" transform="translate(521.044922 0)"/>
      <use xlink:href="#DejaVuSans-65" transform="translate(584.423828 0)"/>
      <use xlink:href="#DejaVuSans-64" transform="translate(645.947266 0)"/>
     </g>
    </g>
   </g>
  </g>
 </g>
 <defs>
  <clipPath id="p880467eae0">
   <path d="M 363.567863 235.769013 
C 363.567863 213.92807 359.265673 192.299504 350.907506 172.121104 
C 342.54934 151.942704 330.297741 133.606891 314.853862 118.163013 
C 299.409984 102.719134 281.074171 90.467535 260.895771 82.109369 
C 240.717371 73.751202 219.088805 69.449012 197.247863 69.449012 
C 175.40692 69.449012 153.778354 73.751202 133.599954 82.109369 
C 113.421554 90.467535 95.085741 102.719134 79.641863 118.163013 
C 64.197984 133.606891 51.946385 151.942704 43.588219 172.121104 
C 35.230052 192.299504 30.927863 213.92807 30.927863 235.769012 
C 30.927863 257.609955 35.230052 279.238521 43.588219 299.416921 
C 51.946385 319.595321 64.197984 337.931134 79.641863 353.375012 
C 95.085741 368.818891 113.421554 381.07049 133.599954 389.428656 
C 153.778354 397.786823 175.40692 402.089013 197.247863 402.089013 
C 219.088805 402.089013 240.717371 397.786823 260.895771 389.428656 
C 281.074171 381.07049 299.409984 368.818891 314.853862 353.375012 
C 330.297741 337.931134 342.54934 319.595321 350.907506 299.416921 
C 359.265673 279.238521 363.567863 257.609955 363.567863 235.769013 
M 197.247863 235.769013 
C 197.247863 235.769013 197.247863 235.769013 197.247863 235.769013 
C 197.247863 235.769013 197.247863 235.769013 197.247863 235.769013 
C 197.247863 235.769013 197.247863 235.769013 197.247863 235.769013 
C 197.247863 235.769013 197.247863 235.769013 197.247863 235.769013 
C 197.247863 235.769013 197.247863 235.769013 197.247863 235.769013 
C 197.247863 235.769013 197.247863 235.769013 197.247863 235.769013 
C 197.247863 235.769013 197.247863 235.769013 197.247863 235.769013 
C 197.247863 235.769013 197.247863 235.769013 197.247863 235.769013 
C 197.247863 235.769013 197.247863 235.769013 197.247863 235.769013 
C 197.247863 235.769013 197.247863 235.769013 197.247863 235.769013 
C 197.247863 235.769013 197.247863 235.769013 197.247863 235.769013 
C 197.247863 235.769013 197.247863 235.769013 197.247863 235.769013 
C 197.247863 235.769013 197.247863 235.769013 197.247863 235.769013 
C 197.247863 235.769013 197.247863 235.769013 197.247863 235.769013 
C 197.247863 235.769013 197.247863 235.769013 197.247863 235.769013 
C 197.247863 235.769013 197.247863 235.769013 197.247863 235.769013 
z
"/>
  </clipPath>
 </defs>
</svg>
